<svg xmlns="http://www.w3.org/2000/svg" viewBox="0 0 68.07 140.43"><defs><style>.cls-1,.cls-2,.cls-3{stroke:#000;stroke-miterlimit:10;}.cls-1{stroke-width:0.34px;}.cls-2{fill:#fff;stroke-width:0.25px;}.cls-3{stroke-width:0.4px;}</style></defs><g id="Layer_2" data-name="Layer 2"><g id="Layer_11" data-name="Layer 11"><path d="M25.62,134A26.34,26.34,0,0,1,9.83,119.22a.5.5,0,1,0-.93.39,27.31,27.31,0,0,0,16.39,15.33.52.52,0,0,0,.17,0,.5.5,0,0,0,.48-.34A.51.51,0,0,0,25.62,134Z"/><path d="M59.49,117.57a.51.51,0,0,0-.64.31,26.29,26.29,0,0,1-15,15.59.52.52,0,0,0-.29.66.53.53,0,0,0,.48.32.39.39,0,0,0,.18,0A27.27,27.27,0,0,0,59.8,118.22.51.51,0,0,0,59.49,117.57Z"/><path d="M8,100.34a.51.51,0,0,0,.21,0,.52.52,0,0,0,.43-.34A26.48,26.48,0,0,1,22.49,84.87a.49.49,0,0,0,.25-.67.51.51,0,0,0-.67-.25A27.46,27.46,0,0,0,7.7,99.69.5.5,0,0,0,8,100.34Z"/><path d="M26.33,129.55A22,22,0,0,1,13.76,117.2a.5.5,0,0,0-.66-.28.49.49,0,0,0-.28.65A22.93,22.93,0,0,0,26,130.5a.29.29,0,0,0,.18,0,.51.51,0,0,0,.47-.32A.51.51,0,0,0,26.33,129.55Z"/><path d="M55.51,117.13a.5.5,0,0,0-.29-.65.51.51,0,0,0-.66.29,22,22,0,0,1-11.73,12.38.51.51,0,0,0,.21,1,.71.71,0,0,0,.2,0A23,23,0,0,0,55.51,117.13Z"/><path d="M55.38,100.38a.52.52,0,0,0,.43.38.62.62,0,0,0,.19,0,.51.51,0,0,0,.36-.62,23,23,0,0,0-11-14.07.51.51,0,1,0-.5.88A22,22,0,0,1,55.38,100.38Z"/><path d="M25,88.09a23,23,0,0,0-12.61,13.69.52.52,0,0,0,.49.67.49.49,0,0,0,.47-.34A21.94,21.94,0,0,1,25.4,89a.51.51,0,1,0-.4-.93Z"/><path d="M15.21,109.33A7.61,7.61,0,1,0,7.7,117,7.61,7.61,0,0,0,15.21,109.33ZM7.68,116a6.59,6.59,0,1,1,6.52-6.67A6.61,6.61,0,0,1,7.68,116Z"/><path d="M11.66,105.49l-8.4.1a.49.49,0,0,0-.42.24.5.5,0,0,0,0,.49l4.31,8.74a.5.5,0,0,0,.91,0l4.1-8.84a.53.53,0,0,0,0-.49A.49.49,0,0,0,11.66,105.49Zm-4.1,8.17-3.48-7.07,6.79-.08Z"/><path d="M60.38,101.18a7.61,7.61,0,1,0,7.69,7.52A7.61,7.61,0,0,0,60.38,101.18Zm.17,14.2a6.6,6.6,0,1,1,6.51-6.67A6.6,6.6,0,0,1,60.55,115.38Z"/><path d="M60.76,103.16a.47.47,0,0,0-.46-.28.49.49,0,0,0-.45.29L55.75,112a.49.49,0,0,0,0,.48.5.5,0,0,0,.43.24l8.4-.1a.52.52,0,0,0,.42-.25.5.5,0,0,0,0-.49ZM57,111.71l3.31-7.15,3.48,7.07Z"/><path d="M34.27,125.22a7.61,7.61,0,1,0,7.7,7.51A7.61,7.61,0,0,0,34.27,125.22Zm.17,14.19A6.59,6.59,0,1,1,41,132.74,6.6,6.6,0,0,1,34.44,139.41Z"/><path d="M38.42,128.51l-8.41.1a.49.49,0,0,0-.42.24.5.5,0,0,0,0,.49l2.1,4.27H30.52a.52.52,0,0,0-.5.52.51.51,0,0,0,.51.5l1.64,0,1.7,3.46a.51.51,0,0,0,.92,0l1.62-3.5,1.52,0a.51.51,0,0,0,.5-.52.5.5,0,0,0-.51-.5l-1,0,2-4.32a.5.5,0,0,0,0-.49A.49.49,0,0,0,38.42,128.51Zm-4.11,8.17-1-2.08,2,0Zm1.45-3.12-3,0-2-4,6.8-.08Z"/><path class="cls-1" d="M34.47,33.77l1.62-3.46-3-4.56,1.78-4.61-.29-5.28v-.93a3.78,3.78,0,1,0-.66,0v.93l.31,5.3L32.5,25.78l3,4.56L33.9,33.79"/><path class="cls-2" d="M31.05,11.1a3.14,3.14,0,1,1,3.19,3.1,3.14,3.14,0,0,1-3.19-3.1h0"/><circle cx="34.24" cy="5.59" r="0.84"/><path class="cls-3" d="M34,33.73a14.13,14.13,0,0,1-1.68,2.32c-1-.26-1.63-.29-2,0a.76.76,0,0,0,.11,1.22A1.77,1.77,0,0,0,32,36.92a2.63,2.63,0,0,0,.39-.29c.81.22,1.76.54,2.55.81l.63.21c-.82.22-1.73.48-2.76.78l-2.29.65c-1.81-.52-3.06-.68-3.65-.26a.84.84,0,0,0-.36.74.56.56,0,0,0,.23.46c.49.37,1.77.15,3.78-.38,1.72.51,3.81,1.28,5.56,1.94l1.48.55-2.72.79c-1.64.46-3.55,1-5.21,1.43-2.1-.66-3.45-.88-4.09-.44a.84.84,0,0,0-.38.83.59.59,0,0,0,.23.46c.56.41,2,.24,4.16-.28,1.65.53,3.64,1.29,5.5,2,1.43.55,2.83,1.12,4.14,1.55l-.79.34a47.35,47.35,0,0,1-11,3.58A19.13,19.13,0,0,0,22.68,51a1.31,1.31,0,0,0-1.26.51,1.05,1.05,0,0,0-.09,1.07,1.37,1.37,0,0,0,1.24.68,23.9,23.9,0,0,0,4.78-.28L30,54.05a68.18,68.18,0,0,0,7.8,3c-3.23,1-7.12,2.12-10.54,3a21.8,21.8,0,0,0-6-1.14h0a1.6,1.6,0,0,0-1.45,1.29,1.23,1.23,0,0,0,.79,1.44,1.89,1.89,0,0,0,1,.11,53.57,53.57,0,0,0,5.73-1.22c2.59.8,5.45,1.87,8.07,2.88l3.53,1.3c-2.13.56-4.48,1.2-6.78,1.94-1.86.57-3.83,1.2-5.59,1.61-2.86-.84-5.09-1.21-6-.57a1.13,1.13,0,0,0-.46,1,.9.9,0,0,0,.36.71c.81.6,3.08.21,6.08-.57,2.16.64,4.61,1.52,7,2.35,2,.69,3.9,1.38,5.66,1.94-1.35.41-2.79.88-4.31,1.36-.83.28-1.62.54-2.29.74s-1.37.46-2.17.73l-2.23.74c-3.14-1.19-5.77-1.79-6.91-1a1.57,1.57,0,0,0-.64,1.51,1.15,1.15,0,0,0,.52,1c1.16.75,3.73.14,7-.91,2.3.87,4.61,2,6.31,2.75,1,.48,1.93.9,2.5,1.12s1,.44,1.64.75l.95.44c-1.14.32-2.38.69-3.61,1.06s-2.61.79-3.89,1.14c-3.06-1.37-5.77-2.13-7.11-1.51A1.48,1.48,0,0,0,24,84.44a1.38,1.38,0,0,0,.56,1.14c1.16.85,4,.34,7.33-.58a55.1,55.1,0,0,1,11.38,6.92,22.33,22.33,0,0,1,6.45,9,15.69,15.69,0,0,1,.44,10.66,15.24,15.24,0,0,1-7.85,9.28A18.69,18.69,0,0,1,27.76,122a14.3,14.3,0,0,1-9.91-12.18,14.83,14.83,0,0,1,7.86-14.73A13.55,13.55,0,0,1,34.28,94a13,13,0,0,1,7.51,4.29,12.82,12.82,0,0,1,3,7.51,11.83,11.83,0,0,1-5.22,10.56,10,10,0,0,1-11.49-.68,8.56,8.56,0,0,1-1.5-11.06,7.52,7.52,0,0,1,5.32-2.95,6.92,6.92,0,0,1,5.4,1.61,5.74,5.74,0,0,1,1.89,5.08,5.21,5.21,0,0,1-4.9,4.52,3.43,3.43,0,0,1-2.56-1.11,3,3,0,0,1-.81-2.29,2.71,2.71,0,0,1,1.66-2.08,2.36,2.36,0,0,1,2.3.13.28.28,0,0,0,.37,0,.28.28,0,0,0-.07-.38,2.91,2.91,0,0,0-2.87-.17,3.26,3.26,0,0,0-2,2.5,3.46,3.46,0,0,0,.94,2.71,4,4,0,0,0,2.93,1.35h0a5.82,5.82,0,0,0,5.48-4.94,6.26,6.26,0,0,0-2.06-5.55,7.47,7.47,0,0,0-5.77-1.76,8,8,0,0,0-5.7,3.17,9.11,9.11,0,0,0,1.6,11.67,10.33,10.33,0,0,0,12.1.77,12.25,12.25,0,0,0,5.48-11,13.21,13.21,0,0,0-10.92-12.3,14.22,14.22,0,0,0-9,1.1,15.39,15.39,0,0,0-8.1,15.24,14.77,14.77,0,0,0,10.36,12.69,19.21,19.21,0,0,0,15-1.13,15.71,15.71,0,0,0,8.11-9.57,16.22,16.22,0,0,0-.45-11A22.86,22.86,0,0,0,43.7,91.6a55.08,55.08,0,0,0-10.92-6.76c1.07-.3,2.18-.64,3.3-1,1.4-.42,2.85-.86,4.22-1.2a29,29,0,0,0,2.85,1.11c1.9.65,3.18.74,3.87.28a1.49,1.49,0,0,0,.67-1.36,1.31,1.31,0,0,0-.56-1.14c-1.06-.78-3.63-.35-6.75.49l-1.53-.71c-.67-.31-1.25-.59-1.66-.75s-1.46-.64-2.48-1.11c-2-.91-3.93-1.79-5.77-2.52l1.63-.55c.79-.27,1.53-.52,2.15-.71L35,75c1.52-.5,3.32-1.08,5.07-1.59,3.37,1,6.07,1.58,7.14.84a1.27,1.27,0,0,0,.24-1.77,1.38,1.38,0,0,0-.27-.27c-1.06-.76-3.71-.31-7.13.65-2-.63-4.29-1.43-6.42-2.22s-4.29-1.51-6.18-2.11c1.46-.4,3.08-.88,4.76-1.38,2.51-.76,5.17-1.56,7.53-2.14,3.88,1.37,6.35,2,7.37,1.33a1.14,1.14,0,0,0,.47-1A1.4,1.4,0,0,0,47,64.18c-1.1-.81-3.83-.47-7.2.34-1.37-.49-2.82-1-4.26-1.58-2.4-.9-4.94-1.85-7.33-2.61,3.52-.9,7.41-2,10.53-3a17,17,0,0,0,8,.48,1.35,1.35,0,0,0,1-.92,1.47,1.47,0,0,0-.37-1.48,2.75,2.75,0,0,0-2.8-.52h0c-.07,0-2.48.81-5.81,1.83a62,62,0,0,1-8.52-3.21l-1.86-.78A50.18,50.18,0,0,0,38.66,49.3L40,48.73c2.7.92,4.85,1.42,5.68.81a1,1,0,0,0,.38-.92h0a2,2,0,0,0-.93-1.41c-1-.55-2.79,0-5.13,1-1.54-.52-3.19-1.11-4.71-1.73-1.83-.67-3.38-1.33-4.73-1.78,1.28-.33,2.76-.75,4.42-1.2,1.14-.35,2.38-.7,3.43-1a20.75,20.75,0,0,0,3.46,1,1.55,1.55,0,0,0,1.55-.59.91.91,0,0,0,.07-1c-.15-.26-.57-.7-1.71-.65a19.39,19.39,0,0,0-3.29.67c-.7-.24-1.43-.52-2.18-.81-1.84-.68-3.46-1.27-4.8-1.7L33,39c1.14-.33,2.43-.71,3.57-1,1.61.52,2.67.73,3.14.37a.59.59,0,0,0,.23-.55.63.63,0,0,0-.28-.5c-.46-.34-1.5-.24-3.07.12L35.2,37c-.88-.3-1.65-.55-2.31-.74a12.46,12.46,0,0,0,1.58-2.55m4.88,4.23c-.2.16-.89,0-1.71-.19a8.8,8.8,0,0,1,1.15-.13,1,1,0,0,1,.59.12.12.12,0,0,1,0,.09v.11M42,43a16.78,16.78,0,0,1-2.62-.67,15.32,15.32,0,0,1,2.43-.46h.12c.54,0,1,.13,1.09.37a.43.43,0,0,1,0,.45A1,1,0,0,1,42,43m3.52,6.16c-.59.43-2.41,0-4.6-.68,1.87-.74,3.34-1.19,4.11-.77a1.38,1.38,0,0,1,.66,1,.46.46,0,0,1-.17.44m1.25,8.15a15.47,15.47,0,0,1-6.9-.26c2.81-.86,4.79-1.52,5-1.58a5.16,5.16,0,0,1,.88-.1,1.75,1.75,0,0,1,1.38.47,1,1,0,0,1,.25.92.83.83,0,0,1-.62.55m.21,8.6c-.78.53-3.15-.06-6-1.08A21.24,21.24,0,0,1,45,64.21a3.08,3.08,0,0,1,1.81.38.83.83,0,0,1,.34.73.56.56,0,0,1-.23.54m.09,8c-.82.56-3.07.15-5.86-.67a19.86,19.86,0,0,1,4.46-.78,2.48,2.48,0,0,1,1.41.28.64.64,0,0,1,.28.56.72.72,0,0,1-.29.61m-.19,9.84c-.93.61-3.45-.26-5.61-1.21a20,20,0,0,1,4.2-.72,2.49,2.49,0,0,1,1.46.3.86.86,0,0,1,.33.68,1,1,0,0,1-.39.94m-21.61-.16c1-.49,3.33.1,6,1.25-2.85.75-5.33,1.21-6.23.5a.85.85,0,0,1-.35-.75,1,1,0,0,1,.55-1m-3.53-7.36c.93-.63,3.22,0,5.75.82-2.49.76-5,1.35-5.88.77a.65.65,0,0,1-.3-.55,1.07,1.07,0,0,1,.41-1m-.71-8c.65-.47,2.4-.2,4.6.41-2.29.57-4.17.85-4.74.43a.32.32,0,0,1-.15-.29.61.61,0,0,1,.24-.55m.38-8.74a18.79,18.79,0,0,1,5,.86,45.87,45.87,0,0,1-4.78.94,1.33,1.33,0,0,1-.69-.07.73.73,0,0,1-.5-.85,1.15,1.15,0,0,1,1-.88h0m1.41-7.92a15.12,15.12,0,0,1,3.73,1.11,23.48,23.48,0,0,1-3.75.15.9.9,0,0,1-.79-.39.49.49,0,0,1,.06-.52.77.77,0,0,1,.75-.29m3.2-7.1c.37-.27,1.39-.13,2.71.25a5.09,5.09,0,0,1-2.79.09.2.2,0,0,1-.06-.11.34.34,0,0,1,.14-.3m1.32-5.09a3.59,3.59,0,0,1,2.29.1,4.71,4.71,0,0,1-2.38.24h0a.34.34,0,0,1,.13-.3m3.41-2.81a1.81,1.81,0,0,1,1.15,0h0a1.28,1.28,0,0,1-1.14.29.17.17,0,0,1-.1-.18v-.12"/><path d="M36.83,9.5h0A3.39,3.39,0,0,0,34.15,8h0a3.3,3.3,0,0,0-1.5.47,3.46,3.46,0,0,0-1.14,1.11h0a3.62,3.62,0,0,0-.35,1.55,3.45,3.45,0,0,0,.33,1.49h0a3.63,3.63,0,0,0,1.16,1.08,3.41,3.41,0,0,0,1.52.43h0a3.38,3.38,0,0,0,1.55-.41,3.49,3.49,0,0,0,1.13-1.1h0a3.43,3.43,0,0,0,.34-1.54,3.47,3.47,0,0,0-.38-1.54Zm-1.24-.95a3.33,3.33,0,0,1,1,.91,3.37,3.37,0,0,1-2.35-1.31A3,3,0,0,1,35.59,8.55ZM34.86,11a3,3,0,0,0,.82-.34A3.34,3.34,0,0,0,36.5,10a3.75,3.75,0,0,0-.15,1.05,3.66,3.66,0,0,0,.18,1,3.51,3.51,0,0,0-.84-.65,3.13,3.13,0,0,0-.83-.33Zm.75-.47a3.09,3.09,0,0,1-.77.33.81.81,0,0,0-.19-.29,3.18,3.18,0,0,1,.67-.54,3.33,3.33,0,0,1,1.3-.43A3.32,3.32,0,0,1,35.61,10.56ZM34.38,8.5a3.31,3.31,0,0,0,.85.68,3.26,3.26,0,0,0,1,.37,3.52,3.52,0,0,0-1,.39,3.23,3.23,0,0,0-.71.57h-.08a3.42,3.42,0,0,0,.12-.9A3.24,3.24,0,0,0,34.38,8.5Zm.11,3.23h.08a3.41,3.41,0,0,0,.71.54,3.24,3.24,0,0,0,1,.36,3.88,3.88,0,0,0-1,.4,3,3,0,0,0-.82.68,3.77,3.77,0,0,0,.15-1.06A3.08,3.08,0,0,0,34.49,11.73Zm-.34-3.5a3.32,3.32,0,0,1,.2,2.19H34a3,3,0,0,1-.12-.85A3.09,3.09,0,0,1,34.15,8.23Zm-.67,2.91a4,4,0,0,0-.8.34,3.25,3.25,0,0,0-.83.7A3.26,3.26,0,0,0,32,11.11a3.07,3.07,0,0,0-.17-1,3.25,3.25,0,0,0,1.65,1Zm-.73.47a3,3,0,0,1,.76-.32.67.67,0,0,0,.19.31,3.18,3.18,0,0,1-.65.51,3.38,3.38,0,0,1-1.31.43,3.61,3.61,0,0,1,1-.93Zm.37.63a3.57,3.57,0,0,0,.69-.54h.08a3.11,3.11,0,0,0-.1.86,3.39,3.39,0,0,0,.17,1,3.27,3.27,0,0,0-.83-.65,3.34,3.34,0,0,0-1-.38,3.34,3.34,0,0,0,.93-.34Zm.75-1.77h0A4.56,4.56,0,0,0,33,10a3.78,3.78,0,0,0-1-.36,3.21,3.21,0,0,0,1-.44,3.61,3.61,0,0,0,.8-.65,3.27,3.27,0,0,0,0,1.91ZM32.7,8.59A3.14,3.14,0,0,1,34,8.15a3.1,3.1,0,0,1-1,.93,3.2,3.2,0,0,1-1.29.44,3,3,0,0,1,1-.93Zm.32,1.5a3.42,3.42,0,0,1,.69.51.61.61,0,0,0-.18.31,4.47,4.47,0,0,1-.79-.31,3.41,3.41,0,0,1-1-.91A3.29,3.29,0,0,1,33,10.09Zm-1.72,1a3.32,3.32,0,0,1,.27-1.35,3.28,3.28,0,0,1,0,2.69,3,3,0,0,1-.35-1.34Zm1.49,2.51a3.33,3.33,0,0,1-1-.91,3.19,3.19,0,0,1,1.31.41,3.22,3.22,0,0,1,1,.91,3.46,3.46,0,0,1-1.36-.41Zm1.45.31a3.34,3.34,0,0,1-.35-1.35,3.15,3.15,0,0,1,.1-.81h.36a3.78,3.78,0,0,1,.12.82,3.12,3.12,0,0,1-.25,1.35Zm1.45-.35a3.14,3.14,0,0,1-1.3.44,3.45,3.45,0,0,1,1-.93,3.18,3.18,0,0,1,1.31-.44,3.49,3.49,0,0,1-1.06.93Zm-.35-1.51a5.12,5.12,0,0,1-.66-.49.73.73,0,0,0,.16-.33,4.09,4.09,0,0,1,.78.31,3.63,3.63,0,0,1,1,.91A3.27,3.27,0,0,1,35.34,12.08Zm1.45.32a3.32,3.32,0,0,1,0-2.69A3.24,3.24,0,0,1,36.79,12.4Z"/><path d="M59,98.56a.5.5,0,0,0,.41.39h.19a.51.51,0,0,0,.39-.61A23.09,23.09,0,0,0,49.6,83.83a.51.51,0,1,0-.53.87A22,22,0,0,1,59,98.56Z"/><circle cx="34.12" cy="0.84" r="0.84"/><circle cx="34.19" cy="3.27" r="0.84"/></g></g></svg>