<svg xmlns="http://www.w3.org/2000/svg" viewBox="0 0 141.72 40.1"><defs><style>.cls-1{fill:#231f20;}.cls-2{fill:#fff;}</style></defs><g id="Layer_2" data-name="Layer 2"><g id="Layer_1-2" data-name="Layer 1"><path d="M5.94,23.32a.62.62,0,0,0-1.24,0,.62.62,0,0,0,1.24,0Z"/><path class="cls-1" d="M78.83,25.8c-1.9-3.29-4.86-9.14-6-12A18.06,18.06,0,0,0,75,8.13C76,2.83,74.3,1,73.52.47a2.67,2.67,0,0,0-3,0,4,4,0,0,0-1.61,4.16,44.6,44.6,0,0,0,2.9,9.17l-.24.38L64.12,25.77a47.53,47.53,0,0,0-6.83-10.34,12.24,12.24,0,0,0,.63-6.77,3.27,3.27,0,0,0-1.46-2.13,2.39,2.39,0,0,0-2.76.07,3.78,3.78,0,0,0-1.34,3.74,7.76,7.76,0,0,0,2.3,3.42c.33.33.66.68,1,1s.47.55.7.82A40.29,40.29,0,0,1,52,23l-.68,1c-.57.85-1.08,1.67-1.54,2.48A42.92,42.92,0,0,0,47,22.65c-.81-1-1.65-2.09-2.39-3.18l-.15-.23A10.67,10.67,0,0,0,44.92,13a1.82,1.82,0,0,0-3.58.58,14.34,14.34,0,0,0,2.09,5.7,8.23,8.23,0,0,1-1.7,2.48A18.65,18.65,0,0,1,40,23.25c-.43.34-.86.67-1.27,1a34.14,34.14,0,0,0-2.58-6.13,10,10,0,0,0,.56-3.49c-.13-1.31-.85-1.67-1.16-1.76a1.47,1.47,0,0,0-1.55.49,2.08,2.08,0,0,0-.1,2.33c.23.46.49.94.76,1.45.18.34.37.69.56,1.06a11.15,11.15,0,0,1-2,3.72,2.34,2.34,0,0,1-1.6.95c-8.5.17-22-.07-22.1-.07a.43.43,0,0,0-.44.42h0a.42.42,0,0,0,.42.43c.14,0,13.62.24,22.14.07a3.16,3.16,0,0,0,2.23-1.24,11.14,11.14,0,0,0,1.85-3.26A30.72,30.72,0,0,1,38,25a6.38,6.38,0,0,0-1.17,1.63A3.52,3.52,0,0,0,37,30.07a1.38,1.38,0,0,0,1.6.53,1.56,1.56,0,0,0,1-1.63A19.93,19.93,0,0,0,39,25.21c.47-.44,1-.86,1.54-1.28a21.69,21.69,0,0,0,1.81-1.54A9.14,9.14,0,0,0,44,20.15c.72,1.05,1.52,2.06,2.29,3a37.28,37.28,0,0,1,3,4.16A18.39,18.39,0,0,0,47.11,34a2.3,2.3,0,0,0,2,2.54,2.22,2.22,0,0,0,2.57-1.86A10.6,10.6,0,0,0,51,28.81c-.22-.5-.46-1-.73-1.48A32.85,32.85,0,0,1,52,24.48l.67-1a43.39,43.39,0,0,0,4.23-7.15,44.64,44.64,0,0,1,6.63,10.28l-1.91,3c-1.09,1.7-2.45,3.79-2.37,6.17a4.67,4.67,0,0,0,2.7,4A3.11,3.11,0,0,0,65.43,39a4.2,4.2,0,0,0,1.35-3.39,29.87,29.87,0,0,0-2.25-8.94l7.71-12c1.21,2.82,4.43,9.08,6.14,12.05"/><path class="cls-2" d="M69.79,4.47A3.2,3.2,0,0,1,71,1.16a1.81,1.81,0,0,1,2,0c.91.63,1.39,2,1.39,3.92A15.48,15.48,0,0,1,74.13,8a17.35,17.35,0,0,1-1.75,4.85A42.73,42.73,0,0,1,69.79,4.47Z"/><path class="cls-2" d="M56.28,14.23c-.32-.37-.67-.73-1-1.07a7,7,0,0,1-2.08-3,2.88,2.88,0,0,1,1-2.84,1.52,1.52,0,0,1,1.8,0,2.4,2.4,0,0,1,1.07,1.57,10.84,10.84,0,0,1,.21,2.1,12,12,0,0,1-.63,3.75Z"/><path class="cls-2" d="M42.19,13.5a1,1,0,0,1,1.89-.3,9.55,9.55,0,0,1,.22,2.06,9.88,9.88,0,0,1-.47,3A13,13,0,0,1,42.19,13.5Z"/><path class="cls-2" d="M35.42,16.76c-.27-.5-.52-1-.75-1.43a1.26,1.26,0,0,1,0-1.39.61.61,0,0,1,.64-.22c.3.09.5.46.55,1a2.81,2.81,0,0,1,0,.3,8.88,8.88,0,0,1-.29,2Z"/><path class="cls-2" d="M38.71,29a.73.73,0,0,1-.39.78.54.54,0,0,1-.62-.24A2.65,2.65,0,0,1,37.64,27a5.53,5.53,0,0,1,.65-1A18.83,18.83,0,0,1,38.71,29Z"/><path class="cls-2" d="M50.22,29.15a9.78,9.78,0,0,1,.65,5.4,1.36,1.36,0,0,1-1.6,1.16A1.43,1.43,0,0,1,48,34.1a16.55,16.55,0,0,1,1.83-5.84C50,28.55,50.09,28.85,50.22,29.15Z"/><path class="cls-2" d="M65.92,35.73a3.32,3.32,0,0,1-1.08,2.69,2.23,2.23,0,0,1-2.53.56,3.8,3.8,0,0,1-2.17-3.25c-.07-1.93,1-3.71,2.23-5.66L64,27.59A28.81,28.81,0,0,1,65.92,35.73Z"/><path d="M3.49,23.32a.63.63,0,1,0-.63.62A.63.63,0,0,0,3.49,23.32Z"/><path d="M1,23.32a.52.52,0,1,0-.52.51A.52.52,0,0,0,1,23.32Z"/></g><g id="Layer_2-2" data-name="Layer 2"><path class="cls-1" d="M78.38,26.78a29.94,29.94,0,0,0-2.24,8.94,4.23,4.23,0,0,0,1.34,3.4,3.12,3.12,0,0,0,3.46.74,4.66,4.66,0,0,0,2.69-4c.09-2.37-1.27-4.47-2.36-6.16l-1.91-3A44.58,44.58,0,0,1,86,16.42a42.12,42.12,0,0,0,4.23,7.16l.67,1c.66,1,1.25,1.93,1.75,2.85a13.54,13.54,0,0,0-.73,1.48,10.59,10.59,0,0,0-.71,5.89,2.21,2.21,0,0,0,2.56,1.86,2.3,2.3,0,0,0,2-2.54,18,18,0,0,0-2.18-6.67,40.16,40.16,0,0,1,3-4.17c.78-1,1.58-2,2.3-3a9.33,9.33,0,0,0,1.65,2.24A20.07,20.07,0,0,0,102.39,24c.54.43,1.07.84,1.54,1.29a19.06,19.06,0,0,0-.58,3.75,1.58,1.58,0,0,0,1,1.64,1.41,1.41,0,0,0,1.6-.54,3.52,3.52,0,0,0,.14-3.48A6.61,6.61,0,0,0,104.88,25a31,31,0,0,1,2.28-5.68A11.29,11.29,0,0,0,109,22.6a3.14,3.14,0,0,0,2.23,1.23c8.51.18,22-.06,22.14-.06a.44.44,0,0,0,.42-.43h0a.43.43,0,0,0-.44-.42c-.13,0-13.61.24-22.1.06a2.36,2.36,0,0,1-1.61-.94,11.29,11.29,0,0,1-2-3.73l.57-1.06c.27-.5.52-1,.75-1.44a2.08,2.08,0,0,0-.1-2.34,1.48,1.48,0,0,0-1.55-.49,1.82,1.82,0,0,0-1.15,1.76,10,10,0,0,0,.56,3.49,35.31,35.31,0,0,0-2.59,6.14c-.41-.36-.84-.7-1.26-1a20.61,20.61,0,0,1-1.73-1.47,8.44,8.44,0,0,1-1.71-2.48,14.2,14.2,0,0,0,2.1-5.71A1.82,1.82,0,0,0,98,13.09a10.7,10.7,0,0,0,.51,6.23l-.16.23c-.73,1.09-1.57,2.15-2.39,3.18a42.67,42.67,0,0,0-2.81,3.82c-.46-.8-1-1.63-1.55-2.47l-.67-1a39.66,39.66,0,0,1-4.33-7.4l.69-.83c.3-.35.64-.69,1-1a7.67,7.67,0,0,0,2.31-3.43,3.75,3.75,0,0,0-1.35-3.73,2.37,2.37,0,0,0-2.75-.07A3.22,3.22,0,0,0,85,8.73a12.18,12.18,0,0,0,.63,6.78A47.71,47.71,0,0,0,78.8,25.84"/><path class="cls-2" d="M86.26,14.75A11.94,11.94,0,0,1,85.62,11a10.13,10.13,0,0,1,.22-2.1,2.4,2.4,0,0,1,1.07-1.57,1.53,1.53,0,0,1,1.8,0,2.92,2.92,0,0,1,1,2.84,7,7,0,0,1-2.08,3c-.34.34-.68.69-1,1.06Z"/><path class="cls-2" d="M99.09,18.35a9.82,9.82,0,0,1-.47-3,9.55,9.55,0,0,1,.22-2.06.9.9,0,0,1,1.09-.72.89.89,0,0,1,.79,1A12.9,12.9,0,0,1,99.09,18.35Z"/><path class="cls-2" d="M107.35,17.12a9.05,9.05,0,0,1-.3-2,2.64,2.64,0,0,1,0-.29c.05-.56.25-.93.55-1a.63.63,0,0,1,.63.23,1.24,1.24,0,0,1,0,1.39c-.23.45-.49.93-.75,1.43Z"/><path class="cls-2" d="M104.63,26a5.28,5.28,0,0,1,.65,1,2.68,2.68,0,0,1-.06,2.59.54.54,0,0,1-.62.24.74.74,0,0,1-.39-.79A17.92,17.92,0,0,1,104.63,26Z"/><path class="cls-2" d="M93.12,28.33A17,17,0,0,1,95,34.18a1.42,1.42,0,0,1-1.3,1.6,1.36,1.36,0,0,1-1.6-1.16,9.65,9.65,0,0,1,.65-5.39C92.83,28.92,93,28.63,93.12,28.33Z"/><path class="cls-2" d="M79,27.67l1.6,2.47c1.25,2,2.3,3.74,2.22,5.67a3.78,3.78,0,0,1-2.16,3.25,2.26,2.26,0,0,1-2.54-.57A3.34,3.34,0,0,1,77,35.8,29.16,29.16,0,0,1,79,27.67Z"/><path d="M135.78,23.39a.62.62,0,0,0,.62.62.63.63,0,1,0-.62-.62Z"/><path d="M138.23,23.39a.63.63,0,1,0,.62-.63A.62.62,0,0,0,138.23,23.39Z"/><path d="M140.69,23.39a.52.52,0,1,0,.51-.52A.51.51,0,0,0,140.69,23.39Z"/></g></g></svg>