<svg xmlns="http://www.w3.org/2000/svg" viewBox="0 0 113.72 445.58"><defs><style>.cls-1,.cls-2,.cls-3,.cls-4{stroke:#000;stroke-miterlimit:10;}.cls-1{stroke-width:0.34px;}.cls-2,.cls-5{fill:#fff;}.cls-2{stroke-width:0.25px;}.cls-3{stroke-width:0.4px;}.cls-6{opacity:0.11;}.cls-7{opacity:0.03;}.cls-8{opacity:0.22;}.cls-9{opacity:0.74;}.cls-10{opacity:0.72;}.cls-11{opacity:0.28;}</style></defs><g id="Layer_2" data-name="Layer 2"><g id="Layer_11" data-name="Layer 11"><path d="M48.78,439.13A26.28,26.28,0,0,1,33,424.38a.52.52,0,0,0-.67-.28.51.51,0,0,0-.27.67,27.31,27.31,0,0,0,16.4,15.32.47.47,0,0,0,.17,0,.51.51,0,0,0,.15-1Z"/><path d="M82.66,422.73A.5.5,0,0,0,82,423a26.32,26.32,0,0,1-15,15.59.5.5,0,0,0-.28.66.51.51,0,0,0,.48.32.58.58,0,0,0,.18,0A27.31,27.31,0,0,0,83,423.38.5.5,0,0,0,82.66,422.73Z"/><path d="M31.17,405.5a.5.5,0,0,0,.21,0,.51.51,0,0,0,.44-.33A26.41,26.41,0,0,1,45.66,390a.51.51,0,0,0,.25-.67.5.5,0,0,0-.67-.25,27.44,27.44,0,0,0-14.38,15.74A.52.52,0,0,0,31.17,405.5Z"/><path d="M49.49,434.71a21.94,21.94,0,0,1-12.57-12.36.5.5,0,0,0-.65-.28.51.51,0,0,0-.29.66,23,23,0,0,0,13.15,12.93.58.58,0,0,0,.19,0,.49.49,0,0,0,.46-.33A.5.5,0,0,0,49.49,434.71Z"/><path d="M78.68,422.28a.51.51,0,1,0-1-.35A22,22,0,0,1,66,434.3a.5.5,0,0,0-.26.67.49.49,0,0,0,.47.3.43.43,0,0,0,.19,0A23,23,0,0,0,78.68,422.28Z"/><path d="M78.55,405.54a.49.49,0,0,0,.43.37.41.41,0,0,0,.19,0,.51.51,0,0,0,.36-.62,23,23,0,0,0-11-14.08.52.52,0,0,0-.69.2.51.51,0,0,0,.2.69A22,22,0,0,1,78.55,405.54Z"/><path d="M48.17,393.24a23,23,0,0,0-12.61,13.7.5.5,0,0,0,.32.64.45.45,0,0,0,.16,0,.53.53,0,0,0,.48-.35,21.9,21.9,0,0,1,12-13.08.51.51,0,0,0,.26-.67A.5.5,0,0,0,48.17,393.24Z"/><path d="M38.38,414.48a7.61,7.61,0,1,0-7.52,7.7A7.62,7.62,0,0,0,38.38,414.48Zm-7.53,6.68a6.59,6.59,0,1,1,6.51-6.67A6.58,6.58,0,0,1,30.85,421.16Z"/><path d="M34.83,410.64l-8.4.1A.5.5,0,0,0,26,411a.5.5,0,0,0,0,.49l4.3,8.75a.53.53,0,0,0,.46.28.51.51,0,0,0,.46-.29l4.09-8.85a.5.5,0,0,0,0-.49A.54.54,0,0,0,34.83,410.64Zm-4.11,8.18-3.48-7.08,6.8-.08Z"/><path d="M83.54,406.34a7.61,7.61,0,1,0,7.7,7.51A7.61,7.61,0,0,0,83.54,406.34Zm.17,14.19a6.59,6.59,0,1,1,6.51-6.67A6.6,6.6,0,0,1,83.71,420.53Z"/><path d="M83.93,408.31a.53.53,0,0,0-.47-.28.51.51,0,0,0-.45.29l-4.09,8.85a.48.48,0,0,0,0,.49.52.52,0,0,0,.43.23l8.4-.1a.5.5,0,0,0,.43-.24.5.5,0,0,0,0-.49Zm-3.76,8.56,3.32-7.16L87,416.79Z"/><path d="M57.44,430.37a7.61,7.61,0,1,0,7.69,7.52A7.62,7.62,0,0,0,57.44,430.37Zm.17,14.2a6.59,6.59,0,1,1,6.51-6.67A6.6,6.6,0,0,1,57.61,444.57Z"/><path d="M61.58,433.66l-8.4.1a.5.5,0,0,0-.45.73l2.1,4.27-1.15,0a.5.5,0,0,0-.5.51.52.52,0,0,0,.52.5l1.63,0L57,443.24a.5.5,0,0,0,.46.28.51.51,0,0,0,.45-.29l1.62-3.51,1.53,0a.5.5,0,0,0,.5-.51.52.52,0,0,0-.52-.5h-1l2-4.32a.51.51,0,0,0-.47-.72Zm-4.1,8.18-1-2.08,2,0Zm1.44-3.13-3,0-2-4,6.79-.08Z"/><path class="cls-1" d="M57.64,338.93l1.62-3.47-3-4.56L58,326.29l-.3-5.28v-.93a3.77,3.77,0,1,0-.65,0V321l.3,5.3-1.72,4.61,3,4.56-1.61,3.45"/><path class="cls-2" d="M54.22,316.26a3.14,3.14,0,1,1,3.18,3.09,3.13,3.13,0,0,1-3.18-3.09v0"/><circle cx="57.4" cy="310.75" r="0.84"/><path class="cls-3" d="M57.12,338.89a15.32,15.32,0,0,1-1.68,2.31c-1-.25-1.64-.29-2,0a.65.65,0,0,0-.27.56.71.71,0,0,0,.37.65,1.76,1.76,0,0,0,1.64-.3,4,4,0,0,0,.39-.29c.82.22,1.76.54,2.56.8l.62.21-2.76.78c-.73.21-1.54.45-2.29.65-1.8-.52-3.06-.67-3.65-.25a.84.84,0,0,0-.36.73.55.55,0,0,0,.24.46c.48.37,1.77.15,3.77-.38,1.73.51,3.82,1.29,5.57,1.95l1.47.54-2.72.79c-1.63.47-3.55,1-5.21,1.43-2.09-.65-3.45-.88-4.09-.43a.85.85,0,0,0-.38.83.58.58,0,0,0,.24.45c.55.41,2,.24,4.15-.28,1.66.54,3.64,1.29,5.5,2,1.43.54,2.84,1.11,4.14,1.54l-.79.34a47.43,47.43,0,0,1-11,3.58,18.65,18.65,0,0,0-4.74-1.42,1.27,1.27,0,0,0-1.25.51,1,1,0,0,0-.1,1.06,1.38,1.38,0,0,0,1.24.69,24,24,0,0,0,4.79-.29l2.63,1.12a70.64,70.64,0,0,0,7.79,3c-3.22,1-7.11,2.12-10.53,3a22.33,22.33,0,0,0-6-1.15h0a1.64,1.64,0,0,0-1.45,1.29,1.22,1.22,0,0,0,.8,1.44,1.76,1.76,0,0,0,1,.12,53.57,53.57,0,0,0,5.73-1.22c2.59.79,5.45,1.86,8.07,2.88l3.53,1.3c-2.13.55-4.47,1.2-6.77,1.94-1.87.56-3.84,1.19-5.6,1.6-2.86-.83-5.09-1.21-6-.57a1.17,1.17,0,0,0-.46,1,.85.85,0,0,0,.37.7c.81.6,3.08.22,6.08-.56,2.15.64,4.61,1.51,7,2.35,2,.69,3.9,1.37,5.66,1.94-1.35.41-2.79.87-4.31,1.36-.82.27-1.61.54-2.29.74s-1.37.45-2.17.73l-2.23.73c-3.14-1.19-5.76-1.79-6.9-1a1.58,1.58,0,0,0-.65,1.51,1.14,1.14,0,0,0,.53,1c1.16.74,3.72.14,7-.91,2.31.86,4.62,2,6.31,2.75,1,.48,1.93.89,2.51,1.11s1,.44,1.64.75l1,.44c-1.15.32-2.38.69-3.62,1.07s-2.61.78-3.89,1.13c-3.06-1.36-5.77-2.12-7.1-1.51a1.5,1.5,0,0,0-.86,1.49,1.41,1.41,0,0,0,.57,1.14c1.16.85,4,.35,7.33-.58a55.15,55.15,0,0,1,11.38,6.93,22.28,22.28,0,0,1,6.44,9,15.72,15.72,0,0,1,.44,10.67A15.21,15.21,0,0,1,65.48,426a18.7,18.7,0,0,1-14.55,1.13A14.28,14.28,0,0,1,41,415a14.87,14.87,0,0,1,7.86-14.74,13.66,13.66,0,0,1,8.58-1.1,12.93,12.93,0,0,1,7.5,4.3,12.73,12.73,0,0,1,3,7.5,11.83,11.83,0,0,1-5.22,10.56,10,10,0,0,1-11.49-.68,8.57,8.57,0,0,1-1.5-11.06,7.49,7.49,0,0,1,5.33-2.94,6.88,6.88,0,0,1,5.39,1.61,5.76,5.76,0,0,1,1.9,5.07,5.25,5.25,0,0,1-4.91,4.53,3.47,3.47,0,0,1-2.56-1.12,3,3,0,0,1-.81-2.29,2.72,2.72,0,0,1,1.67-2.07,2.36,2.36,0,0,1,2.29.12.27.27,0,0,0,.37,0,.27.27,0,0,0-.06-.38,2.89,2.89,0,0,0-2.87-.17,3.22,3.22,0,0,0-2,2.5,3.39,3.39,0,0,0,.94,2.71,4,4,0,0,0,2.93,1.34h0a5.8,5.8,0,0,0,5.47-4.93,6.25,6.25,0,0,0-2.06-5.56A7.42,7.42,0,0,0,55,406.45a8,8,0,0,0-5.71,3.16,9.12,9.12,0,0,0,1.6,11.67,10.33,10.33,0,0,0,12.1.78,12.25,12.25,0,0,0,5.48-11,13.2,13.2,0,0,0-10.91-12.31,14.32,14.32,0,0,0-9,1.11,15.39,15.39,0,0,0-8.1,15.24,14.8,14.8,0,0,0,10.36,12.69,19.3,19.3,0,0,0,15-1.13,15.74,15.74,0,0,0,8.11-9.57,16.25,16.25,0,0,0-.44-11,23,23,0,0,0-6.61-9.28A55.84,55.84,0,0,0,56,390c1.06-.3,2.17-.63,3.29-1,1.4-.41,2.85-.86,4.23-1.19.93.41,1.88.79,2.85,1.11,1.9.64,3.17.73,3.87.27a1.5,1.5,0,0,0,.66-1.36,1.29,1.29,0,0,0-.55-1.14c-1.07-.78-3.64-.35-6.76.49L62,386.5c-.67-.31-1.25-.59-1.67-.75s-1.45-.65-2.48-1.12c-2-.91-3.92-1.79-5.77-2.51l1.64-.55,2.15-.72,2.28-.73c1.52-.51,3.32-1.09,5.07-1.59,3.38,1.05,6.07,1.58,7.14.83a1.26,1.26,0,0,0,.25-1.77,1.33,1.33,0,0,0-.27-.26c-1.07-.77-3.72-.31-7.14.65-2-.63-4.29-1.43-6.42-2.22s-4.29-1.51-6.18-2.11c1.47-.41,3.08-.89,4.76-1.39,2.52-.75,5.17-1.55,7.53-2.13,3.89,1.36,6.35,2,7.38,1.32a1.18,1.18,0,0,0,.47-1,1.42,1.42,0,0,0-.57-1.14c-1.1-.81-3.83-.47-7.19.34-1.37-.49-2.83-1-4.27-1.58-2.4-.9-4.94-1.86-7.32-2.61,3.51-.91,7.4-2,10.53-3a16.89,16.89,0,0,0,8,.48,1.37,1.37,0,0,0,1-.92,1.48,1.48,0,0,0-.38-1.48,2.76,2.76,0,0,0-2.79-.51h0c-.07,0-2.48.81-5.81,1.82a63,63,0,0,1-8.53-3.2l-1.85-.78a51.21,51.21,0,0,0,10.29-3.44l1.35-.57c2.69.92,4.85,1.41,5.68.8a1,1,0,0,0,.38-.92h0a2,2,0,0,0-.94-1.4c-1-.55-2.79,0-5.13,1-1.53-.52-3.18-1.11-4.71-1.74-1.83-.66-3.38-1.32-4.72-1.78,1.28-.32,2.75-.74,4.41-1.2,1.15-.34,2.38-.69,3.44-1a19.73,19.73,0,0,0,3.45,1,1.57,1.57,0,0,0,1.56-.59,1,1,0,0,0,.07-1c-.16-.26-.58-.69-1.71-.64a18.57,18.57,0,0,0-3.3.67c-.69-.25-1.43-.52-2.18-.81-1.83-.68-3.46-1.27-4.8-1.7l1.51-.43c1.15-.34,2.43-.71,3.57-1,1.62.52,2.68.74,3.14.38a.63.63,0,0,0,.24-.56.66.66,0,0,0-.28-.5c-.47-.34-1.51-.23-3.08.13l-1.42-.47c-.87-.3-1.65-.55-2.3-.74a12.51,12.51,0,0,0,1.57-2.54m4.89,4.22c-.21.17-.9,0-1.71-.18a6.22,6.22,0,0,1,1.14-.13,1,1,0,0,1,.59.12.15.15,0,0,1,.06.09v.1m2.54,5a16.1,16.1,0,0,1-2.63-.67,14.43,14.43,0,0,1,2.43-.45h.13c.54,0,.94.12,1.08.36a.43.43,0,0,1,0,.45,1.09,1.09,0,0,1-1,.36m3.51,6.16c-.59.43-2.41,0-4.6-.68,1.88-.75,3.34-1.19,4.12-.78a1.39,1.39,0,0,1,.65,1,.45.45,0,0,1-.17.44m1.25,8.14a15.28,15.28,0,0,1-6.89-.26c2.8-.86,4.78-1.51,5-1.57a5.28,5.28,0,0,1,.89-.11,1.85,1.85,0,0,1,1.38.47,1,1,0,0,1,.24.93.78.78,0,0,1-.61.54m.2,8.6c-.77.54-3.14-.05-6-1.07a21.35,21.35,0,0,1,4.13-.62,3.15,3.15,0,0,1,1.8.38.86.86,0,0,1,.35.74.61.61,0,0,1-.24.54m.1,8c-.82.56-3.08.15-5.87-.66a19.87,19.87,0,0,1,4.46-.79,2.59,2.59,0,0,1,1.42.28.69.69,0,0,1,.28.56.72.72,0,0,1-.29.61m-.2,9.85c-.93.6-3.44-.26-5.6-1.21a19.88,19.88,0,0,1,4.19-.73,2.54,2.54,0,0,1,1.46.3.82.82,0,0,1,.33.69,1,1,0,0,1-.39.93m-21.61-.15c1-.5,3.33.1,6,1.25-2.85.74-5.32,1.21-6.23.5a.89.89,0,0,1-.35-.76,1,1,0,0,1,.55-1m-3.53-7.36c.93-.64,3.23,0,5.75.81-2.48.77-5,1.36-5.88.77a.62.62,0,0,1-.29-.55,1.06,1.06,0,0,1,.41-1m-.72-8c.65-.47,2.4-.2,4.6.4-2.29.58-4.17.85-4.74.44a.33.33,0,0,1-.15-.3.6.6,0,0,1,.25-.54m.37-8.74a19.26,19.26,0,0,1,5,.85,46.09,46.09,0,0,1-4.79.95,1.36,1.36,0,0,1-.69-.08.71.71,0,0,1-.49-.84,1.13,1.13,0,0,1,1-.88h0m1.41-7.92a15.75,15.75,0,0,1,3.74,1.1,21.47,21.47,0,0,1-3.76.15.86.86,0,0,1-.78-.38.53.53,0,0,1,.05-.53.75.75,0,0,1,.75-.28m3.2-7.1c.38-.27,1.39-.13,2.72.24a5.09,5.09,0,0,1-2.79.09.11.11,0,0,1-.06-.1.29.29,0,0,1,.13-.3m1.32-5.09a3.56,3.56,0,0,1,2.3.1,4.74,4.74,0,0,1-2.39.23h0a.33.33,0,0,1,.14-.3m3.41-2.81a1.78,1.78,0,0,1,1.14,0h0a1.3,1.3,0,0,1-1.14.29.17.17,0,0,1-.09-.18v-.13"/><path d="M60,314.66h0a3.25,3.25,0,0,0-1.16-1.08,3.37,3.37,0,0,0-1.52-.43h0a3.36,3.36,0,0,0-1.5.48,3.3,3.3,0,0,0-1.13,1.1h0a3.39,3.39,0,0,0-.35,1.56,3.52,3.52,0,0,0,.33,1.49h0a3.4,3.4,0,0,0,1.16,1.07,3.22,3.22,0,0,0,1.52.43h0a3.31,3.31,0,0,0,1.54-.41,3.43,3.43,0,0,0,1.14-1.1h0a3.43,3.43,0,0,0-.05-3.08Zm-1.24-1a3.13,3.13,0,0,1,1,.91,3.57,3.57,0,0,1-1.32-.41,3.22,3.22,0,0,1-1-.91A3.19,3.19,0,0,1,58.75,313.71ZM58,316.19a3.18,3.18,0,0,0,.83-.35,3.76,3.76,0,0,0,.82-.67,3.08,3.08,0,0,0-.15,1,3.39,3.39,0,0,0,.17,1.05,3.55,3.55,0,0,0-.83-.66,3.48,3.48,0,0,0-.83-.32Zm.76-.47a3.8,3.8,0,0,1-.78.33.73.73,0,0,0-.19-.3,3.81,3.81,0,0,1,.67-.53,3.22,3.22,0,0,1,1.31-.43A3.72,3.72,0,0,1,58.78,315.72Zm-1.23-2.07a2.89,2.89,0,0,0,.84.68,3,3,0,0,0,1,.37,3.92,3.92,0,0,0-1,.39,3.49,3.49,0,0,0-.7.57h-.08a3,3,0,0,0,.11-.89A3.55,3.55,0,0,0,57.55,313.65Zm.1,3.23h.08a3.06,3.06,0,0,0,.71.53,3.26,3.26,0,0,0,1,.37,3.55,3.55,0,0,0-1,.4,2.81,2.81,0,0,0-.82.68,3.82,3.82,0,0,0,.15-1.06A3.2,3.2,0,0,0,57.65,316.88Zm-.34-3.5a3.28,3.28,0,0,1,.31,1.34,3,3,0,0,1-.11.85h-.34a3.07,3.07,0,0,1-.13-.85A3.32,3.32,0,0,1,57.31,313.38Zm-.66,2.91a3.35,3.35,0,0,0-.8.35,3,3,0,0,0-.83.7,3.89,3.89,0,0,0,.15-1.07,3.13,3.13,0,0,0-.18-1,3.82,3.82,0,0,0,.84.66,3.41,3.41,0,0,0,.82.32Zm-.73.47a3.53,3.53,0,0,1,.75-.32.71.71,0,0,0,.19.31,2.93,2.93,0,0,1-.65.51,3.17,3.17,0,0,1-1.3.43,3.58,3.58,0,0,1,1-.93Zm.36.63a3.64,3.64,0,0,0,.7-.54h.08a3.15,3.15,0,0,0-.11.87,3.79,3.79,0,0,0,.18,1,3.82,3.82,0,0,0-.84-.66,3.9,3.9,0,0,0-1-.38,3.1,3.1,0,0,0,.92-.34Zm.75-1.77h0a4,4,0,0,0-.84-.5,4,4,0,0,0-1-.37A3.91,3.91,0,0,0,57,313.66a3.3,3.3,0,0,0,0,1.92Zm-1.17-1.88a3.19,3.19,0,0,1,1.3-.44,3.32,3.32,0,0,1-2.3,1.37,3.23,3.23,0,0,1,1-.93Zm.33,1.5a4.83,4.83,0,0,1,.68.51.81.81,0,0,0-.18.31,3.26,3.26,0,0,1-.78-.31,3.4,3.4,0,0,1-1-.9A3.32,3.32,0,0,1,56.19,315.24Zm-1.72,1a3.11,3.11,0,0,1,.27-1.35,3.29,3.29,0,0,1,0,2.68,3.25,3.25,0,0,1-.35-1.33Zm1.48,2.5a3.29,3.29,0,0,1-1-.9,3,3,0,0,1,1.32.41,3.29,3.29,0,0,1,1,.9,3.12,3.12,0,0,1-1.36-.41Zm1.46.32a3.18,3.18,0,0,1-.35-1.35,2.83,2.83,0,0,1,.09-.82h.37a3.49,3.49,0,0,1-.14,2.17Zm1.45-.35a3.52,3.52,0,0,1-1.3.44,3.1,3.1,0,0,1,1-.93,3,3,0,0,1,1.3-.44,3.39,3.39,0,0,1-1.06.93Zm-.35-1.51a4.09,4.09,0,0,1-.66-.5.63.63,0,0,0,.15-.32,3.61,3.61,0,0,1,.79.31,3.56,3.56,0,0,1,1,.9A3.16,3.16,0,0,1,58.51,317.24Zm1.45.31a3.25,3.25,0,0,1,0-2.68A3.29,3.29,0,0,1,60,317.55Z"/><path d="M82.15,403.72a.51.51,0,0,0,.42.39.41.41,0,0,0,.19,0,.5.5,0,0,0,.38-.6A23,23,0,0,0,72.76,389a.51.51,0,0,0-.7.17.5.5,0,0,0,.17.69A22,22,0,0,1,82.15,403.72Z"/><path d="M57.07,0l-.53,0a13.28,13.28,0,0,0-13.2,13.32,13.14,13.14,0,0,0,1.48,6L24.44,31.22A13.25,13.25,0,1,0,12.81,51.55l.11,23.79A13.25,13.25,0,1,0,24.76,95.55l20.6,11.76a13.24,13.24,0,0,0,11.35,19.35l-.11,4.47m1,0,.13-4.53a13.44,13.44,0,0,0,12.67-13.26,13.11,13.11,0,0,0-1.57-6.17l20.49-12a13.25,13.25,0,1,0,11.6-20.34l-.12-23.69A13.25,13.25,0,1,0,89,30.93L68.44,19.2a13.21,13.21,0,0,0,1.42-6C69.83,6.17,63.94.43,57,0M56.6,131.13c0,1.34-.05,3.17-.08,6.14l-5.41,7.24a.5.5,0,0,0,0,.57l5.38,7.71-.11,18.81a.49.49,0,0,0,1,0l.11-18.91,5.41-7.55a.48.48,0,0,0,0-.57l-5.37-7.37c0-2.93.06-4.74.08-6.07m4.29,13.72-4.92,6.89-4.85-6.93,4.91-6.6ZM100.15,25.67a12.28,12.28,0,0,1,.62,24.55l-.06-12.33a.5.5,0,0,0-.25-.42L89.84,31.41A12.27,12.27,0,0,1,100.15,25.67ZM74.54,88.09A13.06,13.06,0,0,1,72.35,87l1.94-3.39,12.84,2.28a12.63,12.63,0,0,1-3.61,2.14Zm8,.29a12.46,12.46,0,0,1-7.09,0Zm-12.7.06h1.29L69.76,90.9A13.84,13.84,0,0,0,69.91,89C69.91,88.78,69.89,88.61,69.88,88.44Zm0-.32a12.91,12.91,0,0,0-.7-3.42,12.49,12.49,0,0,0,2.75,2.43l-.56,1Zm-4.28,10.1a12.88,12.88,0,0,1-3.88,2.49L66,88.46l3.61,0c0,.18,0,.35,0,.52a12.64,12.64,0,0,1-.31,2.77ZM68.93,93a12.5,12.5,0,0,1-2.44,4.27Zm-18.16,9.92,5.58,9.54L46.69,107A12.37,12.37,0,0,1,50.77,102.92Zm-.21-1L49,99.15a12.85,12.85,0,0,0,3.36,1.92A14.06,14.06,0,0,0,50.56,101.91Zm.49.84a12.36,12.36,0,0,1,1.81-.84l3.52,10Zm-2.61-4.47-3.74-6.4a12.26,12.26,0,0,1-.33-2.8c0-.17,0-.34,0-.51l3.76,0,4.32,12.24A12.84,12.84,0,0,1,48.44,98.28Zm-.93-1a12.63,12.63,0,0,1-2.43-4.17ZM44.22,91l-1.44-2.47h1.29c0,.17,0,.34,0,.52A14,14,0,0,0,44.22,91Zm-.14-2.8H42.59l-.51-.87a13.49,13.49,0,0,0,2.51-2.07A12.93,12.93,0,0,0,44.08,88.24ZM31,88.31a12.68,12.68,0,0,1-3.82-2.18l12.48-2.32,2,3.46a13,13,0,0,1-2.1,1Zm7.56.28a12.17,12.17,0,0,1-3.26.46A12.58,12.58,0,0,1,32,88.63ZM43.8,38H42.53L44,35.43a12.56,12.56,0,0,0-.21,2.31C43.79,37.83,43.8,37.91,43.8,38Zm0,.32A13,13,0,0,0,45,43a12.77,12.77,0,0,0-3.5-3.13l.89-1.56Zm4-9.52A12.74,12.74,0,0,1,52.06,26L48,38l-3.89,0c0-.09,0-.17,0-.26a13.09,13.09,0,0,1,.43-3.27ZM45,32.94a13.11,13.11,0,0,1,1.61-2.82ZM65.6,28.73l3.27,5.59a12.35,12.35,0,0,1,.46,3.3c0,.08,0,.17,0,.25l-3.75,0L61.35,26A12.61,12.61,0,0,1,65.6,28.73Zm-4.23-3.11a14.17,14.17,0,0,0,1.88-.91l1.81,3.1A12.74,12.74,0,0,0,61.37,25.62Zm5.39,4.46a12.57,12.57,0,0,1,1.58,2.7Zm2.66,5.2,1.51,2.59H69.65c0-.08,0-.17,0-.26A12.87,12.87,0,0,0,69.42,35.28Zm.21,2.92h1.49l.94,1.6a12.93,12.93,0,0,0-3.63,3.36A12.87,12.87,0,0,0,69.63,38.2ZM91.54,48.33l.18-.2a13.69,13.69,0,0,0,1.77,1.24l-1.85,3.24a13.17,13.17,0,0,0,.15-1.9A13.34,13.34,0,0,0,91.54,48.33Zm.81-.95,7-8.18L94,48.52A11.6,11.6,0,0,1,92.35,47.38Zm-.24-.21a11.75,11.75,0,0,1-1.31-1.33,12.49,12.49,0,0,0-.87-1.71l9.43-5.5Zm-.63.74,0,0s0,0,0,0ZM87.42,60a12.79,12.79,0,0,1-2.22,1.65l-2-3.46,8.1-9.53a12.6,12.6,0,0,1,.19,2.05,12.25,12.25,0,0,1-.29,2.72Zm3.41-5.33a12.58,12.58,0,0,1-2.51,4.4Zm1,23.37L91.79,78a13.79,13.79,0,0,0,.12-1.72,13.33,13.33,0,0,0-.43-3.18l2.16,3.7A13.4,13.4,0,0,0,91.86,78Zm2.27-.44,5.35,9.17-7-8A13.44,13.44,0,0,1,94.13,77.6Zm-2.55-1.36a10.76,10.76,0,0,1-.07,1.4L83.16,68.1l1.69-2.95a12.89,12.89,0,0,1,3.84,3.12l2,3.49A12.36,12.36,0,0,1,91.58,76.24ZM89.9,81.88a11.65,11.65,0,0,1,1-1.41A12.14,12.14,0,0,1,90.19,82Zm.14.45a12.48,12.48,0,0,1-1.18,1.78,13.26,13.26,0,0,1,.87-2Zm-1-.94-9.91-5.66v-.59L83,68.39l8.46,9.67c0,.14,0,.28-.07.42A13.43,13.43,0,0,0,89.05,81.39ZM79.33,63.71A12.69,12.69,0,0,1,84.55,65l-1.61,2.83Zm3.44,4.43-3.63,6.35-.06-10.57ZM80.9,63.53a12.71,12.71,0,0,0,4.18-1.43l.58,1-1,1.65A12.65,12.65,0,0,0,80.9,63.53Zm-1.82-.16V63L83,58.45l2,3.37A12.52,12.52,0,0,1,79.08,63.37Zm0-.86L79,51.72l3.76,6.43ZM79,51.07v-.3a0,0,0,0,0,0,0s0,0,0,0v0s0,0,0,0l0,0h0l-.07,0,10-5.83A13.6,13.6,0,0,0,91,47.49c.07.24.14.49.19.74L83,57.89Zm6,13.8.83-1.46L88,67A12.87,12.87,0,0,0,85,64.87Zm.35-2.94a14,14,0,0,0,1.57-1.07l-1.09,1.9Zm4.4-18.07a13.33,13.33,0,0,0-.93-1.3,12,12,0,0,1-.64-2.06l11.16-2.24Zm-1.62-3.68a13,13,0,0,1-.21-2.07l10.78-.06Zm.54,4.31L78.61,50.37l-4.15-7.11,12.11-2.44c.31.25.62.51.91.78A13.56,13.56,0,0,0,88.68,44.49ZM75.81,66.86l2.66-3.14.29,0,0,11.35-.06.12Zm2.89,9.29h-.14l.07-.12ZM44.24,66.5,42.6,63.68l1.68-3a12.82,12.82,0,0,0-.36,3.06A12.55,12.55,0,0,0,44.24,66.5Zm.31,11.84,1.4,4-.13,0-9.71-5.48Zm-7.48-1.66,6.88,0L44.43,78Zm9,6.13,0,0c-.11.18-.22.38-.34.56C45.81,83.19,45.91,83,46,82.81Zm-.7-.39-5.54,1-3.62-6.2Zm.4.25a13.36,13.36,0,0,0-.85,1.84,12.65,12.65,0,0,1-3,2.59L40,83.75Zm-.57,2a12.94,12.94,0,0,0,1.09-1.54L48,88.22l-3.63,0A12.4,12.4,0,0,1,45.15,84.68Zm1.24-2.46h0l.09-.14S46.42,82.17,46.39,82.22Zm-.23-.28-1.24-3.53,2.65.47a13,13,0,0,1-.55,1.9A13.91,13.91,0,0,0,46.16,81.94Zm1.14-1a13.41,13.41,0,0,1,1.4-1.42l1.69,1.94-3.6.67A11.51,11.51,0,0,0,47.3,81Zm1-2,.24.28a12.6,12.6,0,0,0-.91.88c.12-.4.22-.81.3-1.22ZM48,78.21a13.65,13.65,0,0,0,.13-1.58h1.61l.72,1.25a13.12,13.12,0,0,0-1.39.95l-.64-.12Zm-.28-.32-1.08-1.25h1.16A10.52,10.52,0,0,1,47.71,77.89Zm-.06.42a2.17,2.17,0,0,1,0,.25l-2.82-.5-.49-1.41h1.9Zm-3.47-2L43,72.92l2.94,3.4Zm-.34,0-8.19,0-.09-.15.3-.53L42.19,72l.21.25ZM50.43,45.2l-4-.77L56,38.73Zm5.47-5.88-3.51,6.25-1.6-.3Zm-7.29,8a12.67,12.67,0,0,1-2.32-2.58l3.89.75Zm0,.45L49,48l-.71.15ZM36,50.66l9.75-5.81L44.31,49Zm8.24-1.33-.49,1.45-6.89,0Zm-4.87,9.33,1.09,1.89-.65,1.94-.4.16-1-2.86Zm-1.1.78-2.4-6.8,3.32,5.72Zm1.51,5.25.75,2.11-.93,1.66-1-1.22.9-2.67Zm-.23-.43,0-.11.05.15Zm0-1.11-.07-.2a.76.76,0,0,0,.16-.06Zm-.16.5-.17.5a13.39,13.39,0,0,0-2.21-.5,13.08,13.08,0,0,0,2.17-.58Zm-.28.81L38.25,67l-2.68-3.11A12.79,12.79,0,0,1,39.09,64.46Zm-.71,3.14,1,1.16L35.9,75ZM39.61,69,42,71.75l-5.8,3.38Zm.16-.3.85-1.51,1.48,4.2Zm.36-3.87a10.73,10.73,0,0,1,1.13.55l-.57,1ZM40,64.44l-.28-.79.31-.93a11.74,11.74,0,0,0,1.27-.66l.94,1.62-.81,1.44A12.47,12.47,0,0,0,40,64.44Zm.18-2.15.46-1.37.5.86C40.82,62,40.5,62.13,40.17,62.29Zm.38-2.15-1-1.74,2.63-3.07Zm-1.18-2-4-7h.11l6.63,3.79Zm6.57-12.94a12.53,12.53,0,0,1,1.16,3.26l-2.42.48Zm.35-1,2-5.82,7.87,0Zm-.36.05a12.57,12.57,0,0,1-1.78-5.85l3.76,0Zm-.44.42L35.3,50.67l4.12-7.23Zm-5.9-1.45,1.7-3a12.68,12.68,0,0,1,4.13,4.08ZM38,59.72l-2.69,3.14-.06-10.92Zm.12.35.95,2.69a12.63,12.63,0,0,1-3.76.75v-.15Zm0,7.25-2.78,8.25L35.29,64Zm2.7-.49.71-1.26a12.54,12.54,0,0,1,3.24,2.7,12.72,12.72,0,0,0,.65,1.46l-3,1.73Zm.87-1.55L42.42,64l1.9,3.28A13.13,13.13,0,0,0,41.7,65.28Zm.71-1.93-.84-1.46a13.25,13.25,0,0,0,3.21-2.81.85.85,0,0,0-.06.17Zm-1-1.74-.63-1.09,1.79-5.31L45.76,57A12.65,12.65,0,0,1,41.4,61.61Zm1.05-7.1-.15.17-6.2-3.54,7.49,0Zm1.49-3.4h1.43L43,53.85Zm.11-.33.51-1.52,2.59-.52a2,2,0,0,0,0,.24l-1.54,1.79Zm3.2-1.38a12.26,12.26,0,0,1,.1,1.36H46.08Zm-.74-3.81a13,13,0,0,0,1.89,2l-.61.72-.37.07A13,13,0,0,0,46.51,45.59Zm1.45,3,1.4-.28c.36.24.73.48,1.11.69l-1,1.76H47.67a13.28,13.28,0,0,0-.14-1.68Zm1.84-.37L51.05,48l-.42.75ZM49.44,48l-.58-.43,1.69-2,1.67.31-1,1.71Zm3.11-2,3.55.67-4.42.89Zm.17-.3,4-7.18.27.46v7.51h-.07Zm4.09-7.7s-.07,0-.1,0l-8.35,0,4.09-12.14a13.1,13.1,0,0,0,4.22.68l.37,0,0,11.43Zm8.88,10.17-.55-.63a13.41,13.41,0,0,0,2-2.18,12.52,12.52,0,0,0-1,2.9Zm.43.41a.17.17,0,0,1,0,.07L66,48.5Zm6.43,13.53a11.56,11.56,0,0,0,1.46.71l.26.73-.31.89a14.11,14.11,0,0,0-1.35.67l-.9-1.55Zm-1,1.13-2.06-3.54a13,13,0,0,0,2.81,2.25Zm2.93.8.06.2-.15.06Zm0-1.07.06,0,0,.07Zm.21,1.57.82,2.31-1.08,1.27-.83-1.44.69-2Zm0-1,.15-.45a13.18,13.18,0,0,0,2.15.51,12.37,12.37,0,0,0-2.1.51Zm0-.87-.31-.11-.76-2.14,1-1.7,1,1.19ZM73.37,60l-1.53-4.34,2.43,2.78Zm.5,2.38a11.41,11.41,0,0,1-1.16-.58l.59-1Zm-.05,2.46-.51,1.44-.53-.92A11.2,11.2,0,0,1,73.82,64.81ZM73.39,67l.75,1.29-2,2.39Zm.92,1.59,3.8,6.52-6.29-3.59Zm.23-.27,1-1.21,2.68,7.57Zm.39-4a12.64,12.64,0,0,1,3.1-.63L75.68,66.5Zm-.05-1.64.9-2.59,2.69,3.08-.12.14A12.52,12.52,0,0,1,74.88,62.73Zm.78-3.22-1-1.14,3.5-6.07Zm-1.22-1.4-2.86-3.27,6.69-3.9h.3Zm-5-9.29L68,44.71l10,5.73Zm7.72,1.8-7.07,0-.53-1.48ZM68.26,44.5l5.86-1.18,4,6.84Zm-.15-.3a12.67,12.67,0,0,1,4.11-4.13L74,43Zm-.42-.32-2-5.66,3.63,0A12.57,12.57,0,0,1,67.69,43.88Zm0,1,1.36,3.85-2.56-.49A12.46,12.46,0,0,1,67.7,44.9ZM65.17,48l-.55-.11.28-.21Zm-1.78-2.53,3.79-.76a13.12,13.12,0,0,1-2.25,2.51Zm2.94,3.85,1.17,1.33H66.25A11.9,11.9,0,0,1,66.33,49.33Zm.06-.42c0-.11,0-.22,0-.33l2.74.52.55,1.55h-1.8ZM69.85,51,71,54.14,68.21,51Zm.34,0,7.43,0-6.17,3.6Zm3,9.36-.73,1.27a12.91,12.91,0,0,1-4-3.79l-.2-.35,0,0L67.91,57l3.37-2Zm-1.82,3.17-2,3.45a13.2,13.2,0,0,0,.44-3.35,13,13,0,0,0-.59-3.77Zm.19.32.81,1.39a12.9,12.9,0,0,0-3.12,2.62Zm1,1.67.67,1.16-1.64,4.72-3.18-1.81.09-.18A12.68,12.68,0,0,1,72.5,65.5Zm-1.18,6.14-3.88,4.57H66.37a12.74,12.74,0,0,1,1.3-5.48c.19-.28.37-.58.54-.88Zm-9.87,9.71,1.41.25L58,87.28ZM61.28,81,58,80.39l4.11-.76Zm.34.06.86-1.5,2.29-.43.12.09-1.79,2.1Zm5.18-.43a13.23,13.23,0,0,0-1.46-1.44L65.5,79l.8-.15A12,12,0,0,0,66.8,80.62Zm-.43-4.08h.79l-.74.86C66.4,77.12,66.38,76.83,66.37,76.54Zm-.53,2,.35-.41c0,.11,0,.23,0,.34Zm-.51.1-.48.09a14,14,0,0,0-1.39-.93l.75-1.3h1.84c0,.41,0,.82.07,1.21Zm-2.15-1a13,13,0,0,0-2.75-1.11l3.4,0Zm.12.45a13.26,13.26,0,0,1,1.11.73l-1.72.32Zm1.83,1.29a12.9,12.9,0,0,1,2.12,2.31c0,.12.11.23.17.35l-4-.7Zm1.48-.64,2.52-.47L67.84,82c-.1-.16-.21-.32-.32-.47A13.12,13.12,0,0,1,66.61,78.78Zm0-.32c0-.2-.07-.4-.09-.61l1.12-1.32h2.16L69.25,78Zm3.53-1.94,7.06,0-7.53,1.4Zm-.23-.32h-2l3.38-4Zm-3.81,0H64.39l2.35-4.07A12.73,12.73,0,0,0,66.05,76.22Zm-2,0-4.18,0A12.93,12.93,0,0,0,66,72.84ZM63,78l-.75,1.3-5,.93v-3.6h1.61A12.32,12.32,0,0,1,63,78ZM57,25.52l-.38,0a11.91,11.91,0,0,1-2.4-.22,11.92,11.92,0,0,1,2.4-.25l.38,0Zm.26,55.09,3.81.68-3.82,6.63Zm5.93,1,4.36.78.06.11-9.92,5.63h0ZM67.5,83l-1.78,5.13-7.32,0Zm.37-.1c.18.29.36.58.56.86a12.62,12.62,0,0,1,1.11,4.35l-3.48,0Zm.33-.3.09,0,5.66,1-1.88,3.28A13,13,0,0,1,68.7,83.6C68.55,83.26,68.38,82.93,68.2,82.61Zm.53-.3,8.78-5-3.39,5.94Zm-.5-.09-.11,0,1.37-4,8.39-1.56,0,.1Zm2-6,1.5-4.34,6.73,3.84h0l-.26.45ZM78.68,63,75.9,59.79l2.8-8.06,0,11.16ZM87,40.74l.24-.05c0,.11.06.22.08.34Zm-.35-.26a12.83,12.83,0,0,0-5.06-2.34l5.37,0a13,13,0,0,0,.23,2.26Zm-.43.08L74.28,43,72.5,39.9a12.49,12.49,0,0,1,13.72.66Zm-13.89-.94-.83-1.43,4.49,0A12.67,12.67,0,0,0,72.33,39.62Zm-5,4.37-10-5.73,7.94,0Zm0,.36-4.2.85-5.73-6.56Zm-4.57.92-1.51.3-3.54-6.08ZM62,47.4l-4.17-.8,3.32-.66Zm-.52-1.53L63,45.55l1.65,1.9-.49.37-1.81-.34Zm2.4,2.21c-.27.18-.54.35-.82.51l-.42-.74Zm.43.09,1.25.23.53.61a15.26,15.26,0,0,0-.13,1.66H64.24l-1-1.81C63.56,48.65,63.92,48.42,64.27,48.17Zm2,6.73A12.86,12.86,0,0,0,59.54,51l4.52,0ZM64.43,51h1.5a13.13,13.13,0,0,0,.54,3.51Zm1.82,0h1.53l3.3,3.77L67.75,56.7l-.12-.21A12.56,12.56,0,0,1,66.25,51ZM68,57.72a12.57,12.57,0,0,1,.61,10.6l-.6,1L57.32,63.26v-.09l10.29-6C67.72,57.35,67.84,57.53,68,57.72Zm-.15,11.91-1,1.8a12.61,12.61,0,0,1-8.35,4.75c-.37,0-.75-.06-1.13-.07l0-12.47ZM57,24.76l-.38,0a13.08,13.08,0,0,0-3.09.41c-.28-.07-.54-.14-.81-.23l3.82-11.35h.05l.42,1.2Zm-4.58,0a12.15,12.15,0,0,1-1.9-.87l5.35-9.38Zm-2.18-1a12.3,12.3,0,0,1-4.14-4.1L55.86,14ZM52,25.66a13,13,0,0,0-3.65,2.21l1.76-3.09A12.45,12.45,0,0,0,52,25.66ZM41.17,39.72a12.89,12.89,0,0,0-3.44-1.37l4.23,0ZM41,40l-1.75,3.08-12-2.29a12.6,12.6,0,0,1,6.37-2.42h2.1A12.52,12.52,0,0,1,41,40Zm-14.17.71-.53-.1a13.33,13.33,0,0,0,.2-2.2l5.12,0A13,13,0,0,0,26.84,40.71Zm-.35.27-.31.28c0-.11.06-.22.08-.33Zm.43.08,12.17,2.31L35,50.52l-10.15-5.8A13.06,13.06,0,0,0,26,41.83,10.92,10.92,0,0,1,26.92,41.06Zm-4,38.16a11.43,11.43,0,0,1-.2-1.17l8.06-9.41,4.2,7.2-10.1,5.9A13.4,13.4,0,0,0,22.9,79.22Zm1.57,3.83-.32-.52,0,0C24.29,82.68,24.38,82.86,24.47,83.05ZM24,82.23h0L24,82.12Zm-1.76-5.72A13.57,13.57,0,0,0,22.35,78l-.37.43a13.31,13.31,0,0,0-1.79-1.25L23,72.28A12.9,12.9,0,0,0,22.26,76.51Zm.23,2.33-.26-.24.19-.23C22.44,78.53,22.46,78.69,22.49,78.84Zm-1.14.28-6.87,8L19.71,78A11.7,11.7,0,0,1,21.35,79.12Zm7.58-13.61,1.66,2.83-7.94,9.27c0-.36-.06-.73-.07-1.1A12.64,12.64,0,0,1,28.93,65.51Zm-6.45-11.7A12.51,12.51,0,0,1,22.13,51a12.9,12.9,0,0,1,.16-2l8.18,9.46-1.95,3.41a12.63,12.63,0,0,1-2.33-1.72Zm2.77,5.39a12.62,12.62,0,0,1-2.39-4.09Zm9.17,4.67-3.61,4.21-1.6-2.73A12.61,12.61,0,0,1,34.42,63.87Zm-5.37,1.2-1-1.71.59-1A13.13,13.13,0,0,0,33,63.72,12.71,12.71,0,0,0,29.05,65.07Zm-.25-3,1.9-3.32,4.08,4.72-.07.08A12.57,12.57,0,0,1,28.8,62.05Zm1.84-3.88-8.28-9.58c.05-.28.12-.56.19-.84A13,13,0,0,0,24.69,45l10.16,5.8Zm-2.28,4-.5.88L26.7,61A13.4,13.4,0,0,0,28.36,62.16Zm.41,3.07a13,13,0,0,0-3.39,2.82l2.49-4.37ZM31,68.38l3.87-4.52H35L35,75.3Zm-.12-9.95,4-7.08L35,63.16Zm-5.52-18L15,38.46l10.52-.05A12.24,12.24,0,0,1,25.35,40.43Zm-.05.32a12,12,0,0,1-.62,2.06,13,13,0,0,0-.91,1.29l-9.56-5.46Zm-1.69,3.63a12.12,12.12,0,0,0-.86,1.73,12.57,12.57,0,0,1-1.35,1.38l-7.47-8.64Zm-1.49,3.77a.79.79,0,0,0,0,.13L22,48.22ZM22,53l-1.93-3.3a12.42,12.42,0,0,0,1.74-1.23l.21.25a12.46,12.46,0,0,0-.2,2.3A11.85,11.85,0,0,0,22,53Zm-2.42-4.14-5.31-9.1,6.9,8A11.09,11.09,0,0,1,19.57,48.83ZM19.3,49a12.07,12.07,0,0,1-5.52,1.57l-.06-11.11Zm.49.84,2.38,4.1a13.08,13.08,0,0,0,3.76,6.43l1.75,3L19.91,77a13,13,0,0,0-6-1.64l-.12-23.78A13.18,13.18,0,0,0,19.79,49.84Zm-.36,28L14,87.4,13.9,76.3A12.3,12.3,0,0,1,19.43,77.81Zm2.16,1.53A12.76,12.76,0,0,1,23,80.83a14.58,14.58,0,0,0,.68,1.57L14.21,88Zm2.28,3.35a13,13,0,0,0,1.22,1.81,12.21,12.21,0,0,1,.45,1.6l-11,2.06Zm1.73,3.73a13.29,13.29,0,0,1,.19,1.91l-10.73,0ZM25,82l10-5.83v.35s0,0,0,0,0,0,0,0a.15.15,0,0,0,.11.11l.44.25,3.84,6.58-12.6,2.35c-.15-.13-.31-.26-.45-.4A13.78,13.78,0,0,0,25,82Zm1.71,4.2a12.93,12.93,0,0,0,3.33,2.1l-3.31,0a13.1,13.1,0,0,0-.21-2.09ZM41.8,87.55l.41.7H40.44A13.49,13.49,0,0,0,41.8,87.55Zm4.78-4.42,9,5.06-7.17,0Zm-.08-.42.11-.2,4-.75,5.55,6.41Zm4.5-1,1.5-.28L56,87.51Zm.85-2,4.28.76-3.46.65Zm.48,1.47-1.57.29-1.82-2.09.2-.15,2.3.41ZM49.5,78.89c.36-.26.73-.51,1.12-.74l.6,1Zm.6-2.27,3.3,0a13,13,0,0,0-2.67,1.1Zm-.19-.32-1.8-3.12A12.93,12.93,0,0,0,54,76.28Zm-.37,0H48.12a12.88,12.88,0,0,0-.46-3.25Zm-1.74,0H46.35l-3.67-4.23-.1-.31,3-1.76A12.76,12.76,0,0,0,47,72,12.61,12.61,0,0,1,47.8,76.31ZM45.45,68.6l-.58-1A12.45,12.45,0,0,1,45,59.38l1.18-2.1,10.39,5.94L46,69.39C45.84,69.12,45.65,68.86,45.45,68.6Zm.47-11.85-3.26-1.86.08-.22L45.8,51.1h1.54A12.42,12.42,0,0,1,45.92,56.75Zm1.75-5.66H49.3l-2.46,4.37A12.65,12.65,0,0,0,47.67,51.09Zm2,0,4.37,0a12.9,12.9,0,0,0-6.29,3.44Zm.18-.33.91-1.61a12.74,12.74,0,0,0,6,1.47H57v.12Zm6.94-.46a12.53,12.53,0,0,1-5.88-1.43l.56-1,5.47-1.1.07,0v3.49Zm.48,50.85a12.71,12.71,0,0,1,2.25.23,12.7,12.7,0,0,1-2.25.25Zm0-1V88.8l.53-.3,7.78,0-4.3,12.39A13.39,13.39,0,0,0,57.28,100.17ZM63,102.66l-5.15,9,3.4-9.79A13.71,13.71,0,0,1,63,102.66Zm.27.17a12.43,12.43,0,0,1,4.16,4l-9.66,5.64ZM61.78,101a12.82,12.82,0,0,0,3.3-1.93l-1.56,2.73A13.69,13.69,0,0,0,61.78,101ZM72.19,87.3a13.44,13.44,0,0,0,1.5.8h-2Zm15.18-1.17a11.88,11.88,0,0,0-.16,1.9l-2.84,0A13.22,13.22,0,0,0,87.37,86.13Zm-12.91-2.8L78.07,77l1-.55h0l0,0s0,0,0,0,0,0,0,0,0,0,0,0v-.2l9.75,5.56a13.09,13.09,0,0,0-1.45,4h0Zm13.89,2.8L98.76,88,88.18,88A13.16,13.16,0,0,1,88.35,86.13Zm.05-.33c.06-.31.14-.61.22-.91a12.7,12.7,0,0,0,1.7-2.4l9.29,5.31Zm2.07-3.6a13,13,0,0,0,.94-2.36c.27-.29.55-.58.85-.85l7.38,8.45Zm3.94-4.77a12.11,12.11,0,0,1,5.51-1.57L100,87Zm-.49-.84-2.9-5A13,13,0,0,0,89,68.1l-2.93-5,1.64-2.88a12.92,12.92,0,0,0,3.81-6.65l2.29-4a13.14,13.14,0,0,0,6,1.67l.12,23.68A13.23,13.23,0,0,0,93.92,76.59Zm.33-27.9,5.49-9.6.06,11.13A12.28,12.28,0,0,1,94.25,48.69ZM89.34,32.25,99,37.73l-11,.05A12.28,12.28,0,0,1,89.34,32.25Zm-.84-.49a13.22,13.22,0,0,0-1.54,6l-15.65.07L69.17,34.2a13,13,0,0,0-3.31-5.66l-2.33-4A13.33,13.33,0,0,0,68,20.05ZM67.13,19.57A12.42,12.42,0,0,1,63,23.7L57.38,14Zm-9.76-4.93,5.39,9.23a13,13,0,0,1-1.84.88l-3.55-10Zm-.35,0,3.6,10.2c-.29.1-.57.18-.86.26a17.55,17.55,0,0,0-2.82-.37ZM57,25.08a21.13,21.13,0,0,1,2.12.21,18.4,18.4,0,0,1-2.11.24Zm.41,1.4a13,13,0,0,0,3.54-.69l.05,0,4.27,12.08-7.87,0Zm0,13,3.59,6.16-3.59.72Zm0,7.37,4.83.92.58,1a12.62,12.62,0,0,1-5.42,1.51Zm0,3.73A12.72,12.72,0,0,0,62.91,49l1,1.65-6.54,0Zm0,.51a12.56,12.56,0,0,1,10.12,5.79L57.32,62.79Zm-.64-38.54-11,6.27A12.27,12.27,0,0,1,56.54,1h.28M45.3,20.16a13.42,13.42,0,0,0,4.5,4.46l-2.28,4a13,13,0,0,0-3.28,5.75L42.15,38l-6.42,0c-.35,0-.7,0-1,0s-.7,0-1,.06l-7.12,0a13.18,13.18,0,0,0-1.57-6ZM25.54,38.09l-11,0,9.59-5.6A12.36,12.36,0,0,1,25.54,38.09ZM1,38.38A12.28,12.28,0,0,1,23.6,31.71L13,37.91a.47.47,0,0,0-.24.42l.06,12.25A12.31,12.31,0,0,1,1,38.38Zm12.6,62.47a12.28,12.28,0,0,1-.64-24.54L13,88.55a.46.46,0,0,0,.25.42l10.68,6.1A12.28,12.28,0,0,1,13.57,100.85Zm10.84-6.62-9.67-5.52,11,0A12.18,12.18,0,0,1,24.41,94.23Zm.84.48a13,13,0,0,0,1.51-6.06l4.14,0a12.89,12.89,0,0,0,4.36.75,13,13,0,0,0,4.34-.79h2.8l2,3.42a12.86,12.86,0,0,0,3.79,6.48l2.09,3.6a13.28,13.28,0,0,0-4.43,4.39Zm19.58,18.77a12.26,12.26,0,0,1,1.37-5.69l10.41,5.94.32,12A12.29,12.29,0,0,1,44.83,113.48Zm12.11-1-3.77-10.68.74-.22a12.72,12.72,0,0,0,3,.38Zm0-10.84a12.47,12.47,0,0,1-2.38-.23,12.48,12.48,0,0,1,2.38-.26Zm0-1.46a12.93,12.93,0,0,0-4.1.71L48.49,88.55l7.63,0,.69.39h0l0,0,0,0h0l0,0h0Zm0-12H56.8l-4-6.83L57,80.58Zm0-8-5.33-1L50.89,78a12.34,12.34,0,0,1,4-1.38h1.55l.45,0H57Zm0-4.13h-.07a12.62,12.62,0,0,0-1.51.1,12.6,12.6,0,0,1-7.94-4.13l-.31-.54a13.61,13.61,0,0,0-1-1.86l10.72-6.25.08,0ZM56.91,63,46.35,57,47,55.78a12.55,12.55,0,0,1,9.76-4.71.83.83,0,0,1,.22,0L57,63Zm.36,38.91a12.77,12.77,0,0,0,2.92-.4c.27.07.53.14.79.23l-3.72,10.72ZM69.4,113.36a12.46,12.46,0,0,1-11.67,12.33l-.14-12L68,107.67A12.13,12.13,0,0,1,69.4,113.36Zm-1.09-7A13.31,13.31,0,0,0,63.8,102l2-3.57a13,13,0,0,0,3.75-6.57l2-3.42h2.94a12.67,12.67,0,0,0,9.1,0h3.63a13.18,13.18,0,0,0,1.58,6Zm19.88-18,11,0-9.57,5.59A12.19,12.19,0,0,1,88.19,88.35Zm12.33,12.05a12.26,12.26,0,0,1-10.39-5.67l10.59-6.19a.48.48,0,0,0,.24-.42l-.06-12.27a12.28,12.28,0,0,1-.38,24.55ZM56.83,1c6.38.41,12,5.74,12.06,12.23a12.28,12.28,0,0,1-1.29,5.51L56.69,12.55Z"/><path d="M29.6,107.8a.72.72,0,1,0-.72.72A.72.72,0,0,0,29.6,107.8Z"/><path d="M28,124.62l0,10.54a.48.48,0,0,0,.48.49.49.49,0,0,0,.49-.49l0-10.54a12.85,12.85,0,0,0-.13-1.78,3.9,3.9,0,0,0,1-1l.24-.3.13-.16.6.34,0,0a1,1,0,0,0,1.09-.12.88.88,0,0,0,.24-.94,1.14,1.14,0,0,0-1-.75,1.77,1.77,0,0,0-1.11.27,6.23,6.23,0,0,1-.87-.67,2,2,0,0,0-.33-.24l.32-.5.12-.21a2.41,2.41,0,0,0,.93.51,1.5,1.5,0,0,0,1.21-.2,1.18,1.18,0,0,0,.48-.87,1.27,1.27,0,0,0-.31-.91,1.41,1.41,0,0,0-1-.49,1.93,1.93,0,0,0-1.42.52,5.24,5.24,0,0,1-1.27-2.07,2.69,2.69,0,0,1,.61-2.69A1.75,1.75,0,0,1,29.9,112a1.31,1.31,0,0,1,1,.52,1,1,0,0,1,0,1.16.73.73,0,0,1-.5.25.6.6,0,0,1-.41-.13.49.49,0,0,0-.69,0,.48.48,0,0,0,0,.69,1.48,1.48,0,0,0,1.15.41,1.67,1.67,0,0,0,1.21-.62,2,2,0,0,0,0-2.31A2.27,2.27,0,0,0,30,111a2.78,2.78,0,0,0-2.14.66,3.58,3.58,0,0,0-.88,3.68,6.13,6.13,0,0,0,1.57,2.55l-.09.15-.15.24c-.12.2-.23.39-.35.56a2.65,2.65,0,0,0-2-.23.79.79,0,0,0-.38.84,1.09,1.09,0,0,0,.61.88,1.93,1.93,0,0,0,1.74-.14l.24-.16a1.83,1.83,0,0,1,.34.23,7.18,7.18,0,0,0,.77.62l0,0-.25.33a5.35,5.35,0,0,1-.52.61h0a1.22,1.22,0,0,0-.68-.43.86.86,0,0,0-.45,1.66,1.67,1.67,0,0,0,.5,0C27.92,123.57,28,124.13,28,124.62Zm2.58-7a.46.46,0,0,1,.31.15.28.28,0,0,1,.08.21.2.2,0,0,1-.08.15.59.59,0,0,1-.4,0,1.44,1.44,0,0,1-.55-.33A.92.92,0,0,1,30.55,117.58Z"/><path d="M28.43,137.06a.73.73,0,1,0,.72.73A.73.73,0,0,0,28.43,137.06Z"/><path d="M28.42,139.51a.72.72,0,1,0,.72.72A.72.72,0,0,0,28.42,139.51Z"/><path d="M28.41,142a.72.72,0,0,0-.72.72.71.71,0,0,0,.71.72.73.73,0,0,0,.73-.72A.72.72,0,0,0,28.41,142Z"/><path d="M28.4,144.39a.72.72,0,0,0-.72.72.71.71,0,0,0,.71.72.72.72,0,0,0,.73-.71A.73.73,0,0,0,28.4,144.39Z"/><path d="M28.39,146.84a.71.71,0,0,0-.72.71.72.72,0,0,0,.71.73.73.73,0,0,0,.73-.72A.72.72,0,0,0,28.39,146.84Z"/><path d="M28.38,149.28a.72.72,0,0,0,0,1.44.73.73,0,0,0,.73-.72A.72.72,0,0,0,28.38,149.28Z"/><path d="M28.37,151.72a.72.72,0,0,0,0,1.44.72.72,0,1,0,0-1.44Z"/><path d="M29.08,154.89a.73.73,0,0,0-.72-.73.72.72,0,0,0-.72.72.73.73,0,0,0,.72.73A.72.72,0,0,0,29.08,154.89Z"/><path d="M21.29,103.3a.73.73,0,0,0-.72-.73.72.72,0,0,0-.72.72.73.73,0,0,0,.72.73A.72.72,0,0,0,21.29,103.3Z"/><path d="M22.85,115.42a1.65,1.65,0,0,0-1.11.27,7.4,7.4,0,0,1-.87-.68,2.87,2.87,0,0,0-.33-.24l.32-.5.12-.21a2.28,2.28,0,0,0,.93.51,1.47,1.47,0,0,0,1.21-.2,1.17,1.17,0,0,0,.48-.87,1.28,1.28,0,0,0-.31-.91,1.4,1.4,0,0,0-1-.48,1.89,1.89,0,0,0-1.42.52,5.24,5.24,0,0,1-1.27-2.07,2.73,2.73,0,0,1,.6-2.7,1.83,1.83,0,0,1,1.37-.41,1.32,1.32,0,0,1,1,.53,1,1,0,0,1,0,1.15.69.69,0,0,1-.5.25.55.55,0,0,1-.41-.13.49.49,0,0,0-.69.69,1.51,1.51,0,0,0,1.16.41,1.67,1.67,0,0,0,1.21-.62,2,2,0,0,0,0-2.31,2.34,2.34,0,0,0-1.65-.94,2.81,2.81,0,0,0-2.13.66,3.59,3.59,0,0,0-.88,3.69,6.2,6.2,0,0,0,1.57,2.55.8.8,0,0,0-.09.14l-.15.25c-.12.19-.23.38-.35.55a2.64,2.64,0,0,0-2-.22.75.75,0,0,0-.38.83,1.09,1.09,0,0,0,.61.88,1.93,1.93,0,0,0,1.74-.14l.24-.16.34.23a7.18,7.18,0,0,0,.77.62l0,0-.25.32a4.6,4.6,0,0,1-.52.61h0a1.27,1.27,0,0,0-.68-.43.85.85,0,0,0-1,.62.84.84,0,0,0,.58,1,2.07,2.07,0,0,0,.5.06c.05.43.09,1,.1,1.49l0,6.89a.49.49,0,0,0,.49.49.5.5,0,0,0,.49-.49l0-6.9a14.91,14.91,0,0,0-.13-1.78,4,4,0,0,0,1-1l.24-.31.13-.15.6.33.05,0a1,1,0,0,0,1.09-.11.9.9,0,0,0,.24-.94A1.11,1.11,0,0,0,22.85,115.42Zm-.61-2.34a.44.44,0,0,1,.31.15.27.27,0,0,1,.08.2.2.2,0,0,1-.08.15.5.5,0,0,1-.4,0,1.55,1.55,0,0,1-.55-.32A.88.88,0,0,1,22.24,113.08Z"/><path d="M20,129a.72.72,0,0,0-.72.72.73.73,0,0,0,.72.73.72.72,0,0,0,.72-.72A.73.73,0,0,0,20,129Z"/><path d="M20,131.4a.72.72,0,1,0,.72.72A.72.72,0,0,0,20,131.4Z"/><path d="M20,133.84a.72.72,0,1,0,.72.72A.72.72,0,0,0,20,133.84Z"/><path d="M20,136.28a.72.72,0,0,0-.72.72.73.73,0,0,0,.72.73.73.73,0,0,0,0-1.45Z"/><path d="M19.94,138.73a.71.71,0,0,0-.72.71.72.72,0,1,0,1.44,0A.72.72,0,0,0,19.94,138.73Z"/><path d="M19.93,141.17a.72.72,0,1,0,.72.72A.72.72,0,0,0,19.93,141.17Z"/><path d="M19.92,143.61a.72.72,0,0,0,0,1.44.71.71,0,0,0,.72-.71A.73.73,0,0,0,19.92,143.61Z"/><path d="M19.91,146.06a.71.71,0,0,0-.72.71.73.73,0,0,0,.72.73.72.72,0,1,0,0-1.44Z"/><path d="M36.9,115.16a.72.72,0,0,0-.72-.72.71.71,0,0,0-.72.71.73.73,0,0,0,.72.73A.72.72,0,0,0,36.9,115.16Z"/><path d="M35.72,151.55a.71.71,0,0,0-.72.71.72.72,0,1,0,1.44,0A.72.72,0,0,0,35.72,151.55Z"/><path d="M35.71,154a.72.72,0,1,0,.72.72A.72.72,0,0,0,35.71,154Z"/><circle cx="35.7" cy="157.15" r="0.72"/><path d="M35.69,158.87a.72.72,0,0,0-.72.72.72.72,0,1,0,.72-.72Z"/><circle cx="35.68" cy="162.04" r="0.72" transform="translate(-126.79 195.69) rotate(-89.28)"/><circle cx="35.67" cy="164.48" r="0.72"/><path d="M35.66,166.2a.72.72,0,0,0-.72.72.73.73,0,0,0,.72.73.72.72,0,0,0,.72-.72A.73.73,0,0,0,35.66,166.2Z"/><path d="M35.65,168.65a.71.71,0,0,0-.72.71.73.73,0,0,0,.72.73.72.72,0,0,0,0-1.44Z"/><path d="M35.63,125.63c-.12.19-.23.38-.36.56a2.58,2.58,0,0,0-2-.23.75.75,0,0,0-.38.83,1.08,1.08,0,0,0,.61.88,1.93,1.93,0,0,0,1.74-.13l.24-.17a2.5,2.5,0,0,1,.34.24c.31.27.55.46.77.62l0,0-.25.33a6.41,6.41,0,0,1-.52.6h0a1.34,1.34,0,0,0-.68-.42.84.84,0,0,0-1,.62.83.83,0,0,0,.58,1,1.4,1.4,0,0,0,.5.06c0,.44.09,1,.1,1.49L35.2,150a.48.48,0,0,0,.48.49.49.49,0,0,0,.49-.48L36.24,132a14.91,14.91,0,0,0-.13-1.78,4,4,0,0,0,1-1c.08-.1.15-.21.23-.3l.14-.16.6.33,0,0A1,1,0,0,0,39.2,129a.9.9,0,0,0,.24-.94,1.13,1.13,0,0,0-1-.75,1.62,1.62,0,0,0-1.11.27,6.43,6.43,0,0,1-.87-.67,2,2,0,0,0-.33-.25,5.19,5.19,0,0,0,.31-.5,2.39,2.39,0,0,0,.13-.21,2.42,2.42,0,0,0,.93.52,1.44,1.44,0,0,0,1.2-.21,1.14,1.14,0,0,0,.49-.86,1.29,1.29,0,0,0-.31-.92,1.4,1.4,0,0,0-1-.48,1.93,1.93,0,0,0-1.42.52,5.24,5.24,0,0,1-1.27-2.07,2.69,2.69,0,0,1,.6-2.69,1.79,1.79,0,0,1,1.37-.41,1.3,1.3,0,0,1,1,.52,1,1,0,0,1,0,1.15.69.69,0,0,1-.5.25.51.51,0,0,1-.41-.13.49.49,0,0,0-.69.7,1.54,1.54,0,0,0,1.16.4,1.65,1.65,0,0,0,1.2-.62,2,2,0,0,0,0-2.31,2.29,2.29,0,0,0-1.65-.93,2.75,2.75,0,0,0-2.13.65,3.62,3.62,0,0,0-.89,3.69,6.16,6.16,0,0,0,1.58,2.55l-.09.15Zm2.22-.69a.44.44,0,0,1,.31.15.27.27,0,0,1,.08.2.2.2,0,0,1-.08.15.5.5,0,0,1-.4,0,1.55,1.55,0,0,1-.55-.32A.88.88,0,0,1,37.85,124.94Z"/><path d="M86.19,108.75a.72.72,0,0,0,0-1.44.71.71,0,0,0-.72.71A.73.73,0,0,0,86.19,108.75Z"/><path d="M89,118.85a2.63,2.63,0,0,0-2,.21,6,6,0,0,1-.35-.56l-.15-.24-.09-.15A6.1,6.1,0,0,0,88,115.57a3.59,3.59,0,0,0-.85-3.69,2.76,2.76,0,0,0-2.13-.67,2.25,2.25,0,0,0-1.65.92,2,2,0,0,0,0,2.31,1.68,1.68,0,0,0,1.2.63,1.48,1.48,0,0,0,1.16-.4.48.48,0,0,0,0-.69.5.5,0,0,0-.69,0,.5.5,0,0,1-.4.13.66.66,0,0,1-.5-.25,1,1,0,0,1,0-1.16,1.34,1.34,0,0,1,1-.51,1.78,1.78,0,0,1,1.37.42,2.7,2.7,0,0,1,.58,2.7,5.23,5.23,0,0,1-1.29,2.06,1.9,1.9,0,0,0-1.41-.54,1.44,1.44,0,0,0-1,.48,1.25,1.25,0,0,0-.32.91,1.11,1.11,0,0,0,.48.87,1.48,1.48,0,0,0,1.2.22,2.41,2.41,0,0,0,.93-.51,2.39,2.39,0,0,1,.13.21c.1.16.2.34.31.5a2.74,2.74,0,0,0-.34.25,6.21,6.21,0,0,1-.87.66,1.67,1.67,0,0,0-1.1-.28,1.13,1.13,0,0,0-1,.74.9.9,0,0,0,.23.94,1,1,0,0,0,1.09.13l0,0,.6-.33.14.16.23.3a3.86,3.86,0,0,0,1,1,14.9,14.9,0,0,0-.15,1.79l0,10.54a.49.49,0,0,0,1,0l0-10.52c0-.5.06-1.07.11-1.5a1.57,1.57,0,0,0,.49-.06.83.83,0,0,0,.6-1,.84.84,0,0,0-1-.62,1.18,1.18,0,0,0-.68.42h0a4.69,4.69,0,0,1-.51-.62c-.09-.11-.17-.22-.26-.32l0,0a8.33,8.33,0,0,0,.77-.61,1.63,1.63,0,0,1,.35-.23,1.88,1.88,0,0,0,.23.16,1.93,1.93,0,0,0,1.74.15,1.09,1.09,0,0,0,.62-.87A.78.78,0,0,0,89,118.85Zm-4.47-.5a.53.53,0,0,1-.4,0,.2.2,0,0,1-.08-.15.28.28,0,0,1,.08-.21.43.43,0,0,1,.31-.14h0a1,1,0,0,1,.59.24A1.55,1.55,0,0,1,84.53,118.35Z"/><circle cx="86.41" cy="138.01" r="0.72"/><circle cx="86.4" cy="140.46" r="0.72" transform="translate(-54.4 226.3) rotate(-89.77)"/><path d="M86.39,142.18a.72.72,0,1,0,.72.72A.72.72,0,0,0,86.39,142.18Z"/><path d="M86.38,144.62a.72.72,0,1,0,.72.72A.72.72,0,0,0,86.38,144.62Z"/><path d="M86.37,147.06a.72.72,0,0,0-.72.72.73.73,0,0,0,.72.73.72.72,0,0,0,.72-.72A.73.73,0,0,0,86.37,147.06Z"/><path d="M86.36,149.51a.71.71,0,0,0-.72.71.73.73,0,0,0,.72.73.72.72,0,1,0,0-1.44Z"/><path d="M86.35,152a.72.72,0,1,0,.72.72A.72.72,0,0,0,86.35,152Z"/><path d="M86.34,154.39a.72.72,0,0,0,0,1.44.71.71,0,0,0,.72-.71A.73.73,0,0,0,86.34,154.39Z"/><path d="M94.53,104.31a.73.73,0,0,0,.73-.72.73.73,0,0,0-1.45,0A.73.73,0,0,0,94.53,104.31Z"/><path d="M97.34,114.41a2.63,2.63,0,0,0-2,.21c-.12-.17-.23-.36-.35-.56l-.14-.24a1,1,0,0,1-.09-.15,6.27,6.27,0,0,0,1.59-2.54,3.59,3.59,0,0,0-.86-3.69,2.7,2.7,0,0,0-2.12-.67,2.23,2.23,0,0,0-1.65.92,2,2,0,0,0,0,2.31,1.64,1.64,0,0,0,1.2.63,1.51,1.51,0,0,0,1.16-.4.49.49,0,0,0,0-.69.5.5,0,0,0-.69,0,.51.51,0,0,1-.41.13.73.73,0,0,1-.5-.25,1,1,0,0,1,0-1.16,1.29,1.29,0,0,1,1-.51,1.72,1.72,0,0,1,1.36.42,2.68,2.68,0,0,1,.59,2.7,5.25,5.25,0,0,1-1.29,2,2,2,0,0,0-1.42-.53,1.48,1.48,0,0,0-1,.48,1.22,1.22,0,0,0-.31.91,1.13,1.13,0,0,0,.47.87,1.5,1.5,0,0,0,1.21.22,2.54,2.54,0,0,0,.93-.51l.12.21.31.5c-.13.09-.25.17-.33.24a6.41,6.41,0,0,1-.88.67,1.67,1.67,0,0,0-1.1-.28,1.13,1.13,0,0,0-1,.74.9.9,0,0,0,.23.94,1,1,0,0,0,1.1.13l0,0c.23-.14.43-.24.6-.33a1.83,1.83,0,0,1,.13.16,3.4,3.4,0,0,1,.23.3,4.07,4.07,0,0,0,1,1,14.9,14.9,0,0,0-.15,1.79l0,6.89a.49.49,0,0,0,1,0l0-6.88c0-.5.06-1.07.11-1.5a1.63,1.63,0,0,0,.5-.06.82.82,0,0,0,.59-1,.84.84,0,0,0-1-.63,1.22,1.22,0,0,0-.68.43h0a5.44,5.44,0,0,1-.51-.62,3.92,3.92,0,0,0-.25-.32l0,0a8.27,8.27,0,0,0,.78-.61,2.5,2.5,0,0,1,.34-.24,1.31,1.31,0,0,0,.24.17,1.91,1.91,0,0,0,1.73.15,1.05,1.05,0,0,0,.62-.87A.78.78,0,0,0,97.34,114.41Zm-4.47-.5a.51.51,0,0,1-.39-.06.16.16,0,0,1-.08-.14.27.27,0,0,1,.07-.21.45.45,0,0,1,.31-.14h.06a.94.94,0,0,1,.59.24A1.51,1.51,0,0,1,92.87,113.91Z"/><path d="M94.92,129.25a.72.72,0,1,0,.72.72A.72.72,0,0,0,94.92,129.25Z"/><path d="M94.91,131.69a.72.72,0,0,0,0,1.44.71.71,0,0,0,.72-.71A.73.73,0,0,0,94.91,131.69Z"/><path d="M94.9,134.14a.71.71,0,0,0-.72.71.73.73,0,0,0,.72.73.72.72,0,0,0,0-1.44Z"/><path d="M94.89,136.58a.72.72,0,1,0,.72.72A.72.72,0,0,0,94.89,136.58Z"/><path d="M94.88,139a.72.72,0,0,0,0,1.44.71.71,0,0,0,.72-.71A.73.73,0,0,0,94.88,139Z"/><path d="M94.87,141.46a.73.73,0,1,0,.72.73A.73.73,0,0,0,94.87,141.46Z"/><path d="M94.86,143.91a.72.72,0,1,0,.72.72A.72.72,0,0,0,94.86,143.91Z"/><path d="M94.85,146.35a.72.72,0,1,0,.72.72A.72.72,0,0,0,94.85,146.35Z"/><path d="M78.83,116.05a.73.73,0,0,0,0-1.45.73.73,0,1,0,0,1.45Z"/><path d="M79,151.72a.71.71,0,0,0-.72.71.73.73,0,0,0,.72.73.72.72,0,0,0,0-1.44Z"/><path d="M79,154.16a.73.73,0,0,0-.73.72.72.72,0,1,0,.73-.72Z"/><path d="M79,156.6a.73.73,0,0,0-.73.72A.72.72,0,0,0,79,158a.71.71,0,0,0,.72-.71A.72.72,0,0,0,79,156.6Z"/><path d="M79,159.05a.72.72,0,0,0-.73.71.73.73,0,0,0,.72.73.72.72,0,0,0,.72-.72A.71.71,0,0,0,79,159.05Z"/><path d="M79,161.49a.72.72,0,1,0,0,1.44.72.72,0,0,0,.72-.72A.71.71,0,0,0,79,161.49Z"/><path d="M79,163.93a.73.73,0,0,0-.73.72.72.72,0,0,0,.72.72.71.71,0,0,0,.72-.71A.72.72,0,0,0,79,163.93Z"/><path d="M79,166.37a.73.73,0,1,0,.72.73A.73.73,0,0,0,79,166.37Z"/><path d="M78.94,168.82a.72.72,0,1,0,.72.72A.72.72,0,0,0,78.94,168.82Z"/><path d="M79.42,127.54a1.46,1.46,0,0,0,.24.17,1.91,1.91,0,0,0,1.73.15A1.05,1.05,0,0,0,82,127a.77.77,0,0,0-.37-.83,2.63,2.63,0,0,0-2,.21c-.12-.17-.23-.36-.35-.56l-.15-.24-.09-.15a6.2,6.2,0,0,0,1.6-2.54,3.59,3.59,0,0,0-.86-3.69,2.71,2.71,0,0,0-2.13-.67,2.27,2.27,0,0,0-1.65.92,2,2,0,0,0,0,2.31,1.68,1.68,0,0,0,1.2.63,1.51,1.51,0,0,0,1.16-.4.5.5,0,0,0,0-.69.49.49,0,0,0-.69,0,.55.55,0,0,1-.41.13.73.73,0,0,1-.5-.25,1,1,0,0,1,0-1.16,1.27,1.27,0,0,1,1-.51,1.72,1.72,0,0,1,1.36.42,2.67,2.67,0,0,1,.59,2.69,5.21,5.21,0,0,1-1.29,2.06,2,2,0,0,0-1.42-.53,1.42,1.42,0,0,0-1,.48,1.18,1.18,0,0,0-.31.91,1.14,1.14,0,0,0,.47.87,1.46,1.46,0,0,0,1.21.21,2.38,2.38,0,0,0,.93-.5l.12.21.31.5c-.13.09-.25.17-.33.24a7.09,7.09,0,0,1-.88.67,1.67,1.67,0,0,0-1.1-.28,1.13,1.13,0,0,0-1,.74.9.9,0,0,0,.23.94,1,1,0,0,0,1.09.13l0,0,.6-.32a1,1,0,0,1,.14.16,3.4,3.4,0,0,1,.23.3,4,4,0,0,0,1,1,17.3,17.3,0,0,0-.14,1.79l-.07,18.06a.49.49,0,1,0,1,0l.07-18.05c0-.5.06-1.07.11-1.5a2.07,2.07,0,0,0,.5-.06.82.82,0,0,0,.59-1,.84.84,0,0,0-1-.63,1.34,1.34,0,0,0-.68.42h0a4.57,4.57,0,0,1-.51-.61l-.25-.33,0,0a9.8,9.8,0,0,0,.78-.61A2,2,0,0,1,79.42,127.54Zm-2.25-1.89a.54.54,0,0,1-.4-.06.16.16,0,0,1-.07-.15.26.26,0,0,1,.07-.2.51.51,0,0,1,.31-.15h0a.94.94,0,0,1,.6.24A1.68,1.68,0,0,1,77.17,125.65Z"/><polygon points="57.06 148.6 59.71 144.88 57.09 141.3 54.44 144.86 57.06 148.6"/><line class="cls-4" x1="57.22" y1="237.1" x2="57.22" y2="294.68"/><path d="M57.26,244.79,48.94,255a.93.93,0,0,0,0,1.18l8.34,10.15"/><path d="M57.29,266.3l8.31-10.17a1,1,0,0,0,0-1.21l-8.34-10.14"/><polygon class="cls-5" points="63.88 255.71 57.29 263.77 50.67 255.73 57.26 247.67 63.88 255.71"/><polygon points="57.26 259.88 60.65 255.07 57.24 250.47 53.85 255.08 57.26 259.88"/><path d="M57.23,271.31l-6.46,8a.74.74,0,0,0,0,.92l6.56,7.9"/><path d="M57.29,288.13l6.51-7.95a.75.75,0,0,0,0-.94l-6.51-7.94"/><polygon class="cls-5" points="62.45 279.86 57.29 286.15 52.13 279.86 57.29 273.56 62.45 279.86"/><polygon points="57.29 283.15 59.81 279.6 57.3 276.19 54.78 279.59 57.29 283.15"/><path d="M57.24,293.25l-4.1,5.07a.45.45,0,0,0,0,.58l4.16,5"/><path d="M57.31,303.92l4.1-5.07a.47.47,0,0,0,0-.59l-4.17-5"/><polygon class="cls-5" points="60.55 298.65 57.3 302.67 54 298.7 57.25 294.68 60.55 298.65"/><polygon points="57.21 300.77 58.78 298.62 57.27 296.51 55.7 298.57 57.21 300.77"/><line class="cls-4" x1="56.59" y1="12.9" x2="57.07" y2="131.28"/><path class="cls-5" d="M56.79,1c6.4.4,12.06,5.74,12.1,12.22a12.23,12.23,0,0,1-1.3,5.52L56.65,12.56Z"/><path class="cls-5" d="M56.67,12.55l-11,6.27A12.26,12.26,0,0,1,56.53,1h.28"/><path d="M56.72,244.57c.1.09,1,.05,1,0,0-2.58,0-3.76,0-4.93a7.11,7.11,0,0,0-.21-2.31c-.2-.31-.71-.09-.82.35"/><path class="cls-6" d="M51.78,196.36a5.33,5.33,0,0,1-.2,1.07c-.06.24-.12.49-.16.74a4.07,4.07,0,0,0,.16,1.59c0,.14.07.28.1.41a6,6,0,0,1-.15,3,6,6,0,0,0,1.92-.76,7.15,7.15,0,0,1,1.78-.75,5.16,5.16,0,0,1,4,.75,5.05,5.05,0,0,1,1.38,1.35l.08.11c.51.74.87,1.27,1.8,1.17a6.52,6.52,0,0,0,1-.19,6.21,6.21,0,0,1,1.36-.21,5.54,5.54,0,0,1,1.41.15,11.36,11.36,0,0,1,2.91-5.68,6.37,6.37,0,0,1,.54-.43,3.19,3.19,0,0,1-.56-1.87,11.71,11.71,0,0,1,.06-1.19,5.27,5.27,0,0,0-.16-2.37,4.32,4.32,0,0,0-1.81-2.15,5.13,5.13,0,0,0-2.58-.57h0l-.42,0a3.75,3.75,0,0,1-.61-.08,3.92,3.92,0,0,1-2-1.07,3.67,3.67,0,0,0-5.14-.31,3,3,0,0,1-2.66.44,2.34,2.34,0,0,0-1.65,0,2.49,2.49,0,0,0-1,1,8.17,8.17,0,0,0-.65,1.59,11.54,11.54,0,0,1-.45,1.19A3.27,3.27,0,0,1,51.78,196.36Z"/><path class="cls-6" d="M81.39,195.84h0a1.85,1.85,0,0,0,.24-1.2,1.6,1.6,0,0,0-1.88-1,2.08,2.08,0,0,0-.86.64,2.49,2.49,0,0,1-.89.69,6.08,6.08,0,0,1-1.44.36,8.27,8.27,0,0,0-1.12.25,4.68,4.68,0,0,0-2.23,1.65,6.88,6.88,0,0,1-2.13,1.58A6.64,6.64,0,0,0,69,200.49a12,12,0,0,0-2,4.59,4.34,4.34,0,0,1,1.92,1.54c.16-.34.32-.69.47-1,1.35-2.91,2.74-5.91,6.22-6.24a4,4,0,0,1,.77,0,2.19,2.19,0,0,0,1.06,0l.4-.21a5.44,5.44,0,0,1,.92-.4c.74-.22,4.07,1.79,4.76,1.92a4.07,4.07,0,0,0,.11-3,5.87,5.87,0,0,0-.71-2.15c-.42-.94-.59-1-.59-1"/><path class="cls-6" d="M35.6,199.54c0,.21,0,.44-.07.64a3.25,3.25,0,0,0,0,1.32c.11.38.44.55.81.75l.21.12a4.67,4.67,0,0,1,1,.72,10.42,10.42,0,0,1,2.16,3.54c.15.35.31.7.47,1a7,7,0,0,0,1.71,2.42,5.8,5.8,0,0,0,1.29.83,5.27,5.27,0,0,0,.72.27l.09,0,.15,0,0,0c0-.07,0-.15,0-.23a3.75,3.75,0,0,0-.11-1.88c-.1-.25-.22-.5-.34-.73a5.73,5.73,0,0,1-.55-1.45,4,4,0,0,1,.14-2,3.91,3.91,0,0,1,3.1-2.62,5.67,5.67,0,0,1,2.72.42,8.86,8.86,0,0,0,1.46.41,5.19,5.19,0,0,0,.28-2.09,6.22,6.22,0,0,0-.2-1.13c-.06-.23-.11-.46-.15-.7a4.46,4.46,0,0,1,.17-1.82,4,4,0,0,0,.15-1.73,3,3,0,0,0-1.54-1.85.57.57,0,0,1-.12-.07L49,193.7a7.41,7.41,0,0,0-1-.37,4.67,4.67,0,0,1-1.84-.88,4.21,4.21,0,0,0-2.48-1.19,3.94,3.94,0,0,0-2.51.65,5.27,5.27,0,0,0-.82.74,3.84,3.84,0,0,1-1.38,1l-.71.24a3.14,3.14,0,0,0-1.74.94,6.19,6.19,0,0,0-.71,1.28,6,6,0,0,1-.94,1.58l.2.15A2,2,0,0,1,35.6,199.54Z"/><path class="cls-7" d="M41.46,210.27a12.39,12.39,0,0,1-1.78-2.83,9.27,9.27,0,0,1-1.4-4.95,1.26,1.26,0,0,1,.28-.75c.34-.36.94-.27,1.42-.41a2.47,2.47,0,0,0,1.47-2,10,10,0,0,1,.58-2.51,1.68,1.68,0,0,1,2.11-1c.54.28.77,1,1.25,1.33a1.57,1.57,0,0,0,2.06-.13c.27-.3.45-.71.82-.86a2.92,2.92,0,0,1,1.14,0,2.42,2.42,0,0,0,1.88-1.42,7.66,7.66,0,0,1,1.32-2.05,2.49,2.49,0,0,1,3-.14c.7.5,1.14,1.38,2,1.67,1.26.44,2.44-.76,3.65-1.34s3.25-.35,3.88,1c.36.79.32,1.9,1.11,2.26.49.23,1.1,0,1.56.32,1.08.66-.18,2.61.68,3.55a1.94,1.94,0,0,0,1.91.22c3.94-1.07,7.74-3.5,11.76-2.82-.84.76-1,2-1.36,3.07a18.82,18.82,0,0,1-1.88,3.82c-2.22,3.78-4.66,7.76-8.6,9.69a22.58,22.58,0,0,1-6.08,1.68c-3.29.58-6.7,1.16-9.92.28-2.39-.66-4.47-2.06-6.69-3.12C45.63,212,43,211.92,41.46,210.27Z"/><path class="cls-8" d="M78.18,199.89a2.8,2.8,0,0,1-.79.35,2.22,2.22,0,0,1-.89,0,3.53,3.53,0,0,0-.56-.05,4.67,4.67,0,0,0-2.77,1.13,12.24,12.24,0,0,0-3,4.63c-.16.36-.31.7-.47,1a14.13,14.13,0,0,1-1.64,2.78,16.87,16.87,0,0,1-1.86,1.92l-.15.14a13.28,13.28,0,0,0-2,2.09,5.08,5.08,0,0,0-.89,3.12c0,.43,0,.88.08,1.32a7.83,7.83,0,0,1-.43,4.11l1.14-.1a8.07,8.07,0,0,0,1.85-.31l.28-.11a1.78,1.78,0,0,1,.66-.19l.08,0H67c2.41-.12,4.58-1.68,6.51-3.05a36,36,0,0,0,5.6-4.95,13.56,13.56,0,0,0,3.45-5.53,6.68,6.68,0,0,0,0-3.23,2.2,2.2,0,0,0-.13-.36,2.21,2.21,0,0,1-.19-.88,1.74,1.74,0,0,1,.31-.74,2.74,2.74,0,0,0,.21-.42,2.33,2.33,0,0,0-.83-2.65,3.41,3.41,0,0,0-3.28-.24C78.5,199.71,78.34,199.8,78.18,199.89Z"/><path class="cls-9" d="M63.65,223.29a13.65,13.65,0,0,0-2.18.32,11.8,11.8,0,0,0-2.9,1.16,12.71,12.71,0,0,0-1.3.86,4.47,4.47,0,0,0-.41.35,3.66,3.66,0,0,1-.77.59.47.47,0,0,1-.54-.09.38.38,0,0,1,0-.47.94.94,0,0,1,.12-.18c-.67-1.53-2.4-2.14-3.94-2.67l-.62-.22a8.1,8.1,0,0,1-3.83-2.74,4.49,4.49,0,0,0,1.39,3.7,9.73,9.73,0,0,0,.82.61c1,.65,2.15,1.45,2,2.59a.3.3,0,0,1-.2.22.26.26,0,0,1-.27-.07c-.13-.15-.24-.31-.35-.46l-.13-.19c0,.16,0,.32,0,.48v.06a20.82,20.82,0,0,0,.78,4.82,7.7,7.7,0,0,0,2.94,4.13,4.75,4.75,0,0,0,4.79.35c1.73-.95,2.48-3,2.8-4.49a43.55,43.55,0,0,0,.63-4.4v0c0-.21.05-.42.07-.63a2.14,2.14,0,0,0-.56.75.38.38,0,0,1-.42.22h0a.41.41,0,0,1-.28-.45c.19-1.1,1.18-1.57,2.06-2l.67-.33a6,6,0,0,0,2-2.19,5.75,5.75,0,0,1-1.26.28Z"/><path class="cls-8" d="M49.36,221.16a11,11,0,0,0,2.74,1.25l.34.12a6.55,6.55,0,0,1,3.8,2.64,11,11,0,0,1,1.6-1l.07-.05a13.08,13.08,0,0,1,2.83-1.22,12,12,0,0,1,1.18-.28c.84-1.27.73-2.71.6-4.24a8.31,8.31,0,0,1,.29-3.81,10.11,10.11,0,0,1,2.78-3.44,18.83,18.83,0,0,0,1.72-1.74,11.16,11.16,0,0,0,1.15-1.79,4,4,0,0,0-3.47-2,6.21,6.21,0,0,0-1.37.2,4.7,4.7,0,0,1-2,.17,1.88,1.88,0,0,1-.89-.42,4.24,4.24,0,0,1-.81-1,6.16,6.16,0,0,0-.52-.71,4.3,4.3,0,0,0-1.57-1,4.55,4.55,0,0,0-3.94.44A5.19,5.19,0,0,1,50,204c-.33-.08-.66-.19-1-.29a4.22,4.22,0,0,0-3.21-.2,3,3,0,0,0-1.45,3.94c.09.22.2.43.3.64a5.59,5.59,0,0,1,.53,1.34,5.07,5.07,0,0,1,0,1.65c0,.13,0,.25-.05.36a5.47,5.47,0,0,0,1.09,3.39l-.09.06.09-.05.4.68a5,5,0,0,1,.76,3.33l0,0A6.28,6.28,0,0,0,49.36,221.16Z"/><path class="cls-8" d="M32.8,210.65a19.11,19.11,0,0,0,3.4,2.95l.9.68a32.36,32.36,0,0,1,3,2.75c1.83,1.84,3.72,3.74,6.27,4.46a5.27,5.27,0,0,1,.22-2.46c.25-1.35-.48-2.54-1.18-3.7-.26-.41-.52-.85-.74-1.28a5,5,0,0,1-.54-1.9H44a4.4,4.4,0,0,1-.64-.2l-.14-.06a5.93,5.93,0,0,1-1.33-.67,9.51,9.51,0,0,1-3.09-4.4l-.19-.43A8.79,8.79,0,0,0,37.19,204a4.27,4.27,0,0,0-1.12-.88L35.9,203a2.73,2.73,0,0,1-.86-.6,2.44,2.44,0,0,1-.37-2.12h0a3,3,0,0,0,0-1.47.65.65,0,0,0-.51-.47c-.51-.08-1.26.49-1.6.93a8.16,8.16,0,0,0-1.17,2.1,9.54,9.54,0,0,0-.52,4.82A8.89,8.89,0,0,0,32.8,210.65Z"/><path d="M31.74,210.75a18,18,0,0,0,3.92,3.58l.15.1a30.12,30.12,0,0,1,2.59,2.12c.45.43.9.89,1.34,1.34s.76.78,1.15,1.15c1.42,1.37,3.33,3,5.65,3.22a5.23,5.23,0,0,0,.77,1.55,7.69,7.69,0,0,0,1.89,1.67l.06.05.54.4c-.22,3.49.21,8.16,3.54,10.65a6,6,0,0,0,5,1.09A5.92,5.92,0,0,0,62.17,234a22.36,22.36,0,0,0,1.18-6.1c0-.53.1-1.08.16-1.61l.25-.12,0,0a6,6,0,0,0,1.33-.79,9.64,9.64,0,0,0,2.08-2.75c2.24-.1,4.28-1.48,5.93-2.59a36.84,36.84,0,0,0,5.46-4.49,19.4,19.4,0,0,0,4.22-5.58,8.54,8.54,0,0,0,.78-3,6.52,6.52,0,0,0-.09-1.67h0a3.53,3.53,0,0,0-.16-.57,1.71,1.71,0,0,1-.15-1.12c0-.11.11-.22.17-.33a3.47,3.47,0,0,0,.32-.87,2.42,2.42,0,0,0,0-.47l0,0c1.58-1.61,1-4,.11-6.27a4.83,4.83,0,0,0-1.62-2.37,3.06,3.06,0,0,0-2.68-.46A3.48,3.48,0,0,0,77.92,194a2.09,2.09,0,0,1-.93.34h0a8.91,8.91,0,0,0-2.78.83,5.59,5.59,0,0,0-1.37,1.23,6.13,6.13,0,0,1-1.07,1c-.32.22-.67.42-1,.6l0,0-.38.21a4.29,4.29,0,0,1-.28-2.64l0-.28a5.06,5.06,0,0,0-5.1-5.73h-.3a4.37,4.37,0,0,1-1.57-.24,3.88,3.88,0,0,1-1-.75c-.15-.14-.31-.29-.48-.43a4.49,4.49,0,0,0-1.9-.88,5,5,0,0,0-.66-.08,4.48,4.48,0,0,0-2.58.62c-.16.1-.31.21-.47.33a2.53,2.53,0,0,1-.83.49,2.6,2.6,0,0,1-1.29-.09l-.56-.11a2.73,2.73,0,0,0-2.68,1.12,7.24,7.24,0,0,0-1,2.13,11.66,11.66,0,0,1-.43,1.17,7.49,7.49,0,0,0-1.13-.38,4.25,4.25,0,0,1-1.73-1,4.41,4.41,0,0,0-1.29-.8,4.76,4.76,0,0,0-2.62-.23,4.55,4.55,0,0,0-2.32,1.17l-.39.42a2.66,2.66,0,0,1-.92.78,5.94,5.94,0,0,1-.87.3c-.21.06-.45.13-.69.22a3.61,3.61,0,0,0-2,2c-.08.15-.14.3-.21.45a5.1,5.1,0,0,1-1,1.63,2,2,0,0,0-1.11.21c-1.37.68-2.2,2.48-2.65,3.88a10.29,10.29,0,0,0-.37,4.81A9.86,9.86,0,0,0,31.74,210.75Zm15.63,8.08a5,5,0,0,0-.76-3.33l-.4-.68-.09.05.09-.06a5.47,5.47,0,0,1-1.09-3.39c0-.11,0-.23.05-.36a5.07,5.07,0,0,0,0-1.65,5.59,5.59,0,0,0-.53-1.34c-.1-.21-.21-.42-.3-.64a3,3,0,0,1,1.45-3.94,4.22,4.22,0,0,1,3.21.2c.32.1.65.21,1,.29a5.19,5.19,0,0,0,3.94-.77,4.55,4.55,0,0,1,3.94-.44,4.3,4.3,0,0,1,1.57,1,6.16,6.16,0,0,1,.52.71,4.24,4.24,0,0,0,.81,1,1.88,1.88,0,0,0,.89.42,4.7,4.7,0,0,0,2-.17,6.21,6.21,0,0,1,1.37-.2,4,4,0,0,1,3.47,2,11.16,11.16,0,0,1-1.15,1.79,18.83,18.83,0,0,1-1.72,1.74,10.11,10.11,0,0,0-2.78,3.44,8.31,8.31,0,0,0-.29,3.81c.13,1.53.24,3-.6,4.24a12,12,0,0,0-1.18.28,13.08,13.08,0,0,0-2.83,1.22l-.07.05a11,11,0,0,0-1.6,1,6.55,6.55,0,0,0-3.8-2.64l-.34-.12a11,11,0,0,1-2.74-1.25,6.28,6.28,0,0,1-2-2.31Zm16.57,6.26-.67.33c-.88.42-1.87.89-2.06,2a.41.41,0,0,0,.28.45h0a.38.38,0,0,0,.42-.22,2.14,2.14,0,0,1,.56-.75c0,.21,0,.42-.07.63v0a43.55,43.55,0,0,1-.63,4.4c-.32,1.52-1.07,3.54-2.8,4.49a4.75,4.75,0,0,1-4.79-.35A7.7,7.7,0,0,1,51.28,232a20.82,20.82,0,0,1-.78-4.82v-.06c0-.16,0-.32,0-.48l.13.19c.11.15.22.31.35.46a.26.26,0,0,0,.27.07.3.3,0,0,0,.2-.22c.18-1.14-1-1.94-2-2.59a9.73,9.73,0,0,1-.82-.61,4.49,4.49,0,0,1-1.39-3.7,8.1,8.1,0,0,0,3.83,2.74l.62.22c1.54.53,3.27,1.14,3.94,2.67a.94.94,0,0,0-.12.18.38.38,0,0,0,0,.47.47.47,0,0,0,.54.09,3.66,3.66,0,0,0,.77-.59,4.47,4.47,0,0,1,.41-.35,12.71,12.71,0,0,1,1.3-.86,11.8,11.8,0,0,1,2.9-1.16,13.65,13.65,0,0,1,2.18-.32l1.07-.11A5.75,5.75,0,0,0,66,222.9,6,6,0,0,1,63.94,225.09Zm18.58-30.34a10.6,10.6,0,0,1,1.14,3,4.46,4.46,0,0,1-.13,2.89,3.26,3.26,0,0,0-1.8-1.83h0a8,8,0,0,0,.12-1.18,5.07,5.07,0,0,1,.27-1.63,2.52,2.52,0,0,0,.23-1.51Zm-.58,5.13a2.33,2.33,0,0,1,.83,2.65,2.74,2.74,0,0,1-.21.42,1.74,1.74,0,0,0-.31.74,2.21,2.21,0,0,0,.19.88,2.2,2.2,0,0,1,.13.36,6.68,6.68,0,0,1,0,3.23,13.56,13.56,0,0,1-3.45,5.53,36,36,0,0,1-5.6,4.95c-1.93,1.37-4.1,2.93-6.51,3.05h-.09l-.08,0a1.78,1.78,0,0,0-.66.19l-.28.11a8.07,8.07,0,0,1-1.85.31l-1.14.1a7.83,7.83,0,0,0,.43-4.11c0-.44-.07-.89-.08-1.32a5.08,5.08,0,0,1,.89-3.12,13.28,13.28,0,0,1,2-2.09l.15-.14a16.87,16.87,0,0,0,1.86-1.92A14.13,14.13,0,0,0,69.7,207c.16-.33.31-.67.47-1a12.24,12.24,0,0,1,3-4.63,4.67,4.67,0,0,1,2.77-1.13,3.53,3.53,0,0,1,.56.05,2.22,2.22,0,0,0,.89,0,2.8,2.8,0,0,0,.79-.35c.16-.09.32-.18.48-.25A3.41,3.41,0,0,1,81.94,199.88Zm-10.86-1.11a6.88,6.88,0,0,0,2.13-1.58,4.68,4.68,0,0,1,2.23-1.65,8.27,8.27,0,0,1,1.12-.25,6.08,6.08,0,0,0,1.44-.36,2.49,2.49,0,0,0,.89-.69,2.08,2.08,0,0,1,.86-.64,1.6,1.6,0,0,1,1.88,1,1.85,1.85,0,0,1-.24,1.2h0l.1,0-.1,0a3.46,3.46,0,0,0-.28.84,6.54,6.54,0,0,0-.07.89,6,6,0,0,1-.09,1,4.66,4.66,0,0,0-2.18.14,5.44,5.44,0,0,0-.92.4l-.4.21a2.19,2.19,0,0,1-1.06,0,4,4,0,0,0-.77,0c-3.48.33-4.87,3.33-6.22,6.24-.15.34-.31.69-.47,1A4.34,4.34,0,0,0,67,205.08a12,12,0,0,1,2-4.59A6.64,6.64,0,0,1,71.08,198.77Zm-20.59-6.64a8.17,8.17,0,0,1,.65-1.59,2.49,2.49,0,0,1,1-1,2.34,2.34,0,0,1,1.65,0,3,3,0,0,0,2.66-.44,3.67,3.67,0,0,1,5.14.31,3.92,3.92,0,0,0,2,1.07,3.75,3.75,0,0,0,.61.08l.42,0h0a5.13,5.13,0,0,1,2.58.57A4.32,4.32,0,0,1,69,193.27a5.27,5.27,0,0,1,.16,2.37,11.71,11.71,0,0,0-.06,1.19,3.19,3.19,0,0,0,.56,1.87,6.37,6.37,0,0,0-.54.43,11.36,11.36,0,0,0-2.91,5.68,5.54,5.54,0,0,0-1.41-.15,6.21,6.21,0,0,0-1.36.21,6.52,6.52,0,0,1-1,.19c-.93.1-1.29-.43-1.8-1.17l-.08-.11a5.05,5.05,0,0,0-1.38-1.35,5.16,5.16,0,0,0-4-.75,7.15,7.15,0,0,0-1.78.75,6,6,0,0,1-1.92.76,6,6,0,0,0,.15-3c0-.13-.06-.27-.1-.41a4.07,4.07,0,0,1-.16-1.59c0-.25.1-.5.16-.74a5.33,5.33,0,0,0,.2-1.07,3.27,3.27,0,0,0-1.74-3A11.54,11.54,0,0,0,50.49,192.13Zm-14.69,4a6.19,6.19,0,0,1,.71-1.28,3.14,3.14,0,0,1,1.74-.94l.71-.24a3.84,3.84,0,0,0,1.38-1,5.27,5.27,0,0,1,.82-.74,3.94,3.94,0,0,1,2.51-.65,4.21,4.21,0,0,1,2.48,1.19,4.67,4.67,0,0,0,1.84.88,7.41,7.41,0,0,1,1,.37l.18.08a.57.57,0,0,0,.12.07,3,3,0,0,1,1.54,1.85,4,4,0,0,1-.15,1.73,4.46,4.46,0,0,0-.17,1.82c0,.24.09.47.15.7a6.22,6.22,0,0,1,.2,1.13,5.19,5.19,0,0,1-.28,2.09,8.86,8.86,0,0,1-1.46-.41,5.67,5.67,0,0,0-2.72-.42,3.91,3.91,0,0,0-3.1,2.62,4,4,0,0,0-.14,2,5.73,5.73,0,0,0,.55,1.45c.12.23.24.48.34.73a3.75,3.75,0,0,1,.11,1.88c0,.08,0,.16,0,.23l0,0-.15,0-.09,0a5.27,5.27,0,0,1-.72-.27,5.8,5.8,0,0,1-1.29-.83,7,7,0,0,1-1.71-2.42c-.16-.34-.32-.69-.47-1a10.42,10.42,0,0,0-2.16-3.54,4.67,4.67,0,0,0-1-.72l-.21-.12c-.37-.2-.7-.37-.81-.75a3.25,3.25,0,0,1,0-1.32c0-.2.06-.43.07-.64a2,2,0,0,0-.54-1.65l-.2-.15A6,6,0,0,0,35.8,196.16Zm-4.45,5.23a8.16,8.16,0,0,1,1.17-2.1c.34-.44,1.09-1,1.6-.93a.65.65,0,0,1,.51.47,3,3,0,0,1,0,1.47h0a2.44,2.44,0,0,0,.37,2.12,2.73,2.73,0,0,0,.86.6l.17.09a4.27,4.27,0,0,1,1.12.88,8.79,8.79,0,0,1,1.45,2.39l.19.43a9.51,9.51,0,0,0,3.09,4.4,5.93,5.93,0,0,0,1.33.67l.14.06a4.4,4.4,0,0,0,.64.2h.09a5,5,0,0,0,.54,1.9c.22.43.48.87.74,1.28.7,1.16,1.43,2.35,1.18,3.7a5.27,5.27,0,0,0-.22,2.46c-2.55-.72-4.44-2.62-6.27-4.46a32.36,32.36,0,0,0-3-2.75l-.9-.68a19.11,19.11,0,0,1-3.4-2.95,8.89,8.89,0,0,1-2-4.44A9.54,9.54,0,0,1,31.35,201.39Z"/><path d="M61.54,205c3.43-4.64,6.75-9.58,12-12.32.22-.11,0-.43-.19-.37C70.79,193.1,68.75,195,67,197a44,44,0,0,0-6,7.68C60.76,205,61.3,205.32,61.54,205Z"/><path class="cls-10" d="M73.09,192.3a1.39,1.39,0,0,0,2.32.56,1.1,1.1,0,0,0,.22-.82,1.36,1.36,0,0,0-1.47-1.25A1.41,1.41,0,0,0,73.09,192.3Z"/><path d="M59.5,203.1c-.15.42.48.72.63.3a49.64,49.64,0,0,1,4.28-9.13,76.46,76.46,0,0,1,6.32-8.45c.15-.18-.1-.38-.27-.23C65.36,190.14,61.76,196.73,59.5,203.1Z"/><path class="cls-10" d="M69.8,185.65a1.39,1.39,0,0,0,2.32.56,1.09,1.09,0,0,0,.23-.82,1.37,1.37,0,0,0-1.48-1.25A1.42,1.42,0,0,0,69.8,185.65Z"/><path d="M57.31,201.92c0,.51.74.49.79,0A40.15,40.15,0,0,1,60,192.84a69.08,69.08,0,0,1,4-8.38c.09-.2-.16-.43-.32-.25a25.43,25.43,0,0,0-4.35,8.17A33.47,33.47,0,0,0,57.31,201.92Z"/><path class="cls-10" d="M62.48,184.33a1.38,1.38,0,0,0,2.38.11,1.11,1.11,0,0,0,.07-.84,1.35,1.35,0,0,0-1.68-.95A1.39,1.39,0,0,0,62.48,184.33Z"/><path d="M53.86,182.39c.13,3.27.74,6.55,1,9.82s.71,6.78.09,10a.38.38,0,0,0,.75.15c.76-3.17.23-6.74,0-9.94a55.58,55.58,0,0,0-1.36-10.14C54.24,182,53.85,182.14,53.86,182.39Z"/><path class="cls-10" d="M52.88,183.13a1.39,1.39,0,0,0,2.39,0,1.14,1.14,0,0,0,0-.85,1.35,1.35,0,0,0-1.73-.85A1.41,1.41,0,0,0,52.88,183.13Z"/><path d="M45.67,185c1.15,2.93,2.71,5.69,3.83,8.64a89.47,89.47,0,0,1,2.75,9.49A.38.38,0,0,0,53,203a43.32,43.32,0,0,0-2.64-9.46,31.56,31.56,0,0,0-4.49-8.66C45.78,184.73,45.63,184.83,45.67,185Z"/><path class="cls-10" d="M45.07,185.73a1.39,1.39,0,0,0,2.37-.25,1.14,1.14,0,0,0-.06-.85,1.36,1.36,0,0,0-1.81-.68A1.41,1.41,0,0,0,45.07,185.73Z"/><path d="M39.16,186.91c1.56,2.75,3.54,5.3,5.26,8s3.92,5.43,4.78,8.45c.11.38.78.34.73-.09a9.4,9.4,0,0,0-1.62-3.71c-.93-1.54-1.9-3.06-2.89-4.56-1.81-2.75-3.65-5.91-6.08-8.17A.11.11,0,0,0,39.16,186.91Z"/><path class="cls-10" d="M38.28,188.24a1.39,1.39,0,0,0,2.39,0,1.13,1.13,0,0,0,0-.85,1.36,1.36,0,0,0-1.73-.85A1.42,1.42,0,0,0,38.28,188.24Z"/><path class="cls-11" d="M70.68,216.53a32,32,0,0,0,4.65-5.61c1.63-2.7,2.2-5.77,4.74-7.88.06,0,0-.15-.07-.11-2.23,1.21-3,3.32-4.06,5.51A27.24,27.24,0,0,1,70.07,216C69.71,216.36,70.32,216.9,70.68,216.53Z"/><path class="cls-11" d="M65.5,221.63c1-1.5,3.08-2.15,3.71-3.86a.29.29,0,0,0-.47-.32c-1.2,1.23-3.53,2.12-3.92,3.94C64.73,221.82,65.29,222,65.5,221.63Z"/><path class="cls-11" d="M71.17,218.61c4.74-2.15,9.1-6.8,9.56-12.19,0-.09-.12-.16-.16-.06-2.17,5-4.73,9.06-9.6,11.86C70.76,218.34,70.94,218.71,71.17,218.61Z"/><path class="cls-11" d="M65.55,217.76a35.34,35.34,0,0,1,4.82-7.69,23.57,23.57,0,0,0,4.23-6.55.16.16,0,0,0-.29-.14,53.91,53.91,0,0,1-5.68,7.75c-1.54,1.9-3.15,4-3.63,6.44A.29.29,0,0,0,65.55,217.76Z"/><path class="cls-11" d="M57.75,221.24c0,.57.84.49.87-.06.19-3.07.22-6.17,1.7-9,1.09-2,3.29-3.16,4.21-5.26.08-.18-.18-.4-.31-.21-1.64,2.33-4,3.54-5.11,6.29A23.29,23.29,0,0,0,57.75,221.24Z"/><path class="cls-11" d="M55,211.6a91.47,91.47,0,0,1-.42,10.2c0,.51.74.68.8.16a66.87,66.87,0,0,0,.45-7.75c0-3.29-.4-6.62,1.08-9.7.11-.23-.22-.38-.35-.17C55.1,206.58,55,209,55,211.6Z"/><path class="cls-11" d="M48.12,205.93c1.53,5.09.68,10.34,3.71,15,.29.45,1,0,.69-.46a21.08,21.08,0,0,1-2.7-8.79c-.2-2.07-.22-4.14-1.47-5.88A.13.13,0,0,0,48.12,205.93Z"/><path class="cls-11" d="M33.69,205.13a10,10,0,0,0,1.43,1.81,12.66,12.66,0,0,1,2.37,3.8A11.76,11.76,0,0,0,40,214.83c1.39,1.37,2.94,2.49,4.26,3.94.24.27.66-.12.47-.42-1.89-2.9-5-4.08-6.37-7.46a13.15,13.15,0,0,0-1.71-3.36c-1.4-1.78-3.13-2.77-3-5.38a.11.11,0,0,0-.21,0A3.2,3.2,0,0,0,33.69,205.13Z"/><path d="M58.88,178.23a.37.37,0,1,0,0,.74.37.37,0,1,0,0-.74Z"/><path d="M65,179.81a.4.4,0,0,0-.39.39.38.38,0,0,0,.39.39.39.39,0,0,0,.39-.39A.4.4,0,0,0,65,179.81Z"/><path d="M49.33,179.71a.42.42,0,0,0-.42.42.42.42,0,0,0,.42.42.42.42,0,0,0,0-.84Z"/><circle cx="57.29" cy="306" r="0.84"/><circle cx="57.35" cy="308.42" r="0.84"/><path d="M53.71,177.86a.37.37,0,0,0-.37.37.37.37,0,0,0,.73,0A.37.37,0,0,0,53.71,177.86Z"/><path d="M38.26,183.38a.43.43,0,0,0-.43.42.43.43,0,1,0,.43-.42Z"/><path d="M57,175.66a.51.51,0,0,0,0,1,.51.51,0,1,0,0-1Z"/><path d="M75.11,179.28a.54.54,0,1,0,.53.54A.54.54,0,0,0,75.11,179.28Z"/><path d="M41.33,178.5a.58.58,0,1,0,.58.58A.59.59,0,0,0,41.33,178.5Z"/><path d="M67.51,176.33a.51.51,0,0,0,0,1,.51.51,0,0,0,0-1Z"/><path d="M34.29,182a.58.58,0,1,0,0,1.15.58.58,0,1,0,0-1.15Z"/><path d="M79.94,186.41a.53.53,0,0,0-.53.53.53.53,0,0,0,.53.53.52.52,0,0,0,.53-.52A.54.54,0,0,0,79.94,186.41Z"/><path d="M56.89,173a.64.64,0,0,0-.64.64.63.63,0,0,0,.63.64.64.64,0,0,0,0-1.28Z"/><path d="M56.56,180.2a.2.2,0,0,0-.2.2.2.2,0,0,0,.19.19.2.2,0,1,0,0-.39Z"/><path d="M68.21,182.4a.2.2,0,1,0,0,.39.2.2,0,0,0,.19-.19A.2.2,0,0,0,68.21,182.4Z"/><path d="M74.17,187.77a.2.2,0,1,0,.19.2A.2.2,0,0,0,74.17,187.77Z"/><path d="M46,181.89a.2.2,0,0,0-.19.19.19.19,0,1,0,.38,0A.18.18,0,0,0,46,181.89Z"/><path d="M34.86,187.77a.2.2,0,0,0-.19.19.19.19,0,0,0,.19.2.19.19,0,0,0,.19-.19A.19.19,0,0,0,34.86,187.77Z"/><path d="M46.63,175.59a.58.58,0,1,0,0,1.15.58.58,0,1,0,0-1.15Z"/></g></g></svg>