<svg xmlns="http://www.w3.org/2000/svg" viewBox="0 0 54.89 138.6"><defs><style>.cls-1{stroke:#000;stroke-miterlimit:10;}.cls-2{fill:#fff;}.cls-3{opacity:0.11;}.cls-4{opacity:0.03;}.cls-5{opacity:0.22;}.cls-6{opacity:0.74;}.cls-7{opacity:0.72;}.cls-8{opacity:0.28;}</style></defs><g id="Layer_2" data-name="Layer 2"><g id="Layer_11" data-name="Layer 11"><circle cx="27.56" cy="137.75" r="0.84"/><line class="cls-1" x1="27.38" y1="64.11" x2="27.38" y2="121.68"/><path d="M27.42,71.79,19.1,82a.92.92,0,0,0,0,1.17l8.35,10.15"/><path d="M27.45,93.3l8.31-10.16a1,1,0,0,0,0-1.21L27.42,71.79"/><polygon class="cls-2" points="34.03 82.72 27.45 90.78 20.83 82.74 27.42 74.68 34.03 82.72"/><polygon points="27.42 86.89 30.8 82.07 27.4 77.48 24.01 82.09 27.42 86.89"/><path d="M27.39,98.32l-6.46,8a.72.72,0,0,0,0,.92l6.56,7.9"/><path d="M27.45,115.13,34,107.19a.75.75,0,0,0,0-.94l-6.51-7.94"/><polygon class="cls-2" points="32.61 106.86 27.45 113.16 22.29 106.87 27.45 100.57 32.61 106.86"/><polygon points="27.45 110.15 29.97 106.6 27.46 103.19 24.94 106.59 27.45 110.15"/><path d="M27.4,120.25l-4.1,5.07a.47.47,0,0,0,0,.59l4.17,5"/><path d="M27.47,130.93l4.1-5.07a.48.48,0,0,0,0-.6l-4.17-5"/><polygon class="cls-2" points="30.71 125.66 27.46 129.68 24.16 125.7 27.41 121.68 30.71 125.66"/><polygon points="27.37 127.78 28.94 125.62 27.43 123.51 25.86 125.58 27.37 127.78"/><path d="M26.88,71.57c.1.1,1,.06,1,0,0-2.58,0-3.76,0-4.93a7.22,7.22,0,0,0-.21-2.32c-.2-.3-.71-.08-.82.36"/><path class="cls-3" d="M21.94,23.36a5.56,5.56,0,0,1-.2,1.08c-.06.24-.12.49-.16.74a3.91,3.91,0,0,0,.16,1.59c0,.14.07.27.1.41a6,6,0,0,1-.15,3,6.21,6.21,0,0,0,1.92-.76,7.15,7.15,0,0,1,1.78-.75,5.16,5.16,0,0,1,5.34,2.09l.08.12c.5.73.87,1.26,1.8,1.17.33,0,.66-.12,1-.19A6.23,6.23,0,0,1,35,31.66a5.89,5.89,0,0,1,1.4.16,11.42,11.42,0,0,1,2.92-5.68,6.4,6.4,0,0,1,.54-.44,3.11,3.11,0,0,1-.56-1.86,11.42,11.42,0,0,1,.06-1.19,5.27,5.27,0,0,0-.16-2.37,4.35,4.35,0,0,0-1.81-2.16,5.35,5.35,0,0,0-2.58-.57h0l-.43,0a5.44,5.44,0,0,1-.6-.08,3.87,3.87,0,0,1-2-1.08,3.88,3.88,0,0,0-2.57-1.2,3.92,3.92,0,0,0-2.57.89,3,3,0,0,1-2.66.45,2.39,2.39,0,0,0-1.65,0,2.56,2.56,0,0,0-.95,1,8.43,8.43,0,0,0-.65,1.59c-.14.4-.27.81-.45,1.2A3.27,3.27,0,0,1,21.94,23.36Z"/><path class="cls-3" d="M51.55,22.85h0a1.93,1.93,0,0,0,.24-1.2,1.59,1.59,0,0,0-1.88-1,2.14,2.14,0,0,0-.86.63,2.41,2.41,0,0,1-.89.7,6.08,6.08,0,0,1-1.44.36,8.25,8.25,0,0,0-1.12.24,4.82,4.82,0,0,0-2.23,1.65,6.87,6.87,0,0,1-2.13,1.59,6.64,6.64,0,0,0-2.07,1.72,12.13,12.13,0,0,0-2,4.59,4.21,4.21,0,0,1,1.92,1.53q.26-.51.48-1c1.35-2.91,2.74-5.91,6.22-6.24a3.31,3.31,0,0,1,.77,0,2,2,0,0,0,1.05-.05l.41-.2a5.44,5.44,0,0,1,.92-.4c.74-.23,4.07,1.79,4.76,1.92a4.09,4.09,0,0,0,.11-3,6.22,6.22,0,0,0-.71-2.15c-.42-.93-.59-1-.59-1"/><path class="cls-3" d="M5.75,26.54a4.34,4.34,0,0,1-.06.64,3.08,3.08,0,0,0,0,1.32c.11.39.43.56.81.76l.21.11a5.06,5.06,0,0,1,1,.72,10.56,10.56,0,0,1,2.16,3.55c.15.35.31.7.47,1A6.94,6.94,0,0,0,12,37.1a5.24,5.24,0,0,0,1.29.82,4.87,4.87,0,0,0,.72.28l.09,0,.15,0,0,0c0-.08,0-.16,0-.23a3.79,3.79,0,0,0-.11-1.89c-.1-.25-.22-.49-.34-.73a5.66,5.66,0,0,1-.55-1.44,3.92,3.92,0,0,1,3.23-4.59,5.47,5.47,0,0,1,2.73.42,8.6,8.6,0,0,0,1.46.41,5.23,5.23,0,0,0,.28-2.1,6,6,0,0,0-.2-1.12c-.06-.24-.11-.47-.15-.7a4.44,4.44,0,0,1,.17-1.82A4,4,0,0,0,21,22.7a3,3,0,0,0-1.54-1.84l-.12-.07-.18-.09a8.42,8.42,0,0,0-1-.36,4.87,4.87,0,0,1-1.83-.89,4.26,4.26,0,0,0-2.49-1.18,3.92,3.92,0,0,0-2.5.64,5.38,5.38,0,0,0-.82.75,4,4,0,0,1-1.38,1.05c-.24.09-.48.16-.71.23a3.2,3.2,0,0,0-1.74.94A6.56,6.56,0,0,0,6,23.17,6,6,0,0,1,5,24.75a1,1,0,0,1,.2.15A2,2,0,0,1,5.75,26.54Z"/><path class="cls-4" d="M11.62,37.28a12.45,12.45,0,0,1-1.78-2.84c-.78-1.55-1.59-3.22-1.4-4.94a1.26,1.26,0,0,1,.28-.75c.34-.36.93-.28,1.42-.41a2.46,2.46,0,0,0,1.46-2,10.56,10.56,0,0,1,.59-2.51,1.69,1.69,0,0,1,2.11-1c.54.29.77.95,1.25,1.34a1.57,1.57,0,0,0,2.06-.14c.27-.29.45-.7.82-.86a2.92,2.92,0,0,1,1.14,0,2.41,2.41,0,0,0,1.88-1.41,7.72,7.72,0,0,1,1.32-2.06,2.51,2.51,0,0,1,3-.14c.7.51,1.14,1.38,1.95,1.67,1.27.45,2.45-.75,3.65-1.34s3.26-.35,3.89,1c.36.78.32,1.9,1.11,2.26.48.22,1.1,0,1.56.31,1.08.66-.18,2.62.68,3.55a1.9,1.9,0,0,0,1.91.22c3.93-1.06,7.74-3.5,11.76-2.81-.85.76-1,2-1.37,3.07a18.77,18.77,0,0,1-1.87,3.82c-2.23,3.77-4.66,7.75-8.6,9.68a22.58,22.58,0,0,1-6.08,1.68c-3.29.59-6.7,1.17-9.92.29C22.06,42.37,20,41,17.76,39.91,15.79,39,13.14,38.92,11.62,37.28Z"/><path class="cls-5" d="M48.34,26.89a2.55,2.55,0,0,1-.79.35,2.22,2.22,0,0,1-.89,0,2.65,2.65,0,0,0-.56,0,4.6,4.6,0,0,0-2.77,1.12,12.28,12.28,0,0,0-3,4.64c-.16.36-.31.7-.47,1a14.13,14.13,0,0,1-1.64,2.78,16.8,16.8,0,0,1-1.86,1.91l-.15.15a13.22,13.22,0,0,0-2,2.08A5.12,5.12,0,0,0,33.37,44c0,.44,0,.89.07,1.33A7.74,7.74,0,0,1,33,49.44l1.14-.11A7.56,7.56,0,0,0,36,49a1.24,1.24,0,0,0,.28-.11,1.71,1.71,0,0,1,.66-.18l.08,0,.09,0c2.4-.12,4.58-1.67,6.51-3a36,36,0,0,0,5.6-5,13.43,13.43,0,0,0,3.45-5.53,6.64,6.64,0,0,0,0-3.22l-.13-.36a1.91,1.91,0,0,1-.19-.88,2,2,0,0,1,.3-.75,1.77,1.77,0,0,0,.21-.41,2.32,2.32,0,0,0-.82-2.66,3.41,3.41,0,0,0-3.28-.23A3.58,3.58,0,0,0,48.34,26.89Z"/><path class="cls-6" d="M33.81,50.3a13.63,13.63,0,0,0-2.18.31,12.24,12.24,0,0,0-2.9,1.17,12.63,12.63,0,0,0-1.3.85A4.59,4.59,0,0,0,27,53a4.32,4.32,0,0,1-.77.58.44.44,0,0,1-.54-.09.36.36,0,0,1-.05-.47,1.4,1.4,0,0,1,.12-.18c-.67-1.52-2.41-2.13-3.94-2.67l-.62-.22a8,8,0,0,1-3.83-2.74,4.52,4.52,0,0,0,1.39,3.71,8.4,8.4,0,0,0,.82.6c1,.65,2.15,1.46,2,2.6a.3.3,0,0,1-.2.22.25.25,0,0,1-.27-.08,4,4,0,0,1-.35-.46l-.13-.18c0,.16,0,.32,0,.48v0A20.73,20.73,0,0,0,21.44,59a7.63,7.63,0,0,0,2.94,4.14,4.8,4.8,0,0,0,4.79.35A6.56,6.56,0,0,0,32,59a43.77,43.77,0,0,0,.63-4.39v0c0-.21,0-.42.07-.62a2.14,2.14,0,0,0-.56.75.37.37,0,0,1-.42.21h0a.4.4,0,0,1-.29-.45c.2-1.1,1.19-1.57,2.07-2,.24-.11.46-.22.67-.34a6,6,0,0,0,2-2.18,6.43,6.43,0,0,1-1.26.27Z"/><path class="cls-5" d="M19.52,48.16a10.15,10.15,0,0,0,2.74,1.25l.34.12a6.56,6.56,0,0,1,3.8,2.65A12,12,0,0,1,28,51.12l.07,0a12.64,12.64,0,0,1,2.83-1.23,9.74,9.74,0,0,1,1.18-.27c.84-1.27.72-2.72.6-4.25A8.32,8.32,0,0,1,33,41.52a10.21,10.21,0,0,1,2.78-3.44,17.44,17.44,0,0,0,1.71-1.73,11,11,0,0,0,1.16-1.8,4,4,0,0,0-3.47-2,6.13,6.13,0,0,0-1.37.2,4.72,4.72,0,0,1-2,.17,2.09,2.09,0,0,1-.89-.42,4.24,4.24,0,0,1-.81-1,4.68,4.68,0,0,0-.53-.71,4.21,4.21,0,0,0-1.57-1,4.49,4.49,0,0,0-3.93.44,5.24,5.24,0,0,1-3.94.77c-.33-.09-.66-.19-1-.3A4.22,4.22,0,0,0,16,30.5a3,3,0,0,0-1.46,3.94c.1.21.2.43.31.64a5.52,5.52,0,0,1,.53,1.33,4.86,4.86,0,0,1,0,1.66c0,.12,0,.24,0,.36a5.43,5.43,0,0,0,1.09,3.39l-.1,0,.1,0c.13.23.27.46.39.69a5,5,0,0,1,.77,3.32l0,0A6.25,6.25,0,0,0,19.52,48.16Z"/><path class="cls-5" d="M3,37.66a20,20,0,0,0,3.4,3l.9.68a31,31,0,0,1,3,2.75c1.83,1.84,3.72,3.74,6.27,4.46A5.26,5.26,0,0,1,16.74,46c.25-1.36-.48-2.55-1.18-3.7-.26-.42-.52-.85-.74-1.28a5.09,5.09,0,0,1-.54-1.9l-.09,0a3.44,3.44,0,0,1-.64-.2l-.14,0a6.42,6.42,0,0,1-1.33-.68A9.46,9.46,0,0,1,9,33.81l-.19-.43A9.15,9.15,0,0,0,7.35,31a4.27,4.27,0,0,0-1.12-.88L6.06,30a2.91,2.91,0,0,1-.86-.6,2.45,2.45,0,0,1-.37-2.12h0a3.12,3.12,0,0,0,0-1.46.68.68,0,0,0-.51-.48c-.51-.07-1.26.5-1.6.93a8.33,8.33,0,0,0-1.17,2.1A9.55,9.55,0,0,0,1,33.21,8.84,8.84,0,0,0,3,37.66Z"/><path d="M1.9,37.76a18,18,0,0,0,3.92,3.57l.15.11a29.79,29.79,0,0,1,2.59,2.12c.45.43.9.88,1.34,1.34s.76.77,1.15,1.15c1.41,1.36,3.33,3,5.65,3.22a5.06,5.06,0,0,0,.77,1.54,7.67,7.67,0,0,0,1.88,1.68l.07,0,.54.4c-.23,3.5.21,8.16,3.53,10.65a6,6,0,0,0,5.06,1.1A5.9,5.9,0,0,0,32.32,61a22,22,0,0,0,1.18-6.1c.06-.53.11-1.08.17-1.6l.25-.13h0a6.86,6.86,0,0,0,1.33-.79,9.64,9.64,0,0,0,2.08-2.75c2.24-.11,4.28-1.48,5.93-2.59a36.29,36.29,0,0,0,5.46-4.5A19.4,19.4,0,0,0,53,36.94a8.6,8.6,0,0,0,.78-3,6.57,6.57,0,0,0-.09-1.67h0a5.62,5.62,0,0,0-.16-.57,1.68,1.68,0,0,1-.15-1.11c0-.12.11-.23.16-.34a2.91,2.91,0,0,0,.33-.87,2.31,2.31,0,0,0,0-.46l0,0c1.57-1.61,1-4,.11-6.28a4.81,4.81,0,0,0-1.62-2.36,3,3,0,0,0-2.68-.47,2.77,2.77,0,0,0-1,.55,2.46,2.46,0,0,0-.68.72,2.07,2.07,0,0,1-.93.33h0a8.65,8.65,0,0,0-2.78.83A5.23,5.23,0,0,0,43,23.42a6.13,6.13,0,0,1-1.07,1c-.33.22-.68.42-1,.59l-.06,0-.37.22a4.32,4.32,0,0,1-.28-2.65l0-.27a5,5,0,0,0-5.09-5.73h-.3a4.35,4.35,0,0,1-1.57-.25,3.47,3.47,0,0,1-1-.74,4.91,4.91,0,0,0-.48-.43,4.37,4.37,0,0,0-1.9-.88c-.22,0-.44-.07-.67-.09a4.39,4.39,0,0,0-3,1,2.71,2.71,0,0,1-.83.49,2.72,2.72,0,0,1-1.29-.09,5,5,0,0,0-.56-.11,2.73,2.73,0,0,0-2.68,1.11,7.3,7.3,0,0,0-1,2.14c-.13.39-.26.79-.43,1.17a9.37,9.37,0,0,0-1.13-.39,4,4,0,0,1-1.73-1,4.63,4.63,0,0,0-1.3-.79,4.71,4.71,0,0,0-2.61-.23,4.43,4.43,0,0,0-2.32,1.17q-.2.19-.39.42A2.78,2.78,0,0,1,9,19.9a6.34,6.34,0,0,1-.87.29c-.21.06-.46.13-.69.22a3.71,3.71,0,0,0-2,2c-.07.15-.14.3-.2.45a4.94,4.94,0,0,1-1,1.62,2.2,2.2,0,0,0-1.12.21C1.78,25.38,1,27.18.5,28.57a10.3,10.3,0,0,0-.37,4.81A10,10,0,0,0,1.9,37.76Zm15.63,8.07a5,5,0,0,0-.77-3.32c-.12-.23-.26-.46-.39-.69l-.1,0,.1,0a5.43,5.43,0,0,1-1.09-3.39c0-.12,0-.24,0-.36a4.86,4.86,0,0,0,0-1.66,5.52,5.52,0,0,0-.53-1.33c-.11-.21-.21-.43-.31-.64A3,3,0,0,1,16,30.5a4.22,4.22,0,0,1,3.21.19c.32.11.65.21,1,.3a5.24,5.24,0,0,0,3.94-.77A4.49,4.49,0,0,1,28,29.78a4.21,4.21,0,0,1,1.57,1,4.68,4.68,0,0,1,.53.71,4.24,4.24,0,0,0,.81,1,2.09,2.09,0,0,0,.89.42,4.72,4.72,0,0,0,2-.17,6.13,6.13,0,0,1,1.37-.2,4,4,0,0,1,3.47,2,11,11,0,0,1-1.16,1.8,17.44,17.44,0,0,1-1.71,1.73A10.21,10.21,0,0,0,33,41.52a8.32,8.32,0,0,0-.29,3.81c.12,1.53.24,3-.6,4.25a9.74,9.74,0,0,0-1.18.27,12.64,12.64,0,0,0-2.83,1.23l-.07,0a12,12,0,0,0-1.6,1.06,6.56,6.56,0,0,0-3.8-2.65l-.34-.12a10.15,10.15,0,0,1-2.74-1.25,6.25,6.25,0,0,1-2-2.3ZM34.1,52.09c-.21.12-.43.23-.67.34-.88.41-1.87.88-2.07,2a.4.4,0,0,0,.29.45h0a.37.37,0,0,0,.42-.21,2.14,2.14,0,0,1,.56-.75c0,.2-.05.41-.07.62v0A43.77,43.77,0,0,1,32,59a6.56,6.56,0,0,1-2.8,4.5,4.8,4.8,0,0,1-4.79-.35A7.63,7.63,0,0,1,21.44,59a20.73,20.73,0,0,1-.78-4.82v0c0-.16,0-.32,0-.48l.13.18a4,4,0,0,0,.35.46.25.25,0,0,0,.27.08.3.3,0,0,0,.2-.22c.18-1.14-1-2-2-2.6a8.4,8.4,0,0,1-.82-.6,4.52,4.52,0,0,1-1.39-3.71,8,8,0,0,0,3.83,2.74l.62.22c1.53.54,3.27,1.15,3.94,2.67a1.4,1.4,0,0,0-.12.18.36.36,0,0,0,.05.47.44.44,0,0,0,.54.09A4.32,4.32,0,0,0,27,53a4.59,4.59,0,0,1,.41-.36,12.63,12.63,0,0,1,1.3-.85,12.24,12.24,0,0,1,2.9-1.17,13.63,13.63,0,0,1,2.18-.31l1.07-.12a6.43,6.43,0,0,0,1.26-.27A6,6,0,0,1,34.1,52.09ZM52.68,21.76a10.6,10.6,0,0,1,1.14,3,4.47,4.47,0,0,1-.13,2.89,3.3,3.3,0,0,0-1.8-1.83h0A7.87,7.87,0,0,0,52,24.65,5,5,0,0,1,52.26,23a2.49,2.49,0,0,0,.24-1.52Zm-.58,5.12a2.32,2.32,0,0,1,.82,2.66,1.77,1.77,0,0,1-.21.41,2,2,0,0,0-.3.75,1.91,1.91,0,0,0,.19.88l.13.36a6.64,6.64,0,0,1,0,3.22,13.43,13.43,0,0,1-3.45,5.53,36,36,0,0,1-5.6,5c-1.93,1.37-4.11,2.92-6.51,3l-.09,0-.08,0a1.71,1.71,0,0,0-.66.18A1.24,1.24,0,0,1,36,49a7.56,7.56,0,0,1-1.85.31L33,49.44a7.74,7.74,0,0,0,.42-4.11c0-.44-.06-.89-.07-1.33a5.12,5.12,0,0,1,.89-3.12,13.22,13.22,0,0,1,2-2.08l.15-.15a16.8,16.8,0,0,0,1.86-1.91A14.13,14.13,0,0,0,39.86,34c.16-.33.31-.67.47-1a12.28,12.28,0,0,1,3-4.64,4.6,4.6,0,0,1,2.77-1.12,2.65,2.65,0,0,1,.56,0,2.22,2.22,0,0,0,.89,0,2.55,2.55,0,0,0,.79-.35,3.58,3.58,0,0,1,.48-.24A3.41,3.41,0,0,1,52.1,26.88Zm-10.86-1.1a6.87,6.87,0,0,0,2.13-1.59,4.82,4.82,0,0,1,2.23-1.65,8.25,8.25,0,0,1,1.12-.24,6.08,6.08,0,0,0,1.44-.36,2.41,2.41,0,0,0,.89-.7,2.14,2.14,0,0,1,.86-.63,1.59,1.59,0,0,1,1.88,1,1.93,1.93,0,0,1-.24,1.2h0l.1,0-.1,0a3.91,3.91,0,0,0-.29.83c0,.3,0,.6-.06.89a5.77,5.77,0,0,1-.09,1,4.54,4.54,0,0,0-2.18.15,5.44,5.44,0,0,0-.92.4l-.41.2a2,2,0,0,1-1.05.05,3.31,3.31,0,0,0-.77,0c-3.48.33-4.87,3.33-6.22,6.24q-.23.51-.48,1a4.21,4.21,0,0,0-1.92-1.53,12.13,12.13,0,0,1,2-4.59A6.64,6.64,0,0,1,41.24,25.78ZM20.65,19.13a8.43,8.43,0,0,1,.65-1.59,2.56,2.56,0,0,1,.95-1,2.39,2.39,0,0,1,1.65,0,3,3,0,0,0,2.66-.45,3.92,3.92,0,0,1,2.57-.89,3.88,3.88,0,0,1,2.57,1.2,3.87,3.87,0,0,0,2,1.08,5.44,5.44,0,0,0,.6.08l.43,0h0a5.35,5.35,0,0,1,2.58.57,4.35,4.35,0,0,1,1.81,2.16,5.27,5.27,0,0,1,.16,2.37,11.42,11.42,0,0,0-.06,1.19,3.11,3.11,0,0,0,.56,1.86,6.4,6.4,0,0,0-.54.44,11.42,11.42,0,0,0-2.92,5.68,5.89,5.89,0,0,0-1.4-.16,6.23,6.23,0,0,0-1.36.22c-.32.07-.65.15-1,.19-.93.09-1.3-.44-1.8-1.17l-.08-.12a5.16,5.16,0,0,0-5.34-2.09,7.15,7.15,0,0,0-1.78.75,6.21,6.21,0,0,1-1.92.76,6,6,0,0,0,.15-3c0-.14-.06-.27-.1-.41a3.91,3.91,0,0,1-.16-1.59c0-.25.1-.5.16-.74a5.56,5.56,0,0,0,.2-1.08,3.27,3.27,0,0,0-1.74-3C20.38,19.94,20.51,19.53,20.65,19.13ZM6,23.17a6.56,6.56,0,0,1,.71-1.29,3.2,3.2,0,0,1,1.74-.94c.23-.07.47-.14.71-.23a4,4,0,0,0,1.38-1.05,5.38,5.38,0,0,1,.82-.75,3.92,3.92,0,0,1,2.5-.64,4.26,4.26,0,0,1,2.49,1.18,4.87,4.87,0,0,0,1.83.89,8.42,8.42,0,0,1,1,.36l.18.09.12.07A3,3,0,0,1,21,22.7a4,4,0,0,1-.15,1.74,4.44,4.44,0,0,0-.17,1.82c0,.23.09.46.15.7a6,6,0,0,1,.2,1.12,5.23,5.23,0,0,1-.28,2.1,8.6,8.6,0,0,1-1.46-.41,5.47,5.47,0,0,0-2.73-.42,3.92,3.92,0,0,0-3.23,4.59,5.66,5.66,0,0,0,.55,1.44c.12.24.24.48.34.73A3.79,3.79,0,0,1,14.34,38c0,.07,0,.15,0,.23l0,0-.15,0-.09,0a4.87,4.87,0,0,1-.72-.28A5.24,5.24,0,0,1,12,37.1a6.94,6.94,0,0,1-1.71-2.43c-.16-.33-.32-.68-.47-1A10.56,10.56,0,0,0,7.7,30.09a5.06,5.06,0,0,0-1-.72l-.21-.11c-.38-.2-.7-.37-.81-.76a3.08,3.08,0,0,1,0-1.32,4.34,4.34,0,0,0,.06-.64,2,2,0,0,0-.53-1.64,1,1,0,0,0-.2-.15A6,6,0,0,0,6,23.17ZM1.51,28.39a8.33,8.33,0,0,1,1.17-2.1c.34-.43,1.09-1,1.6-.93a.68.68,0,0,1,.51.48,3.12,3.12,0,0,1,0,1.46h0a2.45,2.45,0,0,0,.37,2.12,2.91,2.91,0,0,0,.86.6l.17.09A4.27,4.27,0,0,1,7.35,31,9.15,9.15,0,0,1,8.8,33.38l.19.43a9.46,9.46,0,0,0,3.09,4.4,6.42,6.42,0,0,0,1.33.68l.14,0a3.44,3.44,0,0,0,.64.2l.09,0a5.09,5.09,0,0,0,.54,1.9c.22.43.48.86.74,1.28.7,1.15,1.43,2.34,1.18,3.7a5.26,5.26,0,0,0-.22,2.46C14,47.78,12.08,45.88,10.25,44a31,31,0,0,0-3-2.75l-.9-.68a20,20,0,0,1-3.4-3,8.84,8.84,0,0,1-2-4.45A9.55,9.55,0,0,1,1.51,28.39Z"/><path d="M31.69,32c3.44-4.65,6.76-9.58,12-12.32.22-.11,0-.44-.19-.37C40.94,20.1,38.91,22,37.11,24a44.12,44.12,0,0,0-6,7.69C30.92,32,31.46,32.32,31.69,32Z"/><path class="cls-7" d="M43.25,19.31a1.39,1.39,0,0,0,2.32.55,1.08,1.08,0,0,0,.22-.82,1.35,1.35,0,0,0-1.47-1.24A1.4,1.4,0,0,0,43.25,19.31Z"/><path d="M29.66,30.1c-.15.42.48.73.63.3a49.25,49.25,0,0,1,4.28-9.12,75.53,75.53,0,0,1,6.32-8.45c.15-.18-.1-.38-.27-.23C35.52,17.15,31.92,23.73,29.66,30.1Z"/><path class="cls-7" d="M40,12.66a1.39,1.39,0,0,0,2.32.56,1.15,1.15,0,0,0,.23-.82A1.36,1.36,0,0,0,41,11.15,1.41,1.41,0,0,0,40,12.66Z"/><path d="M27.47,28.93c0,.51.74.48.79,0a40.12,40.12,0,0,1,1.85-9.08,69.8,69.8,0,0,1,4-8.38c.09-.19-.16-.42-.32-.24a25.23,25.23,0,0,0-4.35,8.17A33.47,33.47,0,0,0,27.47,28.93Z"/><path class="cls-7" d="M32.64,11.33a1.38,1.38,0,0,0,2.38.12,1.14,1.14,0,0,0,.07-.85,1.37,1.37,0,0,0-1.69-.95A1.41,1.41,0,0,0,32.64,11.33Z"/><path d="M24,9.39c.13,3.28.74,6.55,1,9.83s.71,6.78.08,10a.39.39,0,0,0,.76.15c.76-3.16.23-6.73,0-9.94A55.81,55.81,0,0,0,24.47,9.3C24.4,9,24,9.14,24,9.39Z"/><path class="cls-7" d="M23,10.14a1.39,1.39,0,0,0,2.39,0,1.14,1.14,0,0,0,0-.85,1.35,1.35,0,0,0-1.73-.85A1.41,1.41,0,0,0,23,10.14Z"/><path d="M15.83,12c1.15,2.93,2.71,5.69,3.83,8.65a88.79,88.79,0,0,1,2.75,9.49.38.38,0,0,0,.74-.13,43.32,43.32,0,0,0-2.64-9.46A31.62,31.62,0,0,0,16,11.83C15.94,11.73,15.78,11.84,15.83,12Z"/><path class="cls-7" d="M15.23,12.74a1.38,1.38,0,0,0,2.37-.26,1.12,1.12,0,0,0-.06-.84A1.36,1.36,0,0,0,15.73,11,1.4,1.4,0,0,0,15.23,12.74Z"/><path d="M9.32,13.92c1.56,2.75,3.53,5.29,5.26,7.94s3.92,5.43,4.78,8.45c.11.39.78.35.73-.09a9.61,9.61,0,0,0-1.62-3.71c-.93-1.53-1.9-3.05-2.89-4.55C13.77,19.2,11.93,16,9.5,13.78A.12.12,0,0,0,9.32,13.92Z"/><path class="cls-7" d="M8.44,15.24a1.38,1.38,0,0,0,2.38,0,1.09,1.09,0,0,0,0-.85,1.35,1.35,0,0,0-1.73-.85A1.41,1.41,0,0,0,8.44,15.24Z"/><path class="cls-8" d="M40.84,43.53a31.24,31.24,0,0,0,4.65-5.61c1.63-2.69,2.2-5.77,4.74-7.88a.06.06,0,0,0-.07-.1c-2.23,1.21-3,3.31-4.06,5.51A27.39,27.39,0,0,1,40.23,43C39.86,43.36,40.48,43.91,40.84,43.53Z"/><path class="cls-8" d="M35.66,48.63c1-1.49,3.08-2.15,3.71-3.85a.29.29,0,0,0-.47-.32c-1.2,1.22-3.53,2.11-3.92,3.94C34.89,48.83,35.45,49,35.66,48.63Z"/><path class="cls-8" d="M41.32,45.62c4.75-2.15,9.1-6.8,9.57-12.2,0-.09-.12-.15-.16-.05-2.17,5-4.73,9.06-9.6,11.85C40.92,45.35,41.09,45.72,41.32,45.62Z"/><path class="cls-8" d="M35.71,44.77a35.1,35.1,0,0,1,4.82-7.69,23.72,23.72,0,0,0,4.23-6.55.16.16,0,0,0-.29-.15,55.35,55.35,0,0,1-5.68,7.76c-1.54,1.89-3.15,4-3.63,6.44A.29.29,0,0,0,35.71,44.77Z"/><path class="cls-8" d="M27.91,48.25c0,.57.83.49.87-.06.19-3.07.22-6.17,1.7-9,1.09-2,3.29-3.15,4.21-5.25.08-.19-.18-.4-.31-.22-1.64,2.34-4,3.55-5.11,6.3A23,23,0,0,0,27.91,48.25Z"/><path class="cls-8" d="M25.12,38.61A91.19,91.19,0,0,1,24.7,48.8c-.05.52.74.69.8.16A66.7,66.7,0,0,0,26,41.22c0-3.3-.4-6.63,1.08-9.7a.2.2,0,0,0-.35-.18C25.25,33.59,25.1,36,25.12,38.61Z"/><path class="cls-8" d="M18.27,32.94C19.81,38,19,43.28,22,48c.29.45,1,0,.69-.46A20.83,20.83,0,0,1,20,38.7c-.2-2.06-.22-4.14-1.48-5.88A.13.13,0,0,0,18.27,32.94Z"/><path class="cls-8" d="M3.85,32.14A10,10,0,0,0,5.28,34a12.59,12.59,0,0,1,2.36,3.79,12,12,0,0,0,2.49,4.1c1.39,1.36,2.94,2.49,4.25,3.93.25.28.67-.12.48-.41-1.89-2.9-5-4.08-6.37-7.47a12.92,12.92,0,0,0-1.71-3.35c-1.41-1.78-3.13-2.77-3-5.39,0-.1-.16-.13-.2,0A3.22,3.22,0,0,0,3.85,32.14Z"/><path d="M29,5.24a.37.37,0,0,0-.37.37.37.37,0,1,0,.74,0A.37.37,0,0,0,29,5.24Z"/><path d="M35.14,6.82a.39.39,0,1,0,.39.39A.4.4,0,0,0,35.14,6.82Z"/><path d="M19.49,6.71a.43.43,0,1,0,.42.43A.44.44,0,0,0,19.49,6.71Z"/><circle cx="27.45" cy="133" r="0.84"/><circle cx="27.51" cy="135.43" r="0.84"/><path d="M23.87,4.87a.37.37,0,0,0,0,.74.37.37,0,0,0,0-.74Z"/><path d="M8.42,10.39a.41.41,0,0,0-.43.42.43.43,0,1,0,.43-.42Z"/><path d="M27.13,2.67a.5.5,0,0,0,0,1,.5.5,0,0,0,0-1Z"/><path d="M45.27,6.29a.53.53,0,0,0-.53.53.53.53,0,1,0,1.06,0A.53.53,0,0,0,45.27,6.29Z"/><path d="M11.49,5.51a.58.58,0,0,0-.57.57.57.57,0,0,0,.57.58.57.57,0,0,0,.58-.57A.58.58,0,0,0,11.49,5.51Z"/><path d="M37.67,3.34a.51.51,0,0,0-.51.5.5.5,0,0,0,.51.5.5.5,0,0,0,0-1Z"/><path d="M4.45,9a.57.57,0,0,0-.58.57.57.57,0,0,0,.57.58A.58.58,0,0,0,4.45,9Z"/><path d="M50.1,13.42a.53.53,0,0,0-.53.53.52.52,0,0,0,.52.53.53.53,0,1,0,0-1.06Z"/><path d="M27,0a.64.64,0,0,0-.64.64.64.64,0,1,0,1.28,0A.64.64,0,0,0,27,0Z"/><path d="M26.71,7.21a.19.19,0,0,0-.19.19.2.2,0,1,0,.19-.19Z"/><path d="M38.37,9.41a.19.19,0,0,0-.2.19.19.19,0,0,0,.19.19.19.19,0,0,0,.2-.19A.19.19,0,0,0,38.37,9.41Z"/><path d="M44.32,14.78a.19.19,0,1,0,0,.38.19.19,0,1,0,0-.38Z"/><path d="M16.18,8.9a.19.19,0,1,0,.19.19A.18.18,0,0,0,16.18,8.9Z"/><path d="M5,14.78a.19.19,0,1,0,.19.19A.18.18,0,0,0,5,14.78Z"/><path d="M16.79,2.6a.57.57,0,0,0-.58.57.58.58,0,1,0,1.15,0A.56.56,0,0,0,16.79,2.6Z"/></g></g></svg>