<svg xmlns="http://www.w3.org/2000/svg" viewBox="0 0 113.72 176.67"><defs><style>.cls-1{stroke:#000;stroke-miterlimit:10;}.cls-2{fill:#fff;}</style></defs><g id="Layer_2" data-name="Layer 2"><g id="Layer_11" data-name="Layer 11"><path d="M57.07,0l-.53,0a13.28,13.28,0,0,0-13.2,13.32,13.14,13.14,0,0,0,1.48,6L24.44,31.22A13.25,13.25,0,1,0,12.81,51.55l.11,23.79A13.25,13.25,0,1,0,24.76,95.55l20.6,11.76a13.24,13.24,0,0,0,11.35,19.35l-.11,4.47m1,0,.13-4.53a13.44,13.44,0,0,0,12.67-13.26,13.11,13.11,0,0,0-1.57-6.17l20.49-12a13.25,13.25,0,1,0,11.6-20.34l-.12-23.69A13.25,13.25,0,1,0,89,30.93L68.44,19.2a13.21,13.21,0,0,0,1.42-6C69.83,6.17,63.94.43,57,0M56.6,131.13c0,1.34-.05,3.17-.08,6.14l-5.41,7.24a.5.5,0,0,0,0,.57l5.38,7.71-.11,18.81a.49.49,0,0,0,1,0l.11-18.91,5.41-7.55a.48.48,0,0,0,0-.57l-5.37-7.37c0-2.93.06-4.74.08-6.07m4.29,13.72-4.92,6.89-4.85-6.93,4.91-6.6ZM100.15,25.67a12.28,12.28,0,0,1,.62,24.55l-.06-12.33a.5.5,0,0,0-.25-.42L89.84,31.41A12.27,12.27,0,0,1,100.15,25.67ZM74.54,88.09A13.06,13.06,0,0,1,72.35,87l1.94-3.39,12.84,2.28a12.63,12.63,0,0,1-3.61,2.14Zm8,.29a12.46,12.46,0,0,1-7.09,0Zm-12.7.06h1.29L69.76,90.9A13.84,13.84,0,0,0,69.91,89C69.91,88.78,69.89,88.61,69.88,88.44Zm0-.32a12.91,12.91,0,0,0-.7-3.42,12.49,12.49,0,0,0,2.75,2.43l-.56,1Zm-4.28,10.1a12.88,12.88,0,0,1-3.88,2.49L66,88.46l3.61,0c0,.18,0,.35,0,.52a12.64,12.64,0,0,1-.31,2.77ZM68.93,93a12.5,12.5,0,0,1-2.44,4.27Zm-18.16,9.92,5.58,9.54L46.69,107A12.37,12.37,0,0,1,50.77,102.92Zm-.21-1L49,99.15a12.85,12.85,0,0,0,3.36,1.92A14.06,14.06,0,0,0,50.56,101.91Zm.49.84a12.36,12.36,0,0,1,1.81-.84l3.52,10Zm-2.61-4.47-3.74-6.4a12.26,12.26,0,0,1-.33-2.8c0-.17,0-.34,0-.51l3.76,0,4.32,12.24A12.84,12.84,0,0,1,48.44,98.28Zm-.93-1a12.63,12.63,0,0,1-2.43-4.17ZM44.22,91l-1.44-2.47h1.29c0,.17,0,.34,0,.52A14,14,0,0,0,44.22,91Zm-.14-2.8H42.59l-.51-.87a13.49,13.49,0,0,0,2.51-2.07A12.93,12.93,0,0,0,44.08,88.24ZM31,88.31a12.68,12.68,0,0,1-3.82-2.18l12.48-2.32,2,3.46a13,13,0,0,1-2.1,1Zm7.56.28a12.17,12.17,0,0,1-3.26.46A12.58,12.58,0,0,1,32,88.63ZM43.8,38H42.53L44,35.43a12.56,12.56,0,0,0-.21,2.31C43.79,37.83,43.8,37.91,43.8,38Zm0,.32A13,13,0,0,0,45,43a12.77,12.77,0,0,0-3.5-3.13l.89-1.56Zm4-9.52A12.74,12.74,0,0,1,52.06,26L48,38l-3.89,0c0-.09,0-.17,0-.26a13.09,13.09,0,0,1,.43-3.27ZM45,32.94a13.11,13.11,0,0,1,1.61-2.82ZM65.6,28.73l3.27,5.59a12.35,12.35,0,0,1,.46,3.3c0,.08,0,.17,0,.25l-3.75,0L61.35,26A12.61,12.61,0,0,1,65.6,28.73Zm-4.23-3.11a14.17,14.17,0,0,0,1.88-.91l1.81,3.1A12.74,12.74,0,0,0,61.37,25.62Zm5.39,4.46a12.57,12.57,0,0,1,1.58,2.7Zm2.66,5.2,1.51,2.59H69.65c0-.08,0-.17,0-.26A12.87,12.87,0,0,0,69.42,35.28Zm.21,2.92h1.49l.94,1.6a12.93,12.93,0,0,0-3.63,3.36A12.87,12.87,0,0,0,69.63,38.2ZM91.54,48.33l.18-.2a13.69,13.69,0,0,0,1.77,1.24l-1.85,3.24a13.17,13.17,0,0,0,.15-1.9A13.34,13.34,0,0,0,91.54,48.33Zm.81-.95,7-8.18L94,48.52A11.6,11.6,0,0,1,92.35,47.38Zm-.24-.21a11.75,11.75,0,0,1-1.31-1.33,12.49,12.49,0,0,0-.87-1.71l9.43-5.5Zm-.63.74,0,0s0,0,0,0ZM87.42,60a12.79,12.79,0,0,1-2.22,1.65l-2-3.46,8.1-9.53a12.6,12.6,0,0,1,.19,2.05,12.25,12.25,0,0,1-.29,2.72Zm3.41-5.33a12.58,12.58,0,0,1-2.51,4.4Zm1,23.37L91.79,78a13.79,13.79,0,0,0,.12-1.72,13.33,13.33,0,0,0-.43-3.18l2.16,3.7A13.4,13.4,0,0,0,91.86,78Zm2.27-.44,5.35,9.17-7-8A13.44,13.44,0,0,1,94.13,77.6Zm-2.55-1.36a10.76,10.76,0,0,1-.07,1.4L83.16,68.1l1.69-2.95a12.89,12.89,0,0,1,3.84,3.12l2,3.49A12.36,12.36,0,0,1,91.58,76.24ZM89.9,81.88a11.65,11.65,0,0,1,1-1.41A12.14,12.14,0,0,1,90.19,82Zm.14.45a12.48,12.48,0,0,1-1.18,1.78,13.26,13.26,0,0,1,.87-2Zm-1-.94-9.91-5.66v-.59L83,68.39l8.46,9.67c0,.14,0,.28-.07.42A13.43,13.43,0,0,0,89.05,81.39ZM79.33,63.71A12.69,12.69,0,0,1,84.55,65l-1.61,2.83Zm3.44,4.43-3.63,6.35-.06-10.57ZM80.9,63.53a12.71,12.71,0,0,0,4.18-1.43l.58,1-1,1.65A12.65,12.65,0,0,0,80.9,63.53Zm-1.82-.16V63L83,58.45l2,3.37A12.52,12.52,0,0,1,79.08,63.37Zm0-.86L79,51.72l3.76,6.43ZM79,51.07v-.3a0,0,0,0,0,0,0s0,0,0,0v0s0,0,0,0l0,0h0l-.07,0,10-5.83A13.6,13.6,0,0,0,91,47.49c.07.24.14.49.19.74L83,57.89Zm6,13.8.83-1.46L88,67A12.87,12.87,0,0,0,85,64.87Zm.35-2.94a14,14,0,0,0,1.57-1.07l-1.09,1.9Zm4.4-18.07a13.33,13.33,0,0,0-.93-1.3,12,12,0,0,1-.64-2.06l11.16-2.24Zm-1.62-3.68a13,13,0,0,1-.21-2.07l10.78-.06Zm.54,4.31L78.61,50.37l-4.15-7.11,12.11-2.44c.31.25.62.51.91.78A13.56,13.56,0,0,0,88.68,44.49ZM75.81,66.86l2.66-3.14.29,0,0,11.35-.06.12Zm2.89,9.29h-.14l.07-.12ZM44.24,66.5,42.6,63.68l1.68-3a12.82,12.82,0,0,0-.36,3.06A12.55,12.55,0,0,0,44.24,66.5Zm.31,11.84,1.4,4-.13,0-9.71-5.48Zm-7.48-1.66,6.88,0L44.43,78Zm9,6.13,0,0c-.11.18-.22.38-.34.56C45.81,83.19,45.91,83,46,82.81Zm-.7-.39-5.54,1-3.62-6.2Zm.4.25a13.36,13.36,0,0,0-.85,1.84,12.65,12.65,0,0,1-3,2.59L40,83.75Zm-.57,2a12.94,12.94,0,0,0,1.09-1.54L48,88.22l-3.63,0A12.4,12.4,0,0,1,45.15,84.68Zm1.24-2.46h0l.09-.14S46.42,82.17,46.39,82.22Zm-.23-.28-1.24-3.53,2.65.47a13,13,0,0,1-.55,1.9A13.91,13.91,0,0,0,46.16,81.94Zm1.14-1a13.41,13.41,0,0,1,1.4-1.42l1.69,1.94-3.6.67A11.51,11.51,0,0,0,47.3,81Zm1-2,.24.28a12.6,12.6,0,0,0-.91.88c.12-.4.22-.81.3-1.22ZM48,78.21a13.65,13.65,0,0,0,.13-1.58h1.61l.72,1.25a13.12,13.12,0,0,0-1.39.95l-.64-.12Zm-.28-.32-1.08-1.25h1.16A10.52,10.52,0,0,1,47.71,77.89Zm-.06.42a2.17,2.17,0,0,1,0,.25l-2.82-.5-.49-1.41h1.9Zm-3.47-2L43,72.92l2.94,3.4Zm-.34,0-8.19,0-.09-.15.3-.53L42.19,72l.21.25ZM50.43,45.2l-4-.77L56,38.73Zm5.47-5.88-3.51,6.25-1.6-.3Zm-7.29,8a12.67,12.67,0,0,1-2.32-2.58l3.89.75Zm0,.45L49,48l-.71.15ZM36,50.66l9.75-5.81L44.31,49Zm8.24-1.33-.49,1.45-6.89,0Zm-4.87,9.33,1.09,1.89-.65,1.94-.4.16-1-2.86Zm-1.1.78-2.4-6.8,3.32,5.72Zm1.51,5.25.75,2.11-.93,1.66-1-1.22.9-2.67Zm-.23-.43,0-.11.05.15Zm0-1.11-.07-.2a.76.76,0,0,0,.16-.06Zm-.16.5-.17.5a13.39,13.39,0,0,0-2.21-.5,13.08,13.08,0,0,0,2.17-.58Zm-.28.81L38.25,67l-2.68-3.11A12.79,12.79,0,0,1,39.09,64.46Zm-.71,3.14,1,1.16L35.9,75ZM39.61,69,42,71.75l-5.8,3.38Zm.16-.3.85-1.51,1.48,4.2Zm.36-3.87a10.73,10.73,0,0,1,1.13.55l-.57,1ZM40,64.44l-.28-.79.31-.93a11.74,11.74,0,0,0,1.27-.66l.94,1.62-.81,1.44A12.47,12.47,0,0,0,40,64.44Zm.18-2.15.46-1.37.5.86C40.82,62,40.5,62.13,40.17,62.29Zm.38-2.15-1-1.74,2.63-3.07Zm-1.18-2-4-7h.11l6.63,3.79Zm6.57-12.94a12.53,12.53,0,0,1,1.16,3.26l-2.42.48Zm.35-1,2-5.82,7.87,0Zm-.36.05a12.57,12.57,0,0,1-1.78-5.85l3.76,0Zm-.44.42L35.3,50.67l4.12-7.23Zm-5.9-1.45,1.7-3a12.68,12.68,0,0,1,4.13,4.08ZM38,59.72l-2.69,3.14-.06-10.92Zm.12.35.95,2.69a12.63,12.63,0,0,1-3.76.75v-.15Zm0,7.25-2.78,8.25L35.29,64Zm2.7-.49.71-1.26a12.54,12.54,0,0,1,3.24,2.7,12.72,12.72,0,0,0,.65,1.46l-3,1.73Zm.87-1.55L42.42,64l1.9,3.28A13.13,13.13,0,0,0,41.7,65.28Zm.71-1.93-.84-1.46a13.25,13.25,0,0,0,3.21-2.81.85.85,0,0,0-.06.17Zm-1-1.74-.63-1.09,1.79-5.31L45.76,57A12.65,12.65,0,0,1,41.4,61.61Zm1.05-7.1-.15.17-6.2-3.54,7.49,0Zm1.49-3.4h1.43L43,53.85Zm.11-.33.51-1.52,2.59-.52a2,2,0,0,0,0,.24l-1.54,1.79Zm3.2-1.38a12.26,12.26,0,0,1,.1,1.36H46.08Zm-.74-3.81a13,13,0,0,0,1.89,2l-.61.72-.37.07A13,13,0,0,0,46.51,45.59Zm1.45,3,1.4-.28c.36.24.73.48,1.11.69l-1,1.76H47.67a13.28,13.28,0,0,0-.14-1.68Zm1.84-.37L51.05,48l-.42.75ZM49.44,48l-.58-.43,1.69-2,1.67.31-1,1.71Zm3.11-2,3.55.67-4.42.89Zm.17-.3,4-7.18.27.46v7.51h-.07Zm4.09-7.7s-.07,0-.1,0l-8.35,0,4.09-12.14a13.1,13.1,0,0,0,4.22.68l.37,0,0,11.43Zm8.88,10.17-.55-.63a13.41,13.41,0,0,0,2-2.18,12.52,12.52,0,0,0-1,2.9Zm.43.41a.17.17,0,0,1,0,.07L66,48.5Zm6.43,13.53a11.56,11.56,0,0,0,1.46.71l.26.73-.31.89a14.11,14.11,0,0,0-1.35.67l-.9-1.55Zm-1,1.13-2.06-3.54a13,13,0,0,0,2.81,2.25Zm2.93.8.06.2-.15.06Zm0-1.07.06,0,0,.07Zm.21,1.57.82,2.31-1.08,1.27-.83-1.44.69-2Zm0-1,.15-.45a13.18,13.18,0,0,0,2.15.51,12.37,12.37,0,0,0-2.1.51Zm0-.87-.31-.11-.76-2.14,1-1.7,1,1.19ZM73.37,60l-1.53-4.34,2.43,2.78Zm.5,2.38a11.41,11.41,0,0,1-1.16-.58l.59-1Zm-.05,2.46-.51,1.44-.53-.92A11.2,11.2,0,0,1,73.82,64.81ZM73.39,67l.75,1.29-2,2.39Zm.92,1.59,3.8,6.52-6.29-3.59Zm.23-.27,1-1.21,2.68,7.57Zm.39-4a12.64,12.64,0,0,1,3.1-.63L75.68,66.5Zm-.05-1.64.9-2.59,2.69,3.08-.12.14A12.52,12.52,0,0,1,74.88,62.73Zm.78-3.22-1-1.14,3.5-6.07Zm-1.22-1.4-2.86-3.27,6.69-3.9h.3Zm-5-9.29L68,44.71l10,5.73Zm7.72,1.8-7.07,0-.53-1.48ZM68.26,44.5l5.86-1.18,4,6.84Zm-.15-.3a12.67,12.67,0,0,1,4.11-4.13L74,43Zm-.42-.32-2-5.66,3.63,0A12.57,12.57,0,0,1,67.69,43.88Zm0,1,1.36,3.85-2.56-.49A12.46,12.46,0,0,1,67.7,44.9ZM65.17,48l-.55-.11.28-.21Zm-1.78-2.53,3.79-.76a13.12,13.12,0,0,1-2.25,2.51Zm2.94,3.85,1.17,1.33H66.25A11.9,11.9,0,0,1,66.33,49.33Zm.06-.42c0-.11,0-.22,0-.33l2.74.52.55,1.55h-1.8ZM69.85,51,71,54.14,68.21,51Zm.34,0,7.43,0-6.17,3.6Zm3,9.36-.73,1.27a12.91,12.91,0,0,1-4-3.79l-.2-.35,0,0L67.91,57l3.37-2Zm-1.82,3.17-2,3.45a13.2,13.2,0,0,0,.44-3.35,13,13,0,0,0-.59-3.77Zm.19.32.81,1.39a12.9,12.9,0,0,0-3.12,2.62Zm1,1.67.67,1.16-1.64,4.72-3.18-1.81.09-.18A12.68,12.68,0,0,1,72.5,65.5Zm-1.18,6.14-3.88,4.57H66.37a12.74,12.74,0,0,1,1.3-5.48c.19-.28.37-.58.54-.88Zm-9.87,9.71,1.41.25L58,87.28ZM61.28,81,58,80.39l4.11-.76Zm.34.06.86-1.5,2.29-.43.12.09-1.79,2.1Zm5.18-.43a13.23,13.23,0,0,0-1.46-1.44L65.5,79l.8-.15A12,12,0,0,0,66.8,80.62Zm-.43-4.08h.79l-.74.86C66.4,77.12,66.38,76.83,66.37,76.54Zm-.53,2,.35-.41c0,.11,0,.23,0,.34Zm-.51.1-.48.09a14,14,0,0,0-1.39-.93l.75-1.3h1.84c0,.41,0,.82.07,1.21Zm-2.15-1a13,13,0,0,0-2.75-1.11l3.4,0Zm.12.45a13.26,13.26,0,0,1,1.11.73l-1.72.32Zm1.83,1.29a12.9,12.9,0,0,1,2.12,2.31c0,.12.11.23.17.35l-4-.7Zm1.48-.64,2.52-.47L67.84,82c-.1-.16-.21-.32-.32-.47A13.12,13.12,0,0,1,66.61,78.78Zm0-.32c0-.2-.07-.4-.09-.61l1.12-1.32h2.16L69.25,78Zm3.53-1.94,7.06,0-7.53,1.4Zm-.23-.32h-2l3.38-4Zm-3.81,0H64.39l2.35-4.07A12.73,12.73,0,0,0,66.05,76.22Zm-2,0-4.18,0A12.93,12.93,0,0,0,66,72.84ZM63,78l-.75,1.3-5,.93v-3.6h1.61A12.32,12.32,0,0,1,63,78ZM57,25.52l-.38,0a11.91,11.91,0,0,1-2.4-.22,11.92,11.92,0,0,1,2.4-.25l.38,0Zm.26,55.09,3.81.68-3.82,6.63Zm5.93,1,4.36.78.06.11-9.92,5.63h0ZM67.5,83l-1.78,5.13-7.32,0Zm.37-.1c.18.29.36.58.56.86a12.62,12.62,0,0,1,1.11,4.35l-3.48,0Zm.33-.3.09,0,5.66,1-1.88,3.28A13,13,0,0,1,68.7,83.6C68.55,83.26,68.38,82.93,68.2,82.61Zm.53-.3,8.78-5-3.39,5.94Zm-.5-.09-.11,0,1.37-4,8.39-1.56,0,.1Zm2-6,1.5-4.34,6.73,3.84h0l-.26.45ZM78.68,63,75.9,59.79l2.8-8.06,0,11.16ZM87,40.74l.24-.05c0,.11.06.22.08.34Zm-.35-.26a12.83,12.83,0,0,0-5.06-2.34l5.37,0a13,13,0,0,0,.23,2.26Zm-.43.08L74.28,43,72.5,39.9a12.49,12.49,0,0,1,13.72.66Zm-13.89-.94-.83-1.43,4.49,0A12.67,12.67,0,0,0,72.33,39.62Zm-5,4.37-10-5.73,7.94,0Zm0,.36-4.2.85-5.73-6.56Zm-4.57.92-1.51.3-3.54-6.08ZM62,47.4l-4.17-.8,3.32-.66Zm-.52-1.53L63,45.55l1.65,1.9-.49.37-1.81-.34Zm2.4,2.21c-.27.18-.54.35-.82.51l-.42-.74Zm.43.09,1.25.23.53.61a15.26,15.26,0,0,0-.13,1.66H64.24l-1-1.81C63.56,48.65,63.92,48.42,64.27,48.17Zm2,6.73A12.86,12.86,0,0,0,59.54,51l4.52,0ZM64.43,51h1.5a13.13,13.13,0,0,0,.54,3.51Zm1.82,0h1.53l3.3,3.77L67.75,56.7l-.12-.21A12.56,12.56,0,0,1,66.25,51ZM68,57.72a12.57,12.57,0,0,1,.61,10.6l-.6,1L57.32,63.26v-.09l10.29-6C67.72,57.35,67.84,57.53,68,57.72Zm-.15,11.91-1,1.8a12.61,12.61,0,0,1-8.35,4.75c-.37,0-.75-.06-1.13-.07l0-12.47ZM57,24.76l-.38,0a13.08,13.08,0,0,0-3.09.41c-.28-.07-.54-.14-.81-.23l3.82-11.35h.05l.42,1.2Zm-4.58,0a12.15,12.15,0,0,1-1.9-.87l5.35-9.38Zm-2.18-1a12.3,12.3,0,0,1-4.14-4.1L55.86,14ZM52,25.66a13,13,0,0,0-3.65,2.21l1.76-3.09A12.45,12.45,0,0,0,52,25.66ZM41.17,39.72a12.89,12.89,0,0,0-3.44-1.37l4.23,0ZM41,40l-1.75,3.08-12-2.29a12.6,12.6,0,0,1,6.37-2.42h2.1A12.52,12.52,0,0,1,41,40Zm-14.17.71-.53-.1a13.33,13.33,0,0,0,.2-2.2l5.12,0A13,13,0,0,0,26.84,40.71Zm-.35.27-.31.28c0-.11.06-.22.08-.33Zm.43.08,12.17,2.31L35,50.52l-10.15-5.8A13.06,13.06,0,0,0,26,41.83,10.92,10.92,0,0,1,26.92,41.06Zm-4,38.16a11.43,11.43,0,0,1-.2-1.17l8.06-9.41,4.2,7.2-10.1,5.9A13.4,13.4,0,0,0,22.9,79.22Zm1.57,3.83-.32-.52,0,0C24.29,82.68,24.38,82.86,24.47,83.05ZM24,82.23h0L24,82.12Zm-1.76-5.72A13.57,13.57,0,0,0,22.35,78l-.37.43a13.31,13.31,0,0,0-1.79-1.25L23,72.28A12.9,12.9,0,0,0,22.26,76.51Zm.23,2.33-.26-.24.19-.23C22.44,78.53,22.46,78.69,22.49,78.84Zm-1.14.28-6.87,8L19.71,78A11.7,11.7,0,0,1,21.35,79.12Zm7.58-13.61,1.66,2.83-7.94,9.27c0-.36-.06-.73-.07-1.1A12.64,12.64,0,0,1,28.93,65.51Zm-6.45-11.7A12.51,12.51,0,0,1,22.13,51a12.9,12.9,0,0,1,.16-2l8.18,9.46-1.95,3.41a12.63,12.63,0,0,1-2.33-1.72Zm2.77,5.39a12.62,12.62,0,0,1-2.39-4.09Zm9.17,4.67-3.61,4.21-1.6-2.73A12.61,12.61,0,0,1,34.42,63.87Zm-5.37,1.2-1-1.71.59-1A13.13,13.13,0,0,0,33,63.72,12.71,12.71,0,0,0,29.05,65.07Zm-.25-3,1.9-3.32,4.08,4.72-.07.08A12.57,12.57,0,0,1,28.8,62.05Zm1.84-3.88-8.28-9.58c.05-.28.12-.56.19-.84A13,13,0,0,0,24.69,45l10.16,5.8Zm-2.28,4-.5.88L26.7,61A13.4,13.4,0,0,0,28.36,62.16Zm.41,3.07a13,13,0,0,0-3.39,2.82l2.49-4.37ZM31,68.38l3.87-4.52H35L35,75.3Zm-.12-9.95,4-7.08L35,63.16Zm-5.52-18L15,38.46l10.52-.05A12.24,12.24,0,0,1,25.35,40.43Zm-.05.32a12,12,0,0,1-.62,2.06,13,13,0,0,0-.91,1.29l-9.56-5.46Zm-1.69,3.63a12.12,12.12,0,0,0-.86,1.73,12.57,12.57,0,0,1-1.35,1.38l-7.47-8.64Zm-1.49,3.77a.79.79,0,0,0,0,.13L22,48.22ZM22,53l-1.93-3.3a12.42,12.42,0,0,0,1.74-1.23l.21.25a12.46,12.46,0,0,0-.2,2.3A11.85,11.85,0,0,0,22,53Zm-2.42-4.14-5.31-9.1,6.9,8A11.09,11.09,0,0,1,19.57,48.83ZM19.3,49a12.07,12.07,0,0,1-5.52,1.57l-.06-11.11Zm.49.84,2.38,4.1a13.08,13.08,0,0,0,3.76,6.43l1.75,3L19.91,77a13,13,0,0,0-6-1.64l-.12-23.78A13.18,13.18,0,0,0,19.79,49.84Zm-.36,28L14,87.4,13.9,76.3A12.3,12.3,0,0,1,19.43,77.81Zm2.16,1.53A12.76,12.76,0,0,1,23,80.83a14.58,14.58,0,0,0,.68,1.57L14.21,88Zm2.28,3.35a13,13,0,0,0,1.22,1.81,12.21,12.21,0,0,1,.45,1.6l-11,2.06Zm1.73,3.73a13.29,13.29,0,0,1,.19,1.91l-10.73,0ZM25,82l10-5.83v.35s0,0,0,0,0,0,0,0a.15.15,0,0,0,.11.11l.44.25,3.84,6.58-12.6,2.35c-.15-.13-.31-.26-.45-.4A13.78,13.78,0,0,0,25,82Zm1.71,4.2a12.93,12.93,0,0,0,3.33,2.1l-3.31,0a13.1,13.1,0,0,0-.21-2.09ZM41.8,87.55l.41.7H40.44A13.49,13.49,0,0,0,41.8,87.55Zm4.78-4.42,9,5.06-7.17,0Zm-.08-.42.11-.2,4-.75,5.55,6.41Zm4.5-1,1.5-.28L56,87.51Zm.85-2,4.28.76-3.46.65Zm.48,1.47-1.57.29-1.82-2.09.2-.15,2.3.41ZM49.5,78.89c.36-.26.73-.51,1.12-.74l.6,1Zm.6-2.27,3.3,0a13,13,0,0,0-2.67,1.1Zm-.19-.32-1.8-3.12A12.93,12.93,0,0,0,54,76.28Zm-.37,0H48.12a12.88,12.88,0,0,0-.46-3.25Zm-1.74,0H46.35l-3.67-4.23-.1-.31,3-1.76A12.76,12.76,0,0,0,47,72,12.61,12.61,0,0,1,47.8,76.31ZM45.45,68.6l-.58-1A12.45,12.45,0,0,1,45,59.38l1.18-2.1,10.39,5.94L46,69.39C45.84,69.12,45.65,68.86,45.45,68.6Zm.47-11.85-3.26-1.86.08-.22L45.8,51.1h1.54A12.42,12.42,0,0,1,45.92,56.75Zm1.75-5.66H49.3l-2.46,4.37A12.65,12.65,0,0,0,47.67,51.09Zm2,0,4.37,0a12.9,12.9,0,0,0-6.29,3.44Zm.18-.33.91-1.61a12.74,12.74,0,0,0,6,1.47H57v.12Zm6.94-.46a12.53,12.53,0,0,1-5.88-1.43l.56-1,5.47-1.1.07,0v3.49Zm.48,50.85a12.71,12.71,0,0,1,2.25.23,12.7,12.7,0,0,1-2.25.25Zm0-1V88.8l.53-.3,7.78,0-4.3,12.39A13.39,13.39,0,0,0,57.28,100.17ZM63,102.66l-5.15,9,3.4-9.79A13.71,13.71,0,0,1,63,102.66Zm.27.17a12.43,12.43,0,0,1,4.16,4l-9.66,5.64ZM61.78,101a12.82,12.82,0,0,0,3.3-1.93l-1.56,2.73A13.69,13.69,0,0,0,61.78,101ZM72.19,87.3a13.44,13.44,0,0,0,1.5.8h-2Zm15.18-1.17a11.88,11.88,0,0,0-.16,1.9l-2.84,0A13.22,13.22,0,0,0,87.37,86.13Zm-12.91-2.8L78.07,77l1-.55h0l0,0s0,0,0,0,0,0,0,0,0,0,0,0v-.2l9.75,5.56a13.09,13.09,0,0,0-1.45,4h0Zm13.89,2.8L98.76,88,88.18,88A13.16,13.16,0,0,1,88.35,86.13Zm.05-.33c.06-.31.14-.61.22-.91a12.7,12.7,0,0,0,1.7-2.4l9.29,5.31Zm2.07-3.6a13,13,0,0,0,.94-2.36c.27-.29.55-.58.85-.85l7.38,8.45Zm3.94-4.77a12.11,12.11,0,0,1,5.51-1.57L100,87Zm-.49-.84-2.9-5A13,13,0,0,0,89,68.1l-2.93-5,1.64-2.88a12.92,12.92,0,0,0,3.81-6.65l2.29-4a13.14,13.14,0,0,0,6,1.67l.12,23.68A13.23,13.23,0,0,0,93.92,76.59Zm.33-27.9,5.49-9.6.06,11.13A12.28,12.28,0,0,1,94.25,48.69ZM89.34,32.25,99,37.73l-11,.05A12.28,12.28,0,0,1,89.34,32.25Zm-.84-.49a13.22,13.22,0,0,0-1.54,6l-15.65.07L69.17,34.2a13,13,0,0,0-3.31-5.66l-2.33-4A13.33,13.33,0,0,0,68,20.05ZM67.13,19.57A12.42,12.42,0,0,1,63,23.7L57.38,14Zm-9.76-4.93,5.39,9.23a13,13,0,0,1-1.84.88l-3.55-10Zm-.35,0,3.6,10.2c-.29.1-.57.18-.86.26a17.55,17.55,0,0,0-2.82-.37ZM57,25.08a21.13,21.13,0,0,1,2.12.21,18.4,18.4,0,0,1-2.11.24Zm.41,1.4a13,13,0,0,0,3.54-.69l.05,0,4.27,12.08-7.87,0Zm0,13,3.59,6.16-3.59.72Zm0,7.37,4.83.92.58,1a12.62,12.62,0,0,1-5.42,1.51Zm0,3.73A12.72,12.72,0,0,0,62.91,49l1,1.65-6.54,0Zm0,.51a12.56,12.56,0,0,1,10.12,5.79L57.32,62.79Zm-.64-38.54-11,6.27A12.27,12.27,0,0,1,56.54,1h.28M45.3,20.16a13.42,13.42,0,0,0,4.5,4.46l-2.28,4a13,13,0,0,0-3.28,5.75L42.15,38l-6.42,0c-.35,0-.7,0-1,0s-.7,0-1,.06l-7.12,0a13.18,13.18,0,0,0-1.57-6ZM25.54,38.09l-11,0,9.59-5.6A12.36,12.36,0,0,1,25.54,38.09ZM1,38.38A12.28,12.28,0,0,1,23.6,31.71L13,37.91a.47.47,0,0,0-.24.42l.06,12.25A12.31,12.31,0,0,1,1,38.38Zm12.6,62.47a12.28,12.28,0,0,1-.64-24.54L13,88.55a.46.46,0,0,0,.25.42l10.68,6.1A12.28,12.28,0,0,1,13.57,100.85Zm10.84-6.62-9.67-5.52,11,0A12.18,12.18,0,0,1,24.41,94.23Zm.84.48a13,13,0,0,0,1.51-6.06l4.14,0a12.89,12.89,0,0,0,4.36.75,13,13,0,0,0,4.34-.79h2.8l2,3.42a12.86,12.86,0,0,0,3.79,6.48l2.09,3.6a13.28,13.28,0,0,0-4.43,4.39Zm19.58,18.77a12.26,12.26,0,0,1,1.37-5.69l10.41,5.94.32,12A12.29,12.29,0,0,1,44.83,113.48Zm12.11-1-3.77-10.68.74-.22a12.72,12.72,0,0,0,3,.38Zm0-10.84a12.47,12.47,0,0,1-2.38-.23,12.48,12.48,0,0,1,2.38-.26Zm0-1.46a12.93,12.93,0,0,0-4.1.71L48.49,88.55l7.63,0,.69.39h0l0,0,0,0h0l0,0h0Zm0-12H56.8l-4-6.83L57,80.58Zm0-8-5.33-1L50.89,78a12.34,12.34,0,0,1,4-1.38h1.55l.45,0H57Zm0-4.13h-.07a12.62,12.62,0,0,0-1.51.1,12.6,12.6,0,0,1-7.94-4.13l-.31-.54a13.61,13.61,0,0,0-1-1.86l10.72-6.25.08,0ZM56.91,63,46.35,57,47,55.78a12.55,12.55,0,0,1,9.76-4.71.83.83,0,0,1,.22,0L57,63Zm.36,38.91a12.77,12.77,0,0,0,2.92-.4c.27.07.53.14.79.23l-3.72,10.72ZM69.4,113.36a12.46,12.46,0,0,1-11.67,12.33l-.14-12L68,107.67A12.13,12.13,0,0,1,69.4,113.36Zm-1.09-7A13.31,13.31,0,0,0,63.8,102l2-3.57a13,13,0,0,0,3.75-6.57l2-3.42h2.94a12.67,12.67,0,0,0,9.1,0h3.63a13.18,13.18,0,0,0,1.58,6Zm19.88-18,11,0-9.57,5.59A12.19,12.19,0,0,1,88.19,88.35Zm12.33,12.05a12.26,12.26,0,0,1-10.39-5.67l10.59-6.19a.48.48,0,0,0,.24-.42l-.06-12.27a12.28,12.28,0,0,1-.38,24.55ZM56.83,1c6.38.41,12,5.74,12.06,12.23a12.28,12.28,0,0,1-1.29,5.51L56.69,12.55Z"/><path d="M29.6,107.8a.72.72,0,1,0-.72.72A.72.72,0,0,0,29.6,107.8Z"/><path d="M28,124.62l0,10.54a.48.48,0,0,0,.48.49.49.49,0,0,0,.49-.49l0-10.54a12.85,12.85,0,0,0-.13-1.78,3.9,3.9,0,0,0,1-1l.24-.3.13-.16.6.34,0,0a1,1,0,0,0,1.09-.12.88.88,0,0,0,.24-.94,1.14,1.14,0,0,0-1-.75,1.77,1.77,0,0,0-1.11.27,6.23,6.23,0,0,1-.87-.67,2,2,0,0,0-.33-.24l.32-.5.12-.21a2.41,2.41,0,0,0,.93.51,1.5,1.5,0,0,0,1.21-.2,1.18,1.18,0,0,0,.48-.87,1.27,1.27,0,0,0-.31-.91,1.41,1.41,0,0,0-1-.49,1.93,1.93,0,0,0-1.42.52,5.24,5.24,0,0,1-1.27-2.07,2.69,2.69,0,0,1,.61-2.69A1.75,1.75,0,0,1,29.9,112a1.31,1.31,0,0,1,1,.52,1,1,0,0,1,0,1.16.73.73,0,0,1-.5.25.6.6,0,0,1-.41-.13.49.49,0,0,0-.69,0,.48.48,0,0,0,0,.69,1.48,1.48,0,0,0,1.15.41,1.67,1.67,0,0,0,1.21-.62,2,2,0,0,0,0-2.31A2.27,2.27,0,0,0,30,111a2.78,2.78,0,0,0-2.14.66,3.58,3.58,0,0,0-.88,3.68,6.13,6.13,0,0,0,1.57,2.55l-.09.15-.15.24c-.12.2-.23.39-.35.56a2.65,2.65,0,0,0-2-.23.79.79,0,0,0-.38.84,1.09,1.09,0,0,0,.61.88,1.93,1.93,0,0,0,1.74-.14l.24-.16a1.83,1.83,0,0,1,.34.23,7.18,7.18,0,0,0,.77.62l0,0-.25.33a5.35,5.35,0,0,1-.52.61h0a1.22,1.22,0,0,0-.68-.43.86.86,0,0,0-.45,1.66,1.67,1.67,0,0,0,.5,0C27.92,123.57,28,124.13,28,124.62Zm2.58-7a.46.46,0,0,1,.31.15.28.28,0,0,1,.08.21.2.2,0,0,1-.08.15.59.59,0,0,1-.4,0,1.44,1.44,0,0,1-.55-.33A.92.92,0,0,1,30.55,117.58Z"/><path d="M28.43,137.06a.73.73,0,1,0,.72.73A.73.73,0,0,0,28.43,137.06Z"/><path d="M28.42,139.51a.72.72,0,1,0,.72.72A.72.72,0,0,0,28.42,139.51Z"/><path d="M28.41,142a.72.72,0,0,0-.72.72.71.71,0,0,0,.71.72.73.73,0,0,0,.73-.72A.72.72,0,0,0,28.41,142Z"/><path d="M28.4,144.39a.72.72,0,0,0-.72.72.71.71,0,0,0,.71.72.72.72,0,0,0,.73-.71A.73.73,0,0,0,28.4,144.39Z"/><path d="M28.39,146.84a.71.71,0,0,0-.72.71.72.72,0,0,0,.71.73.73.73,0,0,0,.73-.72A.72.72,0,0,0,28.39,146.84Z"/><path d="M28.38,149.28a.72.72,0,0,0,0,1.44.73.73,0,0,0,.73-.72A.72.72,0,0,0,28.38,149.28Z"/><path d="M28.37,151.72a.72.72,0,0,0,0,1.44.72.72,0,1,0,0-1.44Z"/><path d="M29.08,154.89a.73.73,0,0,0-.72-.73.72.72,0,0,0-.72.72.73.73,0,0,0,.72.73A.72.72,0,0,0,29.08,154.89Z"/><path d="M21.29,103.3a.73.73,0,0,0-.72-.73.72.72,0,0,0-.72.72.73.73,0,0,0,.72.73A.72.72,0,0,0,21.29,103.3Z"/><path d="M22.85,115.42a1.65,1.65,0,0,0-1.11.27,7.4,7.4,0,0,1-.87-.68,2.87,2.87,0,0,0-.33-.24l.32-.5.12-.21a2.28,2.28,0,0,0,.93.51,1.47,1.47,0,0,0,1.21-.2,1.17,1.17,0,0,0,.48-.87,1.28,1.28,0,0,0-.31-.91,1.4,1.4,0,0,0-1-.48,1.89,1.89,0,0,0-1.42.52,5.24,5.24,0,0,1-1.27-2.07,2.73,2.73,0,0,1,.6-2.7,1.83,1.83,0,0,1,1.37-.41,1.32,1.32,0,0,1,1,.53,1,1,0,0,1,0,1.15.69.69,0,0,1-.5.25.55.55,0,0,1-.41-.13.49.49,0,0,0-.69.69,1.51,1.51,0,0,0,1.16.41,1.67,1.67,0,0,0,1.21-.62,2,2,0,0,0,0-2.31,2.34,2.34,0,0,0-1.65-.94,2.81,2.81,0,0,0-2.13.66,3.59,3.59,0,0,0-.88,3.69,6.2,6.2,0,0,0,1.57,2.55.8.8,0,0,0-.09.14l-.15.25c-.12.19-.23.38-.35.55a2.64,2.64,0,0,0-2-.22.75.75,0,0,0-.38.83,1.09,1.09,0,0,0,.61.88,1.93,1.93,0,0,0,1.74-.14l.24-.16.34.23a7.18,7.18,0,0,0,.77.62l0,0-.25.32a4.6,4.6,0,0,1-.52.61h0a1.27,1.27,0,0,0-.68-.43.85.85,0,0,0-1,.62.84.84,0,0,0,.58,1,2.07,2.07,0,0,0,.5.06c.05.43.09,1,.1,1.49l0,6.89a.49.49,0,0,0,.49.49.5.5,0,0,0,.49-.49l0-6.9a14.91,14.91,0,0,0-.13-1.78,4,4,0,0,0,1-1l.24-.31.13-.15.6.33.05,0a1,1,0,0,0,1.09-.11.9.9,0,0,0,.24-.94A1.11,1.11,0,0,0,22.85,115.42Zm-.61-2.34a.44.44,0,0,1,.31.15.27.27,0,0,1,.08.2.2.2,0,0,1-.08.15.5.5,0,0,1-.4,0,1.55,1.55,0,0,1-.55-.32A.88.88,0,0,1,22.24,113.08Z"/><path d="M20,129a.72.72,0,0,0-.72.72.73.73,0,0,0,.72.73.72.72,0,0,0,.72-.72A.73.73,0,0,0,20,129Z"/><path d="M20,131.4a.72.72,0,1,0,.72.72A.72.72,0,0,0,20,131.4Z"/><path d="M20,133.84a.72.72,0,1,0,.72.72A.72.72,0,0,0,20,133.84Z"/><path d="M20,136.28a.72.72,0,0,0-.72.72.73.73,0,0,0,.72.73.73.73,0,0,0,0-1.45Z"/><path d="M19.94,138.73a.71.71,0,0,0-.72.71.72.72,0,1,0,1.44,0A.72.72,0,0,0,19.94,138.73Z"/><path d="M19.93,141.17a.72.72,0,1,0,.72.72A.72.72,0,0,0,19.93,141.17Z"/><path d="M19.92,143.61a.72.72,0,0,0,0,1.44.71.71,0,0,0,.72-.71A.73.73,0,0,0,19.92,143.61Z"/><path d="M19.91,146.06a.71.71,0,0,0-.72.71.73.73,0,0,0,.72.73.72.72,0,1,0,0-1.44Z"/><path d="M36.9,115.16a.72.72,0,0,0-.72-.72.71.71,0,0,0-.72.71.73.73,0,0,0,.72.73A.72.72,0,0,0,36.9,115.16Z"/><path d="M35.72,151.55a.71.71,0,0,0-.72.71.72.72,0,1,0,1.44,0A.72.72,0,0,0,35.72,151.55Z"/><path d="M35.71,154a.72.72,0,1,0,.72.72A.72.72,0,0,0,35.71,154Z"/><circle cx="35.7" cy="157.15" r="0.72"/><path d="M35.69,158.87a.72.72,0,0,0-.72.72.72.72,0,1,0,.72-.72Z"/><circle cx="35.68" cy="162.04" r="0.72" transform="translate(-126.79 195.69) rotate(-89.28)"/><circle cx="35.67" cy="164.48" r="0.72"/><path d="M35.66,166.2a.72.72,0,0,0-.72.72.73.73,0,0,0,.72.73.72.72,0,0,0,.72-.72A.73.73,0,0,0,35.66,166.2Z"/><path d="M35.65,168.65a.71.71,0,0,0-.72.71.73.73,0,0,0,.72.73.72.72,0,0,0,0-1.44Z"/><path d="M35.63,125.63c-.12.19-.23.38-.36.56a2.58,2.58,0,0,0-2-.23.75.75,0,0,0-.38.83,1.08,1.08,0,0,0,.61.88,1.93,1.93,0,0,0,1.74-.13l.24-.17a2.5,2.5,0,0,1,.34.24c.31.27.55.46.77.62l0,0-.25.33a6.41,6.41,0,0,1-.52.6h0a1.34,1.34,0,0,0-.68-.42.84.84,0,0,0-1,.62.83.83,0,0,0,.58,1,1.4,1.4,0,0,0,.5.06c0,.44.09,1,.1,1.49L35.2,150a.48.48,0,0,0,.48.49.49.49,0,0,0,.49-.48L36.24,132a14.91,14.91,0,0,0-.13-1.78,4,4,0,0,0,1-1c.08-.1.15-.21.23-.3l.14-.16.6.33,0,0A1,1,0,0,0,39.2,129a.9.9,0,0,0,.24-.94,1.13,1.13,0,0,0-1-.75,1.62,1.62,0,0,0-1.11.27,6.43,6.43,0,0,1-.87-.67,2,2,0,0,0-.33-.25,5.19,5.19,0,0,0,.31-.5,2.39,2.39,0,0,0,.13-.21,2.42,2.42,0,0,0,.93.52,1.44,1.44,0,0,0,1.2-.21,1.14,1.14,0,0,0,.49-.86,1.29,1.29,0,0,0-.31-.92,1.4,1.4,0,0,0-1-.48,1.93,1.93,0,0,0-1.42.52,5.24,5.24,0,0,1-1.27-2.07,2.69,2.69,0,0,1,.6-2.69,1.79,1.79,0,0,1,1.37-.41,1.3,1.3,0,0,1,1,.52,1,1,0,0,1,0,1.15.69.69,0,0,1-.5.25.51.51,0,0,1-.41-.13.49.49,0,0,0-.69.7,1.54,1.54,0,0,0,1.16.4,1.65,1.65,0,0,0,1.2-.62,2,2,0,0,0,0-2.31,2.29,2.29,0,0,0-1.65-.93,2.75,2.75,0,0,0-2.13.65,3.62,3.62,0,0,0-.89,3.69,6.16,6.16,0,0,0,1.58,2.55l-.09.15Zm2.22-.69a.44.44,0,0,1,.31.15.27.27,0,0,1,.08.2.2.2,0,0,1-.08.15.5.5,0,0,1-.4,0,1.55,1.55,0,0,1-.55-.32A.88.88,0,0,1,37.85,124.94Z"/><path d="M86.19,108.75a.72.72,0,0,0,0-1.44.71.71,0,0,0-.72.71A.73.73,0,0,0,86.19,108.75Z"/><path d="M89,118.85a2.63,2.63,0,0,0-2,.21,6,6,0,0,1-.35-.56l-.15-.24-.09-.15A6.1,6.1,0,0,0,88,115.57a3.59,3.59,0,0,0-.85-3.69,2.76,2.76,0,0,0-2.13-.67,2.25,2.25,0,0,0-1.65.92,2,2,0,0,0,0,2.31,1.68,1.68,0,0,0,1.2.63,1.48,1.48,0,0,0,1.16-.4.48.48,0,0,0,0-.69.5.5,0,0,0-.69,0,.5.5,0,0,1-.4.13.66.66,0,0,1-.5-.25,1,1,0,0,1,0-1.16,1.34,1.34,0,0,1,1-.51,1.78,1.78,0,0,1,1.37.42,2.7,2.7,0,0,1,.58,2.7,5.23,5.23,0,0,1-1.29,2.06,1.9,1.9,0,0,0-1.41-.54,1.44,1.44,0,0,0-1,.48,1.25,1.25,0,0,0-.32.91,1.11,1.11,0,0,0,.48.87,1.48,1.48,0,0,0,1.2.22,2.41,2.41,0,0,0,.93-.51,2.39,2.39,0,0,1,.13.21c.1.16.2.34.31.5a2.74,2.74,0,0,0-.34.25,6.21,6.21,0,0,1-.87.66,1.67,1.67,0,0,0-1.1-.28,1.13,1.13,0,0,0-1,.74.9.9,0,0,0,.23.94,1,1,0,0,0,1.09.13l0,0,.6-.33.14.16.23.3a3.86,3.86,0,0,0,1,1,14.9,14.9,0,0,0-.15,1.79l0,10.54a.49.49,0,0,0,1,0l0-10.52c0-.5.06-1.07.11-1.5a1.57,1.57,0,0,0,.49-.06.83.83,0,0,0,.6-1,.84.84,0,0,0-1-.62,1.18,1.18,0,0,0-.68.42h0a4.69,4.69,0,0,1-.51-.62c-.09-.11-.17-.22-.26-.32l0,0a8.33,8.33,0,0,0,.77-.61,1.63,1.63,0,0,1,.35-.23,1.88,1.88,0,0,0,.23.16,1.93,1.93,0,0,0,1.74.15,1.09,1.09,0,0,0,.62-.87A.78.78,0,0,0,89,118.85Zm-4.47-.5a.53.53,0,0,1-.4,0,.2.2,0,0,1-.08-.15.28.28,0,0,1,.08-.21.43.43,0,0,1,.31-.14h0a1,1,0,0,1,.59.24A1.55,1.55,0,0,1,84.53,118.35Z"/><circle cx="86.41" cy="138.01" r="0.72"/><circle cx="86.4" cy="140.46" r="0.72" transform="translate(-54.4 226.3) rotate(-89.77)"/><path d="M86.39,142.18a.72.72,0,1,0,.72.72A.72.72,0,0,0,86.39,142.18Z"/><path d="M86.38,144.62a.72.72,0,1,0,.72.72A.72.72,0,0,0,86.38,144.62Z"/><path d="M86.37,147.06a.72.72,0,0,0-.72.72.73.73,0,0,0,.72.73.72.72,0,0,0,.72-.72A.73.73,0,0,0,86.37,147.06Z"/><path d="M86.36,149.51a.71.71,0,0,0-.72.71.73.73,0,0,0,.72.73.72.72,0,1,0,0-1.44Z"/><path d="M86.35,152a.72.72,0,1,0,.72.72A.72.72,0,0,0,86.35,152Z"/><path d="M86.34,154.39a.72.72,0,0,0,0,1.44.71.71,0,0,0,.72-.71A.73.73,0,0,0,86.34,154.39Z"/><path d="M94.53,104.31a.73.73,0,0,0,.73-.72.73.73,0,0,0-1.45,0A.73.73,0,0,0,94.53,104.31Z"/><path d="M97.34,114.41a2.63,2.63,0,0,0-2,.21c-.12-.17-.23-.36-.35-.56l-.14-.24a1,1,0,0,1-.09-.15,6.27,6.27,0,0,0,1.59-2.54,3.59,3.59,0,0,0-.86-3.69,2.7,2.7,0,0,0-2.12-.67,2.23,2.23,0,0,0-1.65.92,2,2,0,0,0,0,2.31,1.64,1.64,0,0,0,1.2.63,1.51,1.51,0,0,0,1.16-.4.49.49,0,0,0,0-.69.5.5,0,0,0-.69,0,.51.51,0,0,1-.41.13.73.73,0,0,1-.5-.25,1,1,0,0,1,0-1.16,1.29,1.29,0,0,1,1-.51,1.72,1.72,0,0,1,1.36.42,2.68,2.68,0,0,1,.59,2.7,5.25,5.25,0,0,1-1.29,2,2,2,0,0,0-1.42-.53,1.48,1.48,0,0,0-1,.48,1.22,1.22,0,0,0-.31.91,1.13,1.13,0,0,0,.47.87,1.5,1.5,0,0,0,1.21.22,2.54,2.54,0,0,0,.93-.51l.12.21.31.5c-.13.09-.25.17-.33.24a6.41,6.41,0,0,1-.88.67,1.67,1.67,0,0,0-1.1-.28,1.13,1.13,0,0,0-1,.74.9.9,0,0,0,.23.94,1,1,0,0,0,1.1.13l0,0c.23-.14.43-.24.6-.33a1.83,1.83,0,0,1,.13.16,3.4,3.4,0,0,1,.23.3,4.07,4.07,0,0,0,1,1,14.9,14.9,0,0,0-.15,1.79l0,6.89a.49.49,0,0,0,1,0l0-6.88c0-.5.06-1.07.11-1.5a1.63,1.63,0,0,0,.5-.06.82.82,0,0,0,.59-1,.84.84,0,0,0-1-.63,1.22,1.22,0,0,0-.68.43h0a5.44,5.44,0,0,1-.51-.62,3.92,3.92,0,0,0-.25-.32l0,0a8.27,8.27,0,0,0,.78-.61,2.5,2.5,0,0,1,.34-.24,1.31,1.31,0,0,0,.24.17,1.91,1.91,0,0,0,1.73.15,1.05,1.05,0,0,0,.62-.87A.78.78,0,0,0,97.34,114.41Zm-4.47-.5a.51.51,0,0,1-.39-.06.16.16,0,0,1-.08-.14.27.27,0,0,1,.07-.21.45.45,0,0,1,.31-.14h.06a.94.94,0,0,1,.59.24A1.51,1.51,0,0,1,92.87,113.91Z"/><path d="M94.92,129.25a.72.72,0,1,0,.72.72A.72.72,0,0,0,94.92,129.25Z"/><path d="M94.91,131.69a.72.72,0,0,0,0,1.44.71.71,0,0,0,.72-.71A.73.73,0,0,0,94.91,131.69Z"/><path d="M94.9,134.14a.71.71,0,0,0-.72.71.73.73,0,0,0,.72.73.72.72,0,0,0,0-1.44Z"/><path d="M94.89,136.58a.72.72,0,1,0,.72.72A.72.72,0,0,0,94.89,136.58Z"/><path d="M94.88,139a.72.72,0,0,0,0,1.44.71.71,0,0,0,.72-.71A.73.73,0,0,0,94.88,139Z"/><path d="M94.87,141.46a.73.73,0,1,0,.72.73A.73.73,0,0,0,94.87,141.46Z"/><path d="M94.86,143.91a.72.72,0,1,0,.72.72A.72.72,0,0,0,94.86,143.91Z"/><path d="M94.85,146.35a.72.72,0,1,0,.72.72A.72.72,0,0,0,94.85,146.35Z"/><path d="M78.83,116.05a.73.73,0,0,0,0-1.45.73.73,0,1,0,0,1.45Z"/><path d="M79,151.72a.71.71,0,0,0-.72.71.73.73,0,0,0,.72.73.72.72,0,0,0,0-1.44Z"/><path d="M79,154.16a.73.73,0,0,0-.73.72.72.72,0,1,0,.73-.72Z"/><path d="M79,156.6a.73.73,0,0,0-.73.72A.72.72,0,0,0,79,158a.71.71,0,0,0,.72-.71A.72.72,0,0,0,79,156.6Z"/><path d="M79,159.05a.72.72,0,0,0-.73.71.73.73,0,0,0,.72.73.72.72,0,0,0,.72-.72A.71.71,0,0,0,79,159.05Z"/><path d="M79,161.49a.72.72,0,1,0,0,1.44.72.72,0,0,0,.72-.72A.71.71,0,0,0,79,161.49Z"/><path d="M79,163.93a.73.73,0,0,0-.73.72.72.72,0,0,0,.72.72.71.71,0,0,0,.72-.71A.72.72,0,0,0,79,163.93Z"/><path d="M79,166.37a.73.73,0,1,0,.72.73A.73.73,0,0,0,79,166.37Z"/><path d="M78.94,168.82a.72.72,0,1,0,.72.72A.72.72,0,0,0,78.94,168.82Z"/><path d="M79.42,127.54a1.46,1.46,0,0,0,.24.17,1.91,1.91,0,0,0,1.73.15A1.05,1.05,0,0,0,82,127a.77.77,0,0,0-.37-.83,2.63,2.63,0,0,0-2,.21c-.12-.17-.23-.36-.35-.56l-.15-.24-.09-.15a6.2,6.2,0,0,0,1.6-2.54,3.59,3.59,0,0,0-.86-3.69,2.71,2.71,0,0,0-2.13-.67,2.27,2.27,0,0,0-1.65.92,2,2,0,0,0,0,2.31,1.68,1.68,0,0,0,1.2.63,1.51,1.51,0,0,0,1.16-.4.5.5,0,0,0,0-.69.49.49,0,0,0-.69,0,.55.55,0,0,1-.41.13.73.73,0,0,1-.5-.25,1,1,0,0,1,0-1.16,1.27,1.27,0,0,1,1-.51,1.72,1.72,0,0,1,1.36.42,2.67,2.67,0,0,1,.59,2.69,5.21,5.21,0,0,1-1.29,2.06,2,2,0,0,0-1.42-.53,1.42,1.42,0,0,0-1,.48,1.18,1.18,0,0,0-.31.91,1.14,1.14,0,0,0,.47.87,1.46,1.46,0,0,0,1.21.21,2.38,2.38,0,0,0,.93-.5l.12.21.31.5c-.13.09-.25.17-.33.24a7.09,7.09,0,0,1-.88.67,1.67,1.67,0,0,0-1.1-.28,1.13,1.13,0,0,0-1,.74.9.9,0,0,0,.23.94,1,1,0,0,0,1.09.13l0,0,.6-.32a1,1,0,0,1,.14.16,3.4,3.4,0,0,1,.23.3,4,4,0,0,0,1,1,17.3,17.3,0,0,0-.14,1.79l-.07,18.06a.49.49,0,1,0,1,0l.07-18.05c0-.5.06-1.07.11-1.5a2.07,2.07,0,0,0,.5-.06.82.82,0,0,0,.59-1,.84.84,0,0,0-1-.63,1.34,1.34,0,0,0-.68.42h0a4.57,4.57,0,0,1-.51-.61l-.25-.33,0,0a9.8,9.8,0,0,0,.78-.61A2,2,0,0,1,79.42,127.54Zm-2.25-1.89a.54.54,0,0,1-.4-.06.16.16,0,0,1-.07-.15.26.26,0,0,1,.07-.2.51.51,0,0,1,.31-.15h0a.94.94,0,0,1,.6.24A1.68,1.68,0,0,1,77.17,125.65Z"/><polygon points="57.06 148.6 59.71 144.88 57.09 141.3 54.44 144.86 57.06 148.6"/><line class="cls-1" x1="56.59" y1="12.9" x2="57.07" y2="131.28"/><path class="cls-2" d="M56.79,1c6.4.4,12.06,5.74,12.1,12.22a12.23,12.23,0,0,1-1.3,5.52L56.65,12.56Z"/><path class="cls-2" d="M56.67,12.55l-11,6.27A12.26,12.26,0,0,1,56.53,1h.28"/><path d="M57,175.66a.51.51,0,0,0,0,1,.51.51,0,1,0,0-1Z"/><path d="M56.89,173a.64.64,0,0,0-.64.64.63.63,0,0,0,.63.64.64.64,0,0,0,0-1.28Z"/></g></g></svg>