<svg xmlns="http://www.w3.org/2000/svg" viewBox="0 0 348.48 50.36"><defs><style>.cls-1{fill:#2e3192;}</style></defs><g id="Layer_2" data-name="Layer 2"><g id="Dream_Catcher" data-name="Dream Catcher"><g id="Layer_2-2" data-name="Layer 2"><g id="Layer_1-2" data-name="Layer 1-2"><g id="Layer_2-2-2" data-name="Layer 2-2"><g id="Layer_1-2-2" data-name="Layer 1-2-2"><path class="cls-1" d="M289,24.47V7.81H254.63a18.21,18.21,0,0,0-18.1,16.48h0V48.58h34.25A18.2,18.2,0,0,0,288.9,32.1h0V26.05A6.2,6.2,0,0,0,289,24.47Zm-10.14,2.41v2.67c0,.32,0,.65,0,1v.13h0a11.16,11.16,0,0,1-11.11,10.11h-21V25.84h0a11.16,11.16,0,0,1,11.11-10.1h21.09V25.92A8.13,8.13,0,0,0,278.87,26.88Z"/><path class="cls-1" d="M148.26,41.08h-21a11.14,11.14,0,0,1-10.81-8.44h32.52V24.3h-32.8V16.15h38.29v-8H106V32.65h0A18.2,18.2,0,0,0,124.1,49.07h30.37v-8Z"/><polyline class="cls-1" points="321.16 36.16 301.74 8.12 292.71 8.17 320.27 50.36 348.48 0"/><polygon class="cls-1" points="43.98 8.19 0 8.19 0 16.85 17.68 16.85 17.68 48.45 26.32 48.45 26.32 16.85 43.98 16.85 43.98 8.19"/><polygon class="cls-1" points="89.83 8.19 89.83 24.27 58.04 24.27 58.04 8.19 49.4 8.19 49.4 48.99 58.04 48.99 58.04 32.91 89.83 32.91 89.83 48.99 98.47 48.99 98.47 8.19 89.83 8.19"/><rect class="cls-1" x="187.05" y="22.49" width="8.64" height="26.5"/><path class="cls-1" d="M212.89,13a3.62,3.62,0,0,0-.67-1.31,9.4,9.4,0,0,0-6.15-3.47H162V49h8.64V16.83h30.38a5,5,0,0,1,4.27,2.86L220,49l11.12-.37Z"/></g></g></g></g></g></g></svg>