<svg xmlns="http://www.w3.org/2000/svg" xmlns:xlink="http://www.w3.org/1999/xlink" viewBox="0 0 1052.54 141.85"><defs><style>.cls-1{fill:#2b2b60;}.cls-2{fill:#8fc046;}.cls-3{fill:url(#linear-gradient);}.cls-4{fill:url(#linear-gradient-2);}.cls-5{fill:url(#linear-gradient-3);}.cls-6{fill:#e8307c;}.cls-7{fill:url(#linear-gradient-4);}.cls-8{fill:url(#linear-gradient-5);}.cls-9{fill:url(#linear-gradient-6);}.cls-10{fill:#31a9e1;}.cls-11{fill:url(#linear-gradient-7);}.cls-12{fill:url(#linear-gradient-8);}.cls-13{fill:url(#linear-gradient-9);}.cls-14{fill:#64338a;}.cls-15{fill:url(#linear-gradient-10);}.cls-16{fill:url(#linear-gradient-11);}.cls-17{fill:url(#linear-gradient-12);}</style><linearGradient id="linear-gradient" x1="67.57" y1="19.9" x2="115.21" y2="19.9" gradientUnits="userSpaceOnUse"><stop offset="0" stop-color="#fff" stop-opacity="0"/><stop offset="1" stop-color="#fff" stop-opacity="0.4"/></linearGradient><linearGradient id="linear-gradient-2" x1="43.71" y1="25" x2="67.57" y2="25" xlink:href="#linear-gradient"/><linearGradient id="linear-gradient-3" x1="67.57" y1="32.15" x2="81.28" y2="32.15" xlink:href="#linear-gradient"/><linearGradient id="linear-gradient-4" x1="2298.5" y1="-3138.13" x2="2346.14" y2="-3138.13" gradientTransform="translate(3158.03 2372.78) rotate(-90)" xlink:href="#linear-gradient"/><linearGradient id="linear-gradient-5" x1="2274.64" y1="-3133.03" x2="2298.51" y2="-3133.03" gradientTransform="translate(3158.03 2372.78) rotate(-90)" xlink:href="#linear-gradient"/><linearGradient id="linear-gradient-6" x1="2298.51" y1="-3125.88" x2="2312.21" y2="-3125.88" gradientTransform="translate(3158.03 2372.78) rotate(-90)" xlink:href="#linear-gradient"/><linearGradient id="linear-gradient-7" x1="5456.53" y1="-907.2" x2="5504.17" y2="-907.2" gradientTransform="translate(5530.81 -785.25) rotate(180)" xlink:href="#linear-gradient"/><linearGradient id="linear-gradient-8" x1="5432.67" y1="-902.1" x2="5456.54" y2="-902.1" gradientTransform="translate(5530.81 -785.25) rotate(180)" xlink:href="#linear-gradient"/><linearGradient id="linear-gradient-9" x1="5456.54" y1="-894.95" x2="5470.24" y2="-894.95" gradientTransform="translate(5530.81 -785.25) rotate(180)" xlink:href="#linear-gradient"/><linearGradient id="linear-gradient-10" x1="3225.6" y1="2250.83" x2="3273.24" y2="2250.83" gradientTransform="translate(2372.78 -3158.03) rotate(90)" xlink:href="#linear-gradient"/><linearGradient id="linear-gradient-11" x1="3201.74" y1="2255.93" x2="3225.61" y2="2255.93" gradientTransform="translate(2372.78 -3158.03) rotate(90)" xlink:href="#linear-gradient"/><linearGradient id="linear-gradient-12" x1="3225.61" y1="2263.09" x2="3239.31" y2="2263.09" gradientTransform="translate(2372.78 -3158.03) rotate(90)" xlink:href="#linear-gradient"/></defs><g id="Layer_2" data-name="Layer 2"><g id="Layer_1-2" data-name="Layer 1"><path class="cls-1" d="M250.92,32.83V48.67H226v66.72H207.43V48.67h-24.9V32.83Z"/><path class="cls-1" d="M308.46,115.39c-.92-2.86-1.91-5.81-3-8.83l-3.16-9H270.09L267,106.58c-1,3-2,6-2.92,8.81h-19.3q4.65-13.33,8.84-24.66t8.18-21.33q4-10,7.89-19t8.07-17.57h17.62q4.07,8.56,8,17.57t8,19q4,10,8.2,21.33t8.86,24.66ZM286.13,51.53c-.42,1.2-1,2.83-1.82,4.9s-1.71,4.45-2.73,7.15-2.16,5.68-3.42,8.94-2.54,6.66-3.84,10.23h23.61q-1.9-5.37-3.67-10.27t-3.38-9c-1.06-2.7-2-5.09-2.8-7.15S286.62,52.7,286.13,51.53Z"/><path class="cls-1" d="M414.63,74.05a50.71,50.71,0,0,1-3.16,18.65,38.15,38.15,0,0,1-8.64,13.46,35.27,35.27,0,0,1-13,8.16,47.38,47.38,0,0,1-16.27,2.74,46.07,46.07,0,0,1-16-2.74,36.55,36.55,0,0,1-13.11-8.16,38.09,38.09,0,0,1-8.81-13.46,49.87,49.87,0,0,1-3.22-18.65,48.5,48.5,0,0,1,3.33-18.65,39.93,39.93,0,0,1,9-13.52,37,37,0,0,1,13.11-8.22,44.87,44.87,0,0,1,15.66-2.74,46.12,46.12,0,0,1,16,2.74,36.51,36.51,0,0,1,13.11,8.22,38.8,38.8,0,0,1,8.81,13.52A49.91,49.91,0,0,1,414.63,74.05Zm-63,0a37.59,37.59,0,0,0,1.49,11,24.87,24.87,0,0,0,4.29,8.4,18.85,18.85,0,0,0,6.85,5.42,23.43,23.43,0,0,0,18.53,0,18.8,18.8,0,0,0,6.91-5.42A25.23,25.23,0,0,0,394,85a37.59,37.59,0,0,0,1.49-11A38.25,38.25,0,0,0,394,63a25.16,25.16,0,0,0-4.29-8.46,18.9,18.9,0,0,0-6.91-5.42,21.72,21.72,0,0,0-9.24-1.91,21,21,0,0,0-9.29,2,19.55,19.55,0,0,0-6.85,5.48,24.8,24.8,0,0,0-4.29,8.46A37.8,37.8,0,0,0,351.6,74.05Z"/><path class="cls-1" d="M513.88,99.43v16H458.71V32.83H477.3v66.6Z"/><path class="cls-1" d="M525.79,32.83h18.59v82.56H525.79Z"/><path class="cls-1" d="M563.44,115.39V32.83h55.29v15.6H582V65.71h32.65V81.32H582v34.07Z"/><path class="cls-1" d="M631.83,115.39V32.83h55.76v15.6H650.42V64.64h33V79.89h-33v19.9h39.91v15.6Z"/><path class="cls-1" d="M726.55,101.22a26.7,26.7,0,0,0,6.5-.66,11.87,11.87,0,0,0,4.11-1.79,5.94,5.94,0,0,0,2.14-2.68,9.46,9.46,0,0,0,.6-3.45,8,8,0,0,0-3.82-6.73q-3.81-2.68-13.1-5.78c-2.7-1-5.41-2-8.1-3.28a29.49,29.49,0,0,1-7.27-4.65,22.24,22.24,0,0,1-5.25-6.79,21.28,21.28,0,0,1-2-9.71,24,24,0,0,1,2.14-10.3,22.08,22.08,0,0,1,6.08-7.81,27.86,27.86,0,0,1,9.53-4.94,42.86,42.86,0,0,1,12.63-1.73,50.59,50.59,0,0,1,24.43,5.72l-5.36,14.65a50.91,50.91,0,0,0-7.69-3.15,33.06,33.06,0,0,0-10.19-1.37c-4.45,0-7.64.61-9.59,1.84a6.25,6.25,0,0,0-2.92,5.66,6.49,6.49,0,0,0,1.08,3.81,10.34,10.34,0,0,0,3,2.81A27.32,27.32,0,0,0,728,63.15c1.71.67,3.59,1.37,5.66,2.08q6.43,2.38,11.2,4.71a29.91,29.91,0,0,1,7.92,5.42,19.59,19.59,0,0,1,4.71,7.27,29.28,29.28,0,0,1,1.55,10.13q0,11.55-8.1,17.93t-24.43,6.37a68.75,68.75,0,0,1-9.89-.65,65.19,65.19,0,0,1-7.8-1.61,45,45,0,0,1-5.84-2,41.73,41.73,0,0,1-4.11-2L704.15,96a45.84,45.84,0,0,0,9.12,3.64A47.31,47.31,0,0,0,726.55,101.22Z"/><path class="cls-1" d="M832.24,32.83V48.67H807.33v66.72H788.75V48.67h-24.9V32.83Z"/><path class="cls-1" d="M878.44,66.69q5-8.43,9.55-16.87t8.35-17h20.49Q910,46.17,902.77,58.68T887.4,83.82v31.57H868.81V84.06q-8.1-12.63-15.43-25.26t-14.11-26h21.56q3.81,8.55,8.21,17T878.44,66.69Z"/><path class="cls-1" d="M982.12,99.43v16H927V32.83h18.59v66.6Z"/><path class="cls-1" d="M994,115.39V32.83h55.76v15.6h-37.18V64.64h33V79.89h-33v19.9h39.92v15.6Z"/><path class="cls-2" d="M70.92,0A70.6,70.6,0,0,0,24.15,17.62L47,40.45a37.78,37.78,0,0,1,5.58-3.66A19.21,19.21,0,0,1,52,32.15a18.94,18.94,0,1,1,37.3,4.63,38.86,38.86,0,0,1,5.4,3.53l22.84-22.84A70.61,70.61,0,0,0,70.92,0Z"/><path class="cls-3" d="M70.92,1.58c-1.12,0-2.23,0-3.35.08a69.26,69.26,0,0,1,40.94,15.9L91.26,34.81q-.08.59-.18,1.17a41.11,41.11,0,0,1,3.47,2.25l20.66-20.67A69.28,69.28,0,0,0,70.92,1.58Z"/><path class="cls-4" d="M67.57,11.92A20.48,20.48,0,0,0,43.94,35.18l3.18,3.18A42.31,42.31,0,0,1,50.77,36a20.51,20.51,0,0,1,16.8-24.06Z"/><path class="cls-2" d="M82.86,32.15A11.94,11.94,0,1,0,70.92,44.09,11.94,11.94,0,0,0,82.86,32.15Z"/><path class="cls-5" d="M70.92,21.8a10.38,10.38,0,0,0-3.35.57,10.33,10.33,0,0,1,0,19.57A10.35,10.35,0,1,0,70.92,21.8Z"/><path class="cls-6" d="M0,70.92A70.63,70.63,0,0,0,17.62,117.7L40.45,94.87a37.78,37.78,0,0,1-3.66-5.58,19.21,19.21,0,0,1-4.64.57,18.94,18.94,0,0,1,0-37.87,19.21,19.21,0,0,1,4.64.57,38.58,38.58,0,0,1,3.52-5.41L17.47,24.31A70.65,70.65,0,0,0,0,70.92Z"/><path class="cls-7" d="M1.58,70.92c0,1.12,0,2.24.08,3.36a69.21,69.21,0,0,1,15.9-40.94L34.81,50.59q.59.07,1.17.18a38.12,38.12,0,0,1,2.25-3.47L17.56,26.63A69.32,69.32,0,0,0,1.58,70.92Z"/><path class="cls-8" d="M11.92,74.27A20.48,20.48,0,0,0,35.18,97.91l3.18-3.18A42.31,42.31,0,0,1,36,91.08a21.32,21.32,0,0,1-3.83.36A20.55,20.55,0,0,1,11.92,74.27Z"/><circle class="cls-6" cx="32.15" cy="70.92" r="11.93" transform="translate(-10.95 6.07) rotate(-9.22)"/><path class="cls-9" d="M21.8,70.92a10.29,10.29,0,0,0,.57,3.35,10.34,10.34,0,0,1,19.57,0A10.35,10.35,0,1,0,21.8,70.92Z"/><path class="cls-10" d="M70.92,141.85a70.61,70.61,0,0,0,46.78-17.62L94.87,101.4a38.59,38.59,0,0,1-5.58,3.66,18.94,18.94,0,1,1-36.73,0,38.58,38.58,0,0,1-5.41-3.52L24.31,124.38A70.65,70.65,0,0,0,70.92,141.85Z"/><path class="cls-11" d="M70.92,140.27c1.12,0,2.24,0,3.36-.08a69.37,69.37,0,0,1-40.94-15.9L50.59,107c0-.39.11-.78.18-1.16-1.19-.69-2.35-1.45-3.47-2.25L26.64,124.29A69.27,69.27,0,0,0,70.92,140.27Z"/><path class="cls-12" d="M74.27,129.93a20.55,20.55,0,0,0,23.87-20.24,20.37,20.37,0,0,0-.23-3l-3.18-3.18a42.31,42.31,0,0,1-3.65,2.38,20.34,20.34,0,0,1,.36,3.82A20.55,20.55,0,0,1,74.27,129.93Z"/><path class="cls-10" d="M59,109.69A11.94,11.94,0,1,0,70.92,97.76,11.93,11.93,0,0,0,59,109.69Z"/><path class="cls-13" d="M70.92,120.05a10.29,10.29,0,0,0,3.35-.57,10.34,10.34,0,0,1,0-19.57,10,10,0,0,0-3.35-.57,10.36,10.36,0,0,0,0,20.71Z"/><path class="cls-14" d="M141.85,70.92a70.6,70.6,0,0,0-17.62-46.77L101.4,47a37.78,37.78,0,0,1,3.66,5.58,18.94,18.94,0,1,1,0,36.73,37.91,37.91,0,0,1-3.52,5.4l22.84,22.84A70.61,70.61,0,0,0,141.85,70.92Z"/><path class="cls-15" d="M140.27,70.92c0-1.12,0-2.23-.08-3.35a69.33,69.33,0,0,1-15.9,40.94L107,91.26c-.39-.05-.78-.11-1.16-.18a41.11,41.11,0,0,1-2.25,3.47l20.67,20.66A69.28,69.28,0,0,0,140.27,70.92Z"/><path class="cls-16" d="M129.93,67.57a20.48,20.48,0,0,0-23.26-23.63l-3.18,3.18a42.31,42.31,0,0,1,2.38,3.65,20.51,20.51,0,0,1,24.06,16.8Z"/><circle class="cls-14" cx="109.69" cy="70.92" r="11.93"/><path class="cls-17" d="M120.05,70.92a10.38,10.38,0,0,0-.57-3.35,10.33,10.33,0,0,1-19.57,0,10.12,10.12,0,0,0-.57,3.35,10.36,10.36,0,1,0,20.71,0Z"/></g></g></svg>