<svg xmlns="http://www.w3.org/2000/svg" viewBox="0 0 254.37 26.09"><defs><style>.cls-1{fill:#2e3192;}.cls-2{fill:#416c53;}.cls-3{fill:#d4d4d4;}</style></defs><g id="Layer_2" data-name="Layer 2"><g id="Layer_1-2" data-name="Layer 1"><g id="Layer_2-2" data-name="Layer 2"><g id="Layer_1-2-2" data-name="Layer 1-2"><path class="cls-1" d="M0,17.52S25.83-.46,29.7,4.66s-3.56,16.42-5.42,17.82c0,0,6.69-11.39,4.13-15.89S4.08,15.43,0,17.52Z"/><path class="cls-2" d="M12.09,20.59S31.17,7.12,33.94,10.77s-4.4,10.71-5.73,11.71c0,0,6-6.49,4.19-9.7S15,19.09,12.09,20.59Z"/><path class="cls-3" d="M24.8,22.49s11.28-8,12.92-5.81-1.37,4.48-2.15,5.07c0,0,2-2.35,1.24-3.88C35.84,15.91,26.52,21.6,24.8,22.49Z"/><path class="cls-1" d="M218.31,10.21V0H197.23a11.15,11.15,0,0,0-11.1,10.1h0V25h21a11.16,11.16,0,0,0,11.11-10.11h0v-.08c0-.32,0-.64,0-1V11.18C218.31,10.85,218.32,10.59,218.31,10.21Zm-6.22,1.48v1.64a5.81,5.81,0,0,1,0,.59V14h0a6.84,6.84,0,0,1-6.81,6.2h-12.9V11.05h0a6.84,6.84,0,0,1,6.81-6.19h12.93V11.1C212.1,11.33,212.09,11.49,212.09,11.69Z"/><path class="cls-1" d="M132,20.4H119.1a6.84,6.84,0,0,1-6.63-5.18h19.94V10.11H112.3v-5h23.48V.23h-29.7v15h0A11.17,11.17,0,0,0,117.19,25.3h18.62V20.4Z"/><polygon class="cls-1" points="247.89 0.24 237.48 16.8 227.07 0.24 220.58 0.22 237.48 26.09 254.37 0.22 247.89 0.24"/><polygon class="cls-1" points="68.06 0.23 41.09 0.23 41.09 5.54 51.93 5.54 51.93 24.92 57.23 24.92 57.23 5.54 68.06 5.54 68.06 0.23"/><polygon class="cls-1" points="96.17 0.23 96.17 10.09 76.68 10.09 76.68 0.23 71.38 0.23 71.38 25.25 76.68 25.25 76.68 15.39 96.17 15.39 96.17 25.25 101.47 25.25 101.47 0.23 96.17 0.23"/><rect class="cls-1" x="155.79" y="9" width="5.3" height="16.25"/><path class="cls-1" d="M171.63,3.16a2.17,2.17,0,0,0-.41-.8A5.75,5.75,0,0,0,167.45.23h-27v25h5.3V5.53h18.63A3.08,3.08,0,0,1,167,7.28l9,18,6.82-.23Z"/></g></g></g></g></svg>